M48
;DRILL file {kicad (2014-12-04 BZR 5312)-product} date 1/6/2015 11:25:14 PM
;FORMAT={-:-/ absolute / inch / decimal}
FMAT,2
INCH,TZ
T1C0.012
T2C0.013
T3C0.018
T4C0.020
T5C0.020
T6C0.040
%
G90
G05
M72
T1
X2.4835Y-1.1928
X2.4835Y-1.2322
X2.513Y-1.2133
X2.5426Y-1.1928
X2.5426Y-1.2322
X2.7248Y-1.1695
X2.7248Y-1.2286
X2.7248Y-1.3445
X2.7248Y-1.4036
X2.7424Y-1.5241
X2.7424Y-1.5832
X2.7437Y-1.199
X2.7437Y-1.374
X2.7613Y-1.5536
X2.7642Y-1.1695
X2.7642Y-1.2286
X2.7642Y-1.3445
X2.7642Y-1.4036
X2.7818Y-1.5241
X2.7818Y-1.5832
T2
X2.005Y-1.571
X2.0129Y-1.9232
X2.09Y-1.209
X2.096Y-1.643
X2.166Y-1.286
X2.178Y-2.043
X2.187Y-1.816
X2.187Y-1.874
X2.2008Y-1.4124
X2.2159Y-1.845
X2.218Y-1.302
X2.245Y-1.874
X2.246Y-1.815
X2.26Y-1.267
X2.278Y-1.302
X2.285Y-1.65
X2.295Y-1.731
X2.3115Y-1.4354
X2.323Y-1.757
X2.336Y-1.623
X2.343Y-1.672
X2.346Y-1.221
X2.359Y-1.862
X2.363Y-1.486
X2.363Y-1.54
X2.3902Y-1.5131
X2.405Y-1.6335
X2.416Y-1.11
X2.417Y-1.486
X2.417Y-1.54
X2.425Y-1.7
X2.43Y-1.854
X2.44Y-1.146
X2.451Y-1.307
X2.466Y-1.625
X2.4685Y-1.5781
X2.475Y-1.86
X2.49Y-1.318
X2.5024Y-1.5004
X2.5051Y-1.6501
X2.5291Y-1.3194
X2.54Y-1.1097
X2.5777Y-1.3094
X2.5985Y-1.667
X2.622Y-1.251
X2.632Y-1.5435
X2.6326Y-1.6005
X2.635Y-1.88
X2.6427Y-1.1897
X2.643Y-1.359
X2.6435Y-1.702
X2.647Y-1.44
X2.648Y-1.297
X2.6497Y-1.5067
X2.6545Y-1.666
X2.665Y-1.544
X2.666Y-1.964
X2.689Y-1.116
X2.747Y-1.91
X2.792Y-1.124
X2.799Y-1.292
X2.8095Y-1.6217
X2.811Y-1.462
X2.8341Y-1.8666
X2.8762Y-1.1968
X2.88Y-1.4005
X2.895Y-1.734
X2.896Y-1.818
X2.909Y-1.563
X2.918Y-1.252
X2.918Y-1.456
X2.945Y-2.03
X2.968Y-1.622
T3
X2.0742Y-1.8095
X2.0742Y-1.8568
X2.0742Y-1.902
X2.102Y-2.017
X2.308Y-1.994
X2.351Y-2.019
X2.352Y-1.921
X2.352Y-1.971
X2.4709Y-2.0612
X2.486Y-1.705
X2.5196Y-2.061
X2.549Y-1.629
X2.568Y-2.061
X2.569Y-1.773
X2.571Y-1.898
T4
X2.5068Y-1.072
X2.5659Y-1.072
X2.8508Y-1.0834
X2.9099Y-1.0834
X2.963Y-1.3268
X2.963Y-1.3859
X2.974Y-1.5068
X2.974Y-1.5659
T5
X1.975Y-1.33
X2.455Y-1.02
T6
X3.046Y-1.064
X3.046Y-1.164
T0
M30
