G04 #@! TF.FileFunction,Legend,Top*
%FSLAX46Y46*%
G04 Gerber Fmt 4.6, Leading zero omitted, Abs format (unit mm)*
G04 Created by KiCad (PCBNEW (2014-12-04 BZR 5312)-product) date 1/18/2015 1:19:07 PM*
%MOMM*%
G01*
G04 APERTURE LIST*
%ADD10C,0.100000*%
%ADD11C,0.254000*%
%ADD12C,0.127000*%
%ADD13C,0.150000*%
%ADD14C,0.125000*%
G04 APERTURE END LIST*
D10*
D11*
X65190673Y-36282811D02*
X65964768Y-36282811D01*
X65577720Y-36669859D02*
X65577720Y-35895764D01*
X66432733Y-53039191D02*
X67206828Y-53039191D01*
X66819780Y-53426239D02*
X66819780Y-52652144D01*
X66422573Y-48937091D02*
X67196668Y-48937091D01*
X66809620Y-49324139D02*
X66809620Y-48550044D01*
X66376853Y-44776571D02*
X67150948Y-44776571D01*
X66763900Y-45163619D02*
X66763900Y-44389524D01*
X66226993Y-40923391D02*
X67001088Y-40923391D01*
X66614040Y-41310439D02*
X66614040Y-40536344D01*
D12*
X53737328Y-37229990D02*
X53737328Y-36721990D01*
X53858281Y-36721990D01*
X53930852Y-36746180D01*
X53979233Y-36794561D01*
X54003424Y-36842942D01*
X54027614Y-36939704D01*
X54027614Y-37012275D01*
X54003424Y-37109037D01*
X53979233Y-37157418D01*
X53930852Y-37205799D01*
X53858281Y-37229990D01*
X53737328Y-37229990D01*
X54172757Y-36721990D02*
X54463043Y-36721990D01*
X54317900Y-37229990D02*
X54317900Y-36721990D01*
X54922662Y-37229990D02*
X54753329Y-36988085D01*
X54632376Y-37229990D02*
X54632376Y-36721990D01*
X54825900Y-36721990D01*
X54874281Y-36746180D01*
X54898472Y-36770370D01*
X54922662Y-36818751D01*
X54922662Y-36891323D01*
X54898472Y-36939704D01*
X54874281Y-36963894D01*
X54825900Y-36988085D01*
X54632376Y-36988085D01*
X52615132Y-36721990D02*
X52905418Y-36721990D01*
X52760275Y-37229990D02*
X52760275Y-36721990D01*
X53026370Y-36721990D02*
X53365037Y-37229990D01*
X53365037Y-36721990D02*
X53026370Y-37229990D01*
X51655133Y-37229990D02*
X51485800Y-36988085D01*
X51364847Y-37229990D02*
X51364847Y-36721990D01*
X51558371Y-36721990D01*
X51606752Y-36746180D01*
X51630943Y-36770370D01*
X51655133Y-36818751D01*
X51655133Y-36891323D01*
X51630943Y-36939704D01*
X51606752Y-36963894D01*
X51558371Y-36988085D01*
X51364847Y-36988085D01*
X51824466Y-36721990D02*
X52163133Y-37229990D01*
X52163133Y-36721990D02*
X51824466Y-37229990D01*
X49885479Y-36721990D02*
X50054812Y-37229990D01*
X50224146Y-36721990D01*
X50393479Y-37229990D02*
X50393479Y-36721990D01*
X50635384Y-37229990D02*
X50635384Y-36721990D01*
X50925670Y-37229990D01*
X50925670Y-36721990D01*
X48205693Y-36746180D02*
X48157312Y-36721990D01*
X48084740Y-36721990D01*
X48012169Y-36746180D01*
X47963788Y-36794561D01*
X47939597Y-36842942D01*
X47915407Y-36939704D01*
X47915407Y-37012275D01*
X47939597Y-37109037D01*
X47963788Y-37157418D01*
X48012169Y-37205799D01*
X48084740Y-37229990D01*
X48133121Y-37229990D01*
X48205693Y-37205799D01*
X48229883Y-37181609D01*
X48229883Y-37012275D01*
X48133121Y-37012275D01*
X48447597Y-37229990D02*
X48447597Y-36721990D01*
X48737883Y-37229990D01*
X48737883Y-36721990D01*
X48979787Y-37229990D02*
X48979787Y-36721990D01*
X49100740Y-36721990D01*
X49173311Y-36746180D01*
X49221692Y-36794561D01*
X49245883Y-36842942D01*
X49270073Y-36939704D01*
X49270073Y-37012275D01*
X49245883Y-37109037D01*
X49221692Y-37157418D01*
X49173311Y-37205799D01*
X49100740Y-37229990D01*
X48979787Y-37229990D01*
D13*
X52105020Y-46860460D02*
X52105020Y-46352460D01*
X52105020Y-46352460D02*
X51343020Y-46352460D01*
X51343020Y-46352460D02*
X51343020Y-46860460D01*
X52105020Y-47368460D02*
X52105020Y-47876460D01*
X52105020Y-47876460D02*
X51343020Y-47876460D01*
X51343020Y-47876460D02*
X51343020Y-47368460D01*
X53721900Y-39554200D02*
X54229900Y-39554200D01*
X54229900Y-39554200D02*
X54229900Y-38792200D01*
X54229900Y-38792200D02*
X53721900Y-38792200D01*
X53213900Y-39554200D02*
X52705900Y-39554200D01*
X52705900Y-39554200D02*
X52705900Y-38792200D01*
X52705900Y-38792200D02*
X53213900Y-38792200D01*
X53118480Y-46860460D02*
X53118480Y-46352460D01*
X53118480Y-46352460D02*
X52356480Y-46352460D01*
X52356480Y-46352460D02*
X52356480Y-46860460D01*
X53118480Y-47368460D02*
X53118480Y-47876460D01*
X53118480Y-47876460D02*
X52356480Y-47876460D01*
X52356480Y-47876460D02*
X52356480Y-47368460D01*
X56370220Y-35554920D02*
X56370220Y-35046920D01*
X56370220Y-35046920D02*
X55608220Y-35046920D01*
X55608220Y-35046920D02*
X55608220Y-35554920D01*
X56370220Y-36062920D02*
X56370220Y-36570920D01*
X56370220Y-36570920D02*
X55608220Y-36570920D01*
X55608220Y-36570920D02*
X55608220Y-36062920D01*
X56776620Y-54881780D02*
X56268620Y-54881780D01*
X56268620Y-54881780D02*
X56268620Y-55643780D01*
X56268620Y-55643780D02*
X56776620Y-55643780D01*
X57284620Y-54881780D02*
X57792620Y-54881780D01*
X57792620Y-54881780D02*
X57792620Y-55643780D01*
X57792620Y-55643780D02*
X57284620Y-55643780D01*
X56758840Y-49832260D02*
X56250840Y-49832260D01*
X56250840Y-49832260D02*
X56250840Y-50594260D01*
X56250840Y-50594260D02*
X56758840Y-50594260D01*
X57266840Y-49832260D02*
X57774840Y-49832260D01*
X57774840Y-49832260D02*
X57774840Y-50594260D01*
X57774840Y-50594260D02*
X57266840Y-50594260D01*
X57646950Y-37133350D02*
X57646950Y-37641350D01*
X57646950Y-37641350D02*
X58408950Y-37641350D01*
X58408950Y-37641350D02*
X58408950Y-37133350D01*
X57646950Y-36625350D02*
X57646950Y-36117350D01*
X57646950Y-36117350D02*
X58408950Y-36117350D01*
X58408950Y-36117350D02*
X58408950Y-36625350D01*
X60567950Y-35863350D02*
X61075950Y-35863350D01*
X61075950Y-35863350D02*
X61075950Y-35101350D01*
X61075950Y-35101350D02*
X60567950Y-35101350D01*
X60059950Y-35863350D02*
X59551950Y-35863350D01*
X59551950Y-35863350D02*
X59551950Y-35101350D01*
X59551950Y-35101350D02*
X60059950Y-35101350D01*
X48342450Y-50711950D02*
X48850450Y-50711950D01*
X48850450Y-50711950D02*
X48850450Y-49949950D01*
X48850450Y-49949950D02*
X48342450Y-49949950D01*
X47834450Y-50711950D02*
X47326450Y-50711950D01*
X47326450Y-50711950D02*
X47326450Y-49949950D01*
X47326450Y-49949950D02*
X47834450Y-49949950D01*
X48393250Y-53201150D02*
X48901250Y-53201150D01*
X48901250Y-53201150D02*
X48901250Y-52439150D01*
X48901250Y-52439150D02*
X48393250Y-52439150D01*
X47885250Y-53201150D02*
X47377250Y-53201150D01*
X47377250Y-53201150D02*
X47377250Y-52439150D01*
X47377250Y-52439150D02*
X47885250Y-52439150D01*
X50568860Y-55737760D02*
X51076860Y-55737760D01*
X51076860Y-55737760D02*
X51076860Y-54975760D01*
X51076860Y-54975760D02*
X50568860Y-54975760D01*
X50060860Y-55737760D02*
X49552860Y-55737760D01*
X49552860Y-55737760D02*
X49552860Y-54975760D01*
X49552860Y-54975760D02*
X50060860Y-54975760D01*
X54157880Y-55747920D02*
X54665880Y-55747920D01*
X54665880Y-55747920D02*
X54665880Y-54985920D01*
X54665880Y-54985920D02*
X54157880Y-54985920D01*
X53649880Y-55747920D02*
X53141880Y-55747920D01*
X53141880Y-55747920D02*
X53141880Y-54985920D01*
X53141880Y-54985920D02*
X53649880Y-54985920D01*
X49310480Y-48271700D02*
X49300480Y-47511700D01*
X49814480Y-48272700D02*
X50322480Y-48272700D01*
X50322480Y-48272700D02*
X50322480Y-47510700D01*
X50322480Y-47510700D02*
X49814480Y-47510700D01*
X49306480Y-48272700D02*
X48798480Y-48272700D01*
X48798480Y-48272700D02*
X48798480Y-47510700D01*
X48798480Y-47510700D02*
X49306480Y-47510700D01*
X49300320Y-47479440D02*
X49800320Y-47479440D01*
X49800320Y-46429440D02*
X49300320Y-46429440D01*
X57789300Y-40610600D02*
X57789300Y-40110600D01*
X56739300Y-40110600D02*
X56739300Y-40610600D01*
X64766000Y-36863800D02*
X64266000Y-36863800D01*
X64266000Y-37913800D02*
X64766000Y-37913800D01*
X66137600Y-55555660D02*
X65637600Y-55555660D01*
X65637600Y-56605660D02*
X66137600Y-56605660D01*
X66483040Y-51285920D02*
X65983040Y-51285920D01*
X65983040Y-52335920D02*
X66483040Y-52335920D01*
X66063940Y-46894260D02*
X65563940Y-46894260D01*
X65563940Y-47944260D02*
X66063940Y-47944260D01*
X58933860Y-53539580D02*
X58933860Y-54039580D01*
X59983860Y-54039580D02*
X59983860Y-53539580D01*
X57281000Y-47250840D02*
X57781000Y-47250840D01*
X57781000Y-46200840D02*
X57281000Y-46200840D01*
X58483530Y-42110170D02*
X57983530Y-42110170D01*
X57983530Y-43160170D02*
X58483530Y-43160170D01*
X59894960Y-40610600D02*
X59894960Y-40110600D01*
X58844960Y-40110600D02*
X58844960Y-40610600D01*
X58843400Y-40610600D02*
X58843400Y-40110600D01*
X57793400Y-40110600D02*
X57793400Y-40610600D01*
X59529861Y-36436150D02*
G75*
G03X59529861Y-36436150I-72111J0D01*
G01*
X60777750Y-36256150D02*
X60777750Y-38416150D01*
X60777750Y-38416150D02*
X58977750Y-38416150D01*
X58977750Y-38416150D02*
X58977750Y-36256150D01*
X58977750Y-36256150D02*
X60757750Y-36256150D01*
X60757750Y-36256150D02*
X60777750Y-36256150D01*
X53046208Y-51233150D02*
G75*
G03X53046208Y-51233150I-76158J0D01*
G01*
X53330050Y-50863150D02*
X50690050Y-50863150D01*
X50690050Y-50863150D02*
X50690050Y-53463150D01*
X50690050Y-53463150D02*
X53320050Y-53463150D01*
X53320050Y-53463150D02*
X53320050Y-50863150D01*
X54547900Y-41063200D02*
G75*
G03X54547900Y-41063200I-50000J0D01*
G01*
X54717900Y-40823200D02*
X54717900Y-44813200D01*
X54717900Y-44813200D02*
X50697900Y-44823200D01*
X50697900Y-44823200D02*
X50697900Y-40823200D01*
X50697900Y-40823200D02*
X54707900Y-40823200D01*
X61490550Y-37898350D02*
X63090550Y-37898350D01*
X63090550Y-37898350D02*
X63090550Y-35128350D01*
X63090550Y-35128350D02*
X61470550Y-35128350D01*
X61470550Y-35128350D02*
X61470550Y-37898350D01*
X61470550Y-37898350D02*
X61530550Y-37898350D01*
X48456500Y-41045400D02*
X48446500Y-40285400D01*
X48960500Y-41046400D02*
X49468500Y-41046400D01*
X49468500Y-41046400D02*
X49468500Y-40284400D01*
X49468500Y-40284400D02*
X48960500Y-40284400D01*
X48452500Y-41046400D02*
X47944500Y-41046400D01*
X47944500Y-41046400D02*
X47944500Y-40284400D01*
X47944500Y-40284400D02*
X48452500Y-40284400D01*
X48774300Y-39340600D02*
X48774300Y-38840600D01*
X47724300Y-38840600D02*
X47724300Y-39340600D01*
X68834000Y-37515800D02*
X66294000Y-37515800D01*
X68834000Y-40055800D02*
X66294000Y-40055800D01*
X66294000Y-40055800D02*
X66294000Y-37515800D01*
X66294000Y-37515800D02*
X66294000Y-34975800D01*
X66294000Y-34975800D02*
X68834000Y-34975800D01*
X68834000Y-34975800D02*
X68834000Y-40055800D01*
X47134880Y-34991140D02*
X55134880Y-34991140D01*
X55134880Y-34991140D02*
X55134880Y-36491140D01*
X55134880Y-36491140D02*
X47134880Y-36491140D01*
X47134880Y-36491140D02*
X47134880Y-34991140D01*
D12*
X51924252Y-37867530D02*
X51924252Y-38278768D01*
X51948443Y-38327149D01*
X51972633Y-38351339D01*
X52021014Y-38375530D01*
X52117776Y-38375530D01*
X52166157Y-38351339D01*
X52190348Y-38327149D01*
X52214538Y-38278768D01*
X52214538Y-37867530D01*
X52722538Y-38375530D02*
X52432252Y-38375530D01*
X52577395Y-38375530D02*
X52577395Y-37867530D01*
X52529014Y-37940101D01*
X52480633Y-37988482D01*
X52432252Y-38012672D01*
X51494573Y-48621769D02*
X51470383Y-48645959D01*
X51397811Y-48670150D01*
X51349430Y-48670150D01*
X51276859Y-48645959D01*
X51228478Y-48597578D01*
X51204287Y-48549197D01*
X51180097Y-48452435D01*
X51180097Y-48379864D01*
X51204287Y-48283102D01*
X51228478Y-48234721D01*
X51276859Y-48186340D01*
X51349430Y-48162150D01*
X51397811Y-48162150D01*
X51470383Y-48186340D01*
X51494573Y-48210530D01*
X51978383Y-48670150D02*
X51688097Y-48670150D01*
X51833240Y-48670150D02*
X51833240Y-48162150D01*
X51784859Y-48234721D01*
X51736478Y-48283102D01*
X51688097Y-48307292D01*
X53443293Y-38449069D02*
X53419103Y-38473259D01*
X53346531Y-38497450D01*
X53298150Y-38497450D01*
X53225579Y-38473259D01*
X53177198Y-38424878D01*
X53153007Y-38376497D01*
X53128817Y-38279735D01*
X53128817Y-38207164D01*
X53153007Y-38110402D01*
X53177198Y-38062021D01*
X53225579Y-38013640D01*
X53298150Y-37989450D01*
X53346531Y-37989450D01*
X53419103Y-38013640D01*
X53443293Y-38037830D01*
X53636817Y-38037830D02*
X53661007Y-38013640D01*
X53709388Y-37989450D01*
X53830341Y-37989450D01*
X53878722Y-38013640D01*
X53902912Y-38037830D01*
X53927103Y-38086211D01*
X53927103Y-38134592D01*
X53902912Y-38207164D01*
X53612626Y-38497450D01*
X53927103Y-38497450D01*
X52726473Y-48588749D02*
X52702283Y-48612939D01*
X52629711Y-48637130D01*
X52581330Y-48637130D01*
X52508759Y-48612939D01*
X52460378Y-48564558D01*
X52436187Y-48516177D01*
X52411997Y-48419415D01*
X52411997Y-48346844D01*
X52436187Y-48250082D01*
X52460378Y-48201701D01*
X52508759Y-48153320D01*
X52581330Y-48129130D01*
X52629711Y-48129130D01*
X52702283Y-48153320D01*
X52726473Y-48177510D01*
X52895806Y-48129130D02*
X53210283Y-48129130D01*
X53040949Y-48322653D01*
X53113521Y-48322653D01*
X53161902Y-48346844D01*
X53186092Y-48371034D01*
X53210283Y-48419415D01*
X53210283Y-48540368D01*
X53186092Y-48588749D01*
X53161902Y-48612939D01*
X53113521Y-48637130D01*
X52968378Y-48637130D01*
X52919997Y-48612939D01*
X52895806Y-48588749D01*
X56872293Y-36038609D02*
X56848103Y-36062799D01*
X56775531Y-36086990D01*
X56727150Y-36086990D01*
X56654579Y-36062799D01*
X56606198Y-36014418D01*
X56582007Y-35966037D01*
X56557817Y-35869275D01*
X56557817Y-35796704D01*
X56582007Y-35699942D01*
X56606198Y-35651561D01*
X56654579Y-35603180D01*
X56727150Y-35578990D01*
X56775531Y-35578990D01*
X56848103Y-35603180D01*
X56872293Y-35627370D01*
X57307722Y-35748323D02*
X57307722Y-36086990D01*
X57186769Y-35554799D02*
X57065817Y-35917656D01*
X57380293Y-35917656D01*
X58459793Y-55507709D02*
X58435603Y-55531899D01*
X58363031Y-55556090D01*
X58314650Y-55556090D01*
X58242079Y-55531899D01*
X58193698Y-55483518D01*
X58169507Y-55435137D01*
X58145317Y-55338375D01*
X58145317Y-55265804D01*
X58169507Y-55169042D01*
X58193698Y-55120661D01*
X58242079Y-55072280D01*
X58314650Y-55048090D01*
X58363031Y-55048090D01*
X58435603Y-55072280D01*
X58459793Y-55096470D01*
X58919412Y-55048090D02*
X58677507Y-55048090D01*
X58653317Y-55289994D01*
X58677507Y-55265804D01*
X58725888Y-55241613D01*
X58846841Y-55241613D01*
X58895222Y-55265804D01*
X58919412Y-55289994D01*
X58943603Y-55338375D01*
X58943603Y-55459328D01*
X58919412Y-55507709D01*
X58895222Y-55531899D01*
X58846841Y-55556090D01*
X58725888Y-55556090D01*
X58677507Y-55531899D01*
X58653317Y-55507709D01*
X56882453Y-49556489D02*
X56858263Y-49580679D01*
X56785691Y-49604870D01*
X56737310Y-49604870D01*
X56664739Y-49580679D01*
X56616358Y-49532298D01*
X56592167Y-49483917D01*
X56567977Y-49387155D01*
X56567977Y-49314584D01*
X56592167Y-49217822D01*
X56616358Y-49169441D01*
X56664739Y-49121060D01*
X56737310Y-49096870D01*
X56785691Y-49096870D01*
X56858263Y-49121060D01*
X56882453Y-49145250D01*
X57317882Y-49096870D02*
X57221120Y-49096870D01*
X57172739Y-49121060D01*
X57148548Y-49145250D01*
X57100167Y-49217822D01*
X57075977Y-49314584D01*
X57075977Y-49508108D01*
X57100167Y-49556489D01*
X57124358Y-49580679D01*
X57172739Y-49604870D01*
X57269501Y-49604870D01*
X57317882Y-49580679D01*
X57342072Y-49556489D01*
X57366263Y-49508108D01*
X57366263Y-49387155D01*
X57342072Y-49338774D01*
X57317882Y-49314584D01*
X57269501Y-49290393D01*
X57172739Y-49290393D01*
X57124358Y-49314584D01*
X57100167Y-49338774D01*
X57075977Y-49387155D01*
X56928173Y-38022349D02*
X56903983Y-38046539D01*
X56831411Y-38070730D01*
X56783030Y-38070730D01*
X56710459Y-38046539D01*
X56662078Y-37998158D01*
X56637887Y-37949777D01*
X56613697Y-37853015D01*
X56613697Y-37780444D01*
X56637887Y-37683682D01*
X56662078Y-37635301D01*
X56710459Y-37586920D01*
X56783030Y-37562730D01*
X56831411Y-37562730D01*
X56903983Y-37586920D01*
X56928173Y-37611110D01*
X57097506Y-37562730D02*
X57436173Y-37562730D01*
X57218459Y-38070730D01*
X59195379Y-35517017D02*
X59219569Y-35541207D01*
X59243760Y-35613779D01*
X59243760Y-35662160D01*
X59219569Y-35734731D01*
X59171188Y-35783112D01*
X59122807Y-35807303D01*
X59026045Y-35831493D01*
X58953474Y-35831493D01*
X58856712Y-35807303D01*
X58808331Y-35783112D01*
X58759950Y-35734731D01*
X58735760Y-35662160D01*
X58735760Y-35613779D01*
X58759950Y-35541207D01*
X58784140Y-35517017D01*
X58953474Y-35226731D02*
X58929283Y-35275112D01*
X58905093Y-35299303D01*
X58856712Y-35323493D01*
X58832521Y-35323493D01*
X58784140Y-35299303D01*
X58759950Y-35275112D01*
X58735760Y-35226731D01*
X58735760Y-35129969D01*
X58759950Y-35081588D01*
X58784140Y-35057398D01*
X58832521Y-35033207D01*
X58856712Y-35033207D01*
X58905093Y-35057398D01*
X58929283Y-35081588D01*
X58953474Y-35129969D01*
X58953474Y-35226731D01*
X58977664Y-35275112D01*
X59001855Y-35299303D01*
X59050236Y-35323493D01*
X59146998Y-35323493D01*
X59195379Y-35299303D01*
X59219569Y-35275112D01*
X59243760Y-35226731D01*
X59243760Y-35129969D01*
X59219569Y-35081588D01*
X59195379Y-35057398D01*
X59146998Y-35033207D01*
X59050236Y-35033207D01*
X59001855Y-35057398D01*
X58977664Y-35081588D01*
X58953474Y-35129969D01*
X48029183Y-51375979D02*
X48004993Y-51400169D01*
X47932421Y-51424360D01*
X47884040Y-51424360D01*
X47811469Y-51400169D01*
X47763088Y-51351788D01*
X47738897Y-51303407D01*
X47714707Y-51206645D01*
X47714707Y-51134074D01*
X47738897Y-51037312D01*
X47763088Y-50988931D01*
X47811469Y-50940550D01*
X47884040Y-50916360D01*
X47932421Y-50916360D01*
X48004993Y-50940550D01*
X48029183Y-50964740D01*
X48271088Y-51424360D02*
X48367850Y-51424360D01*
X48416231Y-51400169D01*
X48440421Y-51375979D01*
X48488802Y-51303407D01*
X48512993Y-51206645D01*
X48512993Y-51013121D01*
X48488802Y-50964740D01*
X48464612Y-50940550D01*
X48416231Y-50916360D01*
X48319469Y-50916360D01*
X48271088Y-50940550D01*
X48246897Y-50964740D01*
X48222707Y-51013121D01*
X48222707Y-51134074D01*
X48246897Y-51182455D01*
X48271088Y-51206645D01*
X48319469Y-51230836D01*
X48416231Y-51230836D01*
X48464612Y-51206645D01*
X48488802Y-51182455D01*
X48512993Y-51134074D01*
X47761878Y-53839779D02*
X47737688Y-53863969D01*
X47665116Y-53888160D01*
X47616735Y-53888160D01*
X47544164Y-53863969D01*
X47495783Y-53815588D01*
X47471592Y-53767207D01*
X47447402Y-53670445D01*
X47447402Y-53597874D01*
X47471592Y-53501112D01*
X47495783Y-53452731D01*
X47544164Y-53404350D01*
X47616735Y-53380160D01*
X47665116Y-53380160D01*
X47737688Y-53404350D01*
X47761878Y-53428540D01*
X48245688Y-53888160D02*
X47955402Y-53888160D01*
X48100545Y-53888160D02*
X48100545Y-53380160D01*
X48052164Y-53452731D01*
X48003783Y-53501112D01*
X47955402Y-53525302D01*
X48560164Y-53380160D02*
X48608545Y-53380160D01*
X48656926Y-53404350D01*
X48681117Y-53428540D01*
X48705307Y-53476921D01*
X48729498Y-53573683D01*
X48729498Y-53694636D01*
X48705307Y-53791398D01*
X48681117Y-53839779D01*
X48656926Y-53863969D01*
X48608545Y-53888160D01*
X48560164Y-53888160D01*
X48511783Y-53863969D01*
X48487593Y-53839779D01*
X48463402Y-53791398D01*
X48439212Y-53694636D01*
X48439212Y-53573683D01*
X48463402Y-53476921D01*
X48487593Y-53428540D01*
X48511783Y-53404350D01*
X48560164Y-53380160D01*
X48376758Y-55547499D02*
X48352568Y-55571689D01*
X48279996Y-55595880D01*
X48231615Y-55595880D01*
X48159044Y-55571689D01*
X48110663Y-55523308D01*
X48086472Y-55474927D01*
X48062282Y-55378165D01*
X48062282Y-55305594D01*
X48086472Y-55208832D01*
X48110663Y-55160451D01*
X48159044Y-55112070D01*
X48231615Y-55087880D01*
X48279996Y-55087880D01*
X48352568Y-55112070D01*
X48376758Y-55136260D01*
X48860568Y-55595880D02*
X48570282Y-55595880D01*
X48715425Y-55595880D02*
X48715425Y-55087880D01*
X48667044Y-55160451D01*
X48618663Y-55208832D01*
X48570282Y-55233022D01*
X49344378Y-55595880D02*
X49054092Y-55595880D01*
X49199235Y-55595880D02*
X49199235Y-55087880D01*
X49150854Y-55160451D01*
X49102473Y-55208832D01*
X49054092Y-55233022D01*
X53577308Y-56411949D02*
X53553118Y-56436139D01*
X53480546Y-56460330D01*
X53432165Y-56460330D01*
X53359594Y-56436139D01*
X53311213Y-56387758D01*
X53287022Y-56339377D01*
X53262832Y-56242615D01*
X53262832Y-56170044D01*
X53287022Y-56073282D01*
X53311213Y-56024901D01*
X53359594Y-55976520D01*
X53432165Y-55952330D01*
X53480546Y-55952330D01*
X53553118Y-55976520D01*
X53577308Y-56000710D01*
X54061118Y-56460330D02*
X53770832Y-56460330D01*
X53915975Y-56460330D02*
X53915975Y-55952330D01*
X53867594Y-56024901D01*
X53819213Y-56073282D01*
X53770832Y-56097472D01*
X54254642Y-56000710D02*
X54278832Y-55976520D01*
X54327213Y-55952330D01*
X54448166Y-55952330D01*
X54496547Y-55976520D01*
X54520737Y-56000710D01*
X54544928Y-56049091D01*
X54544928Y-56097472D01*
X54520737Y-56170044D01*
X54230451Y-56460330D01*
X54544928Y-56460330D01*
X48803647Y-48993990D02*
X48803647Y-48485990D01*
X48924600Y-48485990D01*
X48997171Y-48510180D01*
X49045552Y-48558561D01*
X49069743Y-48606942D01*
X49093933Y-48703704D01*
X49093933Y-48776275D01*
X49069743Y-48873037D01*
X49045552Y-48921418D01*
X48997171Y-48969799D01*
X48924600Y-48993990D01*
X48803647Y-48993990D01*
X49577743Y-48993990D02*
X49287457Y-48993990D01*
X49432600Y-48993990D02*
X49432600Y-48485990D01*
X49384219Y-48558561D01*
X49335838Y-48606942D01*
X49287457Y-48631132D01*
X50815653Y-47134250D02*
X50646320Y-46892345D01*
X50525367Y-47134250D02*
X50525367Y-46626250D01*
X50718891Y-46626250D01*
X50767272Y-46650440D01*
X50791463Y-46674630D01*
X50815653Y-46723011D01*
X50815653Y-46795583D01*
X50791463Y-46843964D01*
X50767272Y-46868154D01*
X50718891Y-46892345D01*
X50525367Y-46892345D01*
X51299463Y-47134250D02*
X51009177Y-47134250D01*
X51154320Y-47134250D02*
X51154320Y-46626250D01*
X51105939Y-46698821D01*
X51057558Y-46747202D01*
X51009177Y-46771392D01*
X56323653Y-40463410D02*
X56154320Y-40221505D01*
X56033367Y-40463410D02*
X56033367Y-39955410D01*
X56226891Y-39955410D01*
X56275272Y-39979600D01*
X56299463Y-40003790D01*
X56323653Y-40052171D01*
X56323653Y-40124743D01*
X56299463Y-40173124D01*
X56275272Y-40197314D01*
X56226891Y-40221505D01*
X56033367Y-40221505D01*
X56517177Y-40003790D02*
X56541367Y-39979600D01*
X56589748Y-39955410D01*
X56710701Y-39955410D01*
X56759082Y-39979600D01*
X56783272Y-40003790D01*
X56807463Y-40052171D01*
X56807463Y-40100552D01*
X56783272Y-40173124D01*
X56492986Y-40463410D01*
X56807463Y-40463410D01*
X64372913Y-36523870D02*
X64203580Y-36281965D01*
X64082627Y-36523870D02*
X64082627Y-36015870D01*
X64276151Y-36015870D01*
X64324532Y-36040060D01*
X64348723Y-36064250D01*
X64372913Y-36112631D01*
X64372913Y-36185203D01*
X64348723Y-36233584D01*
X64324532Y-36257774D01*
X64276151Y-36281965D01*
X64082627Y-36281965D01*
X64542246Y-36015870D02*
X64880913Y-36015870D01*
X64663199Y-36523870D01*
X64403393Y-56376510D02*
X64234060Y-56134605D01*
X64113107Y-56376510D02*
X64113107Y-55868510D01*
X64306631Y-55868510D01*
X64355012Y-55892700D01*
X64379203Y-55916890D01*
X64403393Y-55965271D01*
X64403393Y-56037843D01*
X64379203Y-56086224D01*
X64355012Y-56110414D01*
X64306631Y-56134605D01*
X64113107Y-56134605D01*
X64693679Y-56086224D02*
X64645298Y-56062033D01*
X64621107Y-56037843D01*
X64596917Y-55989462D01*
X64596917Y-55965271D01*
X64621107Y-55916890D01*
X64645298Y-55892700D01*
X64693679Y-55868510D01*
X64790441Y-55868510D01*
X64838822Y-55892700D01*
X64863012Y-55916890D01*
X64887203Y-55965271D01*
X64887203Y-55989462D01*
X64863012Y-56037843D01*
X64838822Y-56062033D01*
X64790441Y-56086224D01*
X64693679Y-56086224D01*
X64645298Y-56110414D01*
X64621107Y-56134605D01*
X64596917Y-56182986D01*
X64596917Y-56279748D01*
X64621107Y-56328129D01*
X64645298Y-56352319D01*
X64693679Y-56376510D01*
X64790441Y-56376510D01*
X64838822Y-56352319D01*
X64863012Y-56328129D01*
X64887203Y-56279748D01*
X64887203Y-56182986D01*
X64863012Y-56134605D01*
X64838822Y-56110414D01*
X64790441Y-56086224D01*
X64781853Y-52020410D02*
X64612520Y-51778505D01*
X64491567Y-52020410D02*
X64491567Y-51512410D01*
X64685091Y-51512410D01*
X64733472Y-51536600D01*
X64757663Y-51560790D01*
X64781853Y-51609171D01*
X64781853Y-51681743D01*
X64757663Y-51730124D01*
X64733472Y-51754314D01*
X64685091Y-51778505D01*
X64491567Y-51778505D01*
X65023758Y-52020410D02*
X65120520Y-52020410D01*
X65168901Y-51996219D01*
X65193091Y-51972029D01*
X65241472Y-51899457D01*
X65265663Y-51802695D01*
X65265663Y-51609171D01*
X65241472Y-51560790D01*
X65217282Y-51536600D01*
X65168901Y-51512410D01*
X65072139Y-51512410D01*
X65023758Y-51536600D01*
X64999567Y-51560790D01*
X64975377Y-51609171D01*
X64975377Y-51730124D01*
X64999567Y-51778505D01*
X65023758Y-51802695D01*
X65072139Y-51826886D01*
X65168901Y-51826886D01*
X65217282Y-51802695D01*
X65241472Y-51778505D01*
X65265663Y-51730124D01*
X67245170Y-47776312D02*
X67003265Y-47945645D01*
X67245170Y-48066598D02*
X66737170Y-48066598D01*
X66737170Y-47873074D01*
X66761360Y-47824693D01*
X66785550Y-47800502D01*
X66833931Y-47776312D01*
X66906503Y-47776312D01*
X66954884Y-47800502D01*
X66979074Y-47824693D01*
X67003265Y-47873074D01*
X67003265Y-48066598D01*
X67245170Y-47292502D02*
X67245170Y-47582788D01*
X67245170Y-47437645D02*
X66737170Y-47437645D01*
X66809741Y-47486026D01*
X66858122Y-47534407D01*
X66882312Y-47582788D01*
X66737170Y-46978026D02*
X66737170Y-46929645D01*
X66761360Y-46881264D01*
X66785550Y-46857073D01*
X66833931Y-46832883D01*
X66930693Y-46808692D01*
X67051646Y-46808692D01*
X67148408Y-46832883D01*
X67196789Y-46857073D01*
X67220979Y-46881264D01*
X67245170Y-46929645D01*
X67245170Y-46978026D01*
X67220979Y-47026407D01*
X67196789Y-47050597D01*
X67148408Y-47074788D01*
X67051646Y-47098978D01*
X66930693Y-47098978D01*
X66833931Y-47074788D01*
X66785550Y-47050597D01*
X66761360Y-47026407D01*
X66737170Y-46978026D01*
X60648790Y-54116152D02*
X60406885Y-54285485D01*
X60648790Y-54406438D02*
X60140790Y-54406438D01*
X60140790Y-54212914D01*
X60164980Y-54164533D01*
X60189170Y-54140342D01*
X60237551Y-54116152D01*
X60310123Y-54116152D01*
X60358504Y-54140342D01*
X60382694Y-54164533D01*
X60406885Y-54212914D01*
X60406885Y-54406438D01*
X60648790Y-53632342D02*
X60648790Y-53922628D01*
X60648790Y-53777485D02*
X60140790Y-53777485D01*
X60213361Y-53825866D01*
X60261742Y-53874247D01*
X60285932Y-53922628D01*
X60648790Y-53148532D02*
X60648790Y-53438818D01*
X60648790Y-53293675D02*
X60140790Y-53293675D01*
X60213361Y-53342056D01*
X60261742Y-53390437D01*
X60285932Y-53438818D01*
X56978368Y-47969110D02*
X56809035Y-47727205D01*
X56688082Y-47969110D02*
X56688082Y-47461110D01*
X56881606Y-47461110D01*
X56929987Y-47485300D01*
X56954178Y-47509490D01*
X56978368Y-47557871D01*
X56978368Y-47630443D01*
X56954178Y-47678824D01*
X56929987Y-47703014D01*
X56881606Y-47727205D01*
X56688082Y-47727205D01*
X57462178Y-47969110D02*
X57171892Y-47969110D01*
X57317035Y-47969110D02*
X57317035Y-47461110D01*
X57268654Y-47533681D01*
X57220273Y-47582062D01*
X57171892Y-47606252D01*
X57655702Y-47509490D02*
X57679892Y-47485300D01*
X57728273Y-47461110D01*
X57849226Y-47461110D01*
X57897607Y-47485300D01*
X57921797Y-47509490D01*
X57945988Y-47557871D01*
X57945988Y-47606252D01*
X57921797Y-47678824D01*
X57631511Y-47969110D01*
X57945988Y-47969110D01*
X56333208Y-42497950D02*
X56163875Y-42256045D01*
X56042922Y-42497950D02*
X56042922Y-41989950D01*
X56236446Y-41989950D01*
X56284827Y-42014140D01*
X56309018Y-42038330D01*
X56333208Y-42086711D01*
X56333208Y-42159283D01*
X56309018Y-42207664D01*
X56284827Y-42231854D01*
X56236446Y-42256045D01*
X56042922Y-42256045D01*
X56817018Y-42497950D02*
X56526732Y-42497950D01*
X56671875Y-42497950D02*
X56671875Y-41989950D01*
X56623494Y-42062521D01*
X56575113Y-42110902D01*
X56526732Y-42135092D01*
X56986351Y-41989950D02*
X57300828Y-41989950D01*
X57131494Y-42183473D01*
X57204066Y-42183473D01*
X57252447Y-42207664D01*
X57276637Y-42231854D01*
X57300828Y-42280235D01*
X57300828Y-42401188D01*
X57276637Y-42449569D01*
X57252447Y-42473759D01*
X57204066Y-42497950D01*
X57058923Y-42497950D01*
X57010542Y-42473759D01*
X56986351Y-42449569D01*
X59058628Y-39493130D02*
X58889295Y-39251225D01*
X58768342Y-39493130D02*
X58768342Y-38985130D01*
X58961866Y-38985130D01*
X59010247Y-39009320D01*
X59034438Y-39033510D01*
X59058628Y-39081891D01*
X59058628Y-39154463D01*
X59034438Y-39202844D01*
X59010247Y-39227034D01*
X58961866Y-39251225D01*
X58768342Y-39251225D01*
X59542438Y-39493130D02*
X59252152Y-39493130D01*
X59397295Y-39493130D02*
X59397295Y-38985130D01*
X59348914Y-39057701D01*
X59300533Y-39106082D01*
X59252152Y-39130272D01*
X59977867Y-39154463D02*
X59977867Y-39493130D01*
X59856914Y-38960939D02*
X59735962Y-39323796D01*
X60050438Y-39323796D01*
X58050248Y-41837550D02*
X57880915Y-41595645D01*
X57759962Y-41837550D02*
X57759962Y-41329550D01*
X57953486Y-41329550D01*
X58001867Y-41353740D01*
X58026058Y-41377930D01*
X58050248Y-41426311D01*
X58050248Y-41498883D01*
X58026058Y-41547264D01*
X58001867Y-41571454D01*
X57953486Y-41595645D01*
X57759962Y-41595645D01*
X58534058Y-41837550D02*
X58243772Y-41837550D01*
X58388915Y-41837550D02*
X58388915Y-41329550D01*
X58340534Y-41402121D01*
X58292153Y-41450502D01*
X58243772Y-41474692D01*
X58993677Y-41329550D02*
X58751772Y-41329550D01*
X58727582Y-41571454D01*
X58751772Y-41547264D01*
X58800153Y-41523073D01*
X58921106Y-41523073D01*
X58969487Y-41547264D01*
X58993677Y-41571454D01*
X59017868Y-41619835D01*
X59017868Y-41740788D01*
X58993677Y-41789169D01*
X58969487Y-41813359D01*
X58921106Y-41837550D01*
X58800153Y-41837550D01*
X58751772Y-41813359D01*
X58727582Y-41789169D01*
X55881935Y-53021170D02*
X55881935Y-52513170D01*
X56414126Y-52972789D02*
X56389936Y-52996979D01*
X56317364Y-53021170D01*
X56268983Y-53021170D01*
X56196412Y-52996979D01*
X56148031Y-52948598D01*
X56123840Y-52900217D01*
X56099650Y-52803455D01*
X56099650Y-52730884D01*
X56123840Y-52634122D01*
X56148031Y-52585741D01*
X56196412Y-52537360D01*
X56268983Y-52513170D01*
X56317364Y-52513170D01*
X56389936Y-52537360D01*
X56414126Y-52561550D01*
X56607650Y-52561550D02*
X56631840Y-52537360D01*
X56680221Y-52513170D01*
X56801174Y-52513170D01*
X56849555Y-52537360D01*
X56873745Y-52561550D01*
X56897936Y-52609931D01*
X56897936Y-52658312D01*
X56873745Y-52730884D01*
X56583459Y-53021170D01*
X56897936Y-53021170D01*
D14*
X52230126Y-41812470D02*
X52230126Y-41312470D01*
X52753935Y-41764851D02*
X52730125Y-41788661D01*
X52658697Y-41812470D01*
X52611078Y-41812470D01*
X52539649Y-41788661D01*
X52492030Y-41741042D01*
X52468221Y-41693423D01*
X52444411Y-41598185D01*
X52444411Y-41526756D01*
X52468221Y-41431518D01*
X52492030Y-41383899D01*
X52539649Y-41336280D01*
X52611078Y-41312470D01*
X52658697Y-41312470D01*
X52730125Y-41336280D01*
X52753935Y-41360090D01*
X53230125Y-41812470D02*
X52944411Y-41812470D01*
X53087268Y-41812470D02*
X53087268Y-41312470D01*
X53039649Y-41383899D01*
X52992030Y-41431518D01*
X52944411Y-41455328D01*
X63868430Y-36999313D02*
X63868430Y-37285027D01*
X63868430Y-37142170D02*
X63368430Y-37142170D01*
X63439859Y-37189789D01*
X63487478Y-37237408D01*
X63511288Y-37285027D01*
X63535097Y-36570742D02*
X63868430Y-36570742D01*
X63535097Y-36785027D02*
X63797002Y-36785027D01*
X63844621Y-36761218D01*
X63868430Y-36713599D01*
X63868430Y-36642170D01*
X63844621Y-36594551D01*
X63820811Y-36570742D01*
X63868430Y-36332646D02*
X63368430Y-36332646D01*
X63606526Y-36332646D02*
X63606526Y-36046932D01*
X63868430Y-36046932D02*
X63368430Y-36046932D01*
X63868430Y-35546932D02*
X63868430Y-35832646D01*
X63868430Y-35689789D02*
X63368430Y-35689789D01*
X63439859Y-35737408D01*
X63487478Y-35785027D01*
X63511288Y-35832646D01*
D12*
X49652347Y-40971410D02*
X49652347Y-40463410D01*
X49773300Y-40463410D01*
X49845871Y-40487600D01*
X49894252Y-40535981D01*
X49918443Y-40584362D01*
X49942633Y-40681124D01*
X49942633Y-40753695D01*
X49918443Y-40850457D01*
X49894252Y-40898838D01*
X49845871Y-40947219D01*
X49773300Y-40971410D01*
X49652347Y-40971410D01*
X50402252Y-40463410D02*
X50160347Y-40463410D01*
X50136157Y-40705314D01*
X50160347Y-40681124D01*
X50208728Y-40656933D01*
X50329681Y-40656933D01*
X50378062Y-40681124D01*
X50402252Y-40705314D01*
X50426443Y-40753695D01*
X50426443Y-40874648D01*
X50402252Y-40923029D01*
X50378062Y-40947219D01*
X50329681Y-40971410D01*
X50208728Y-40971410D01*
X50160347Y-40947219D01*
X50136157Y-40923029D01*
X47550010Y-39165712D02*
X47308105Y-39335045D01*
X47550010Y-39455998D02*
X47042010Y-39455998D01*
X47042010Y-39262474D01*
X47066200Y-39214093D01*
X47090390Y-39189902D01*
X47138771Y-39165712D01*
X47211343Y-39165712D01*
X47259724Y-39189902D01*
X47283914Y-39214093D01*
X47308105Y-39262474D01*
X47308105Y-39455998D01*
X47550010Y-38681902D02*
X47550010Y-38972188D01*
X47550010Y-38827045D02*
X47042010Y-38827045D01*
X47114581Y-38875426D01*
X47162962Y-38923807D01*
X47187152Y-38972188D01*
X47042010Y-38512569D02*
X47042010Y-38173902D01*
X47550010Y-38391616D01*
D10*
X54308706Y-48867347D02*
X54499183Y-48867347D01*
X54270611Y-48981632D02*
X54403945Y-48581632D01*
X54537278Y-48981632D01*
X54746802Y-48581632D02*
X54784897Y-48581632D01*
X54822992Y-48600680D01*
X54842040Y-48619728D01*
X54861087Y-48657823D01*
X54880135Y-48734013D01*
X54880135Y-48829251D01*
X54861087Y-48905442D01*
X54842040Y-48943537D01*
X54822992Y-48962585D01*
X54784897Y-48981632D01*
X54746802Y-48981632D01*
X54708706Y-48962585D01*
X54689659Y-48943537D01*
X54670611Y-48905442D01*
X54651563Y-48829251D01*
X54651563Y-48734013D01*
X54670611Y-48657823D01*
X54689659Y-48619728D01*
X54708706Y-48600680D01*
X54746802Y-48581632D01*
X54105506Y-45662347D02*
X54295983Y-45662347D01*
X54067411Y-45776632D02*
X54200745Y-45376632D01*
X54334078Y-45776632D01*
X54676935Y-45776632D02*
X54448363Y-45776632D01*
X54562649Y-45776632D02*
X54562649Y-45376632D01*
X54524554Y-45433775D01*
X54486459Y-45471870D01*
X54448363Y-45490918D01*
X55507926Y-48357147D02*
X55698403Y-48357147D01*
X55469831Y-48471432D02*
X55603165Y-48071432D01*
X55736498Y-48471432D01*
X55850783Y-48109528D02*
X55869831Y-48090480D01*
X55907926Y-48071432D01*
X56003164Y-48071432D01*
X56041260Y-48090480D01*
X56060307Y-48109528D01*
X56079355Y-48147623D01*
X56079355Y-48185718D01*
X56060307Y-48242861D01*
X55831736Y-48471432D01*
X56079355Y-48471432D01*
X55241226Y-44978947D02*
X55431703Y-44978947D01*
X55203131Y-45093232D02*
X55336465Y-44693232D01*
X55469798Y-45093232D01*
X55565036Y-44693232D02*
X55812655Y-44693232D01*
X55679322Y-44845613D01*
X55736464Y-44845613D01*
X55774560Y-44864661D01*
X55793607Y-44883709D01*
X55812655Y-44921804D01*
X55812655Y-45017042D01*
X55793607Y-45055137D01*
X55774560Y-45074185D01*
X55736464Y-45093232D01*
X55622179Y-45093232D01*
X55584083Y-45074185D01*
X55565036Y-45055137D01*
X48437872Y-44997291D02*
X48037872Y-44997291D01*
X48323587Y-44863958D01*
X48037872Y-44730624D01*
X48437872Y-44730624D01*
X48437872Y-44540148D02*
X48037872Y-44540148D01*
X48418825Y-44368720D02*
X48437872Y-44311577D01*
X48437872Y-44216339D01*
X48418825Y-44178243D01*
X48399777Y-44159196D01*
X48361682Y-44140148D01*
X48323587Y-44140148D01*
X48285491Y-44159196D01*
X48266444Y-44178243D01*
X48247396Y-44216339D01*
X48228349Y-44292529D01*
X48209301Y-44330624D01*
X48190253Y-44349672D01*
X48152158Y-44368720D01*
X48114063Y-44368720D01*
X48075968Y-44349672D01*
X48056920Y-44330624D01*
X48037872Y-44292529D01*
X48037872Y-44197291D01*
X48056920Y-44140148D01*
X48037872Y-43892529D02*
X48037872Y-43816339D01*
X48056920Y-43778244D01*
X48095015Y-43740148D01*
X48171206Y-43721101D01*
X48304539Y-43721101D01*
X48380730Y-43740148D01*
X48418825Y-43778244D01*
X48437872Y-43816339D01*
X48437872Y-43892529D01*
X48418825Y-43930625D01*
X48380730Y-43968720D01*
X48304539Y-43987768D01*
X48171206Y-43987768D01*
X48095015Y-43968720D01*
X48056920Y-43930625D01*
X48037872Y-43892529D01*
X50106652Y-43773011D02*
X49706652Y-43773011D01*
X49992367Y-43639678D01*
X49706652Y-43506344D01*
X50106652Y-43506344D01*
X49706652Y-43239677D02*
X49706652Y-43163487D01*
X49725700Y-43125392D01*
X49763795Y-43087296D01*
X49839986Y-43068249D01*
X49973319Y-43068249D01*
X50049510Y-43087296D01*
X50087605Y-43125392D01*
X50106652Y-43163487D01*
X50106652Y-43239677D01*
X50087605Y-43277773D01*
X50049510Y-43315868D01*
X49973319Y-43334916D01*
X49839986Y-43334916D01*
X49763795Y-43315868D01*
X49725700Y-43277773D01*
X49706652Y-43239677D01*
X50087605Y-42915868D02*
X50106652Y-42858725D01*
X50106652Y-42763487D01*
X50087605Y-42725391D01*
X50068557Y-42706344D01*
X50030462Y-42687296D01*
X49992367Y-42687296D01*
X49954271Y-42706344D01*
X49935224Y-42725391D01*
X49916176Y-42763487D01*
X49897129Y-42839677D01*
X49878081Y-42877772D01*
X49859033Y-42896820D01*
X49820938Y-42915868D01*
X49782843Y-42915868D01*
X49744748Y-42896820D01*
X49725700Y-42877772D01*
X49706652Y-42839677D01*
X49706652Y-42744439D01*
X49725700Y-42687296D01*
X50106652Y-42515868D02*
X49706652Y-42515868D01*
X48523794Y-46380365D02*
X48580937Y-46399412D01*
X48676175Y-46399412D01*
X48714271Y-46380365D01*
X48733318Y-46361317D01*
X48752366Y-46323222D01*
X48752366Y-46285127D01*
X48733318Y-46247031D01*
X48714271Y-46227984D01*
X48676175Y-46208936D01*
X48599985Y-46189889D01*
X48561890Y-46170841D01*
X48542842Y-46151793D01*
X48523794Y-46113698D01*
X48523794Y-46075603D01*
X48542842Y-46037508D01*
X48561890Y-46018460D01*
X48599985Y-45999412D01*
X48695223Y-45999412D01*
X48752366Y-46018460D01*
X49152366Y-46361317D02*
X49133318Y-46380365D01*
X49076175Y-46399412D01*
X49038080Y-46399412D01*
X48980937Y-46380365D01*
X48942842Y-46342270D01*
X48923794Y-46304174D01*
X48904746Y-46227984D01*
X48904746Y-46170841D01*
X48923794Y-46094650D01*
X48942842Y-46056555D01*
X48980937Y-46018460D01*
X49038080Y-45999412D01*
X49076175Y-45999412D01*
X49133318Y-46018460D01*
X49152366Y-46037508D01*
X49323794Y-46399412D02*
X49323794Y-45999412D01*
X49552366Y-46399412D02*
X49380937Y-46170841D01*
X49552366Y-45999412D02*
X49323794Y-46227984D01*
X57774233Y-38433352D02*
X57640899Y-38242876D01*
X57545661Y-38433352D02*
X57545661Y-38033352D01*
X57698042Y-38033352D01*
X57736137Y-38052400D01*
X57755185Y-38071448D01*
X57774233Y-38109543D01*
X57774233Y-38166686D01*
X57755185Y-38204781D01*
X57736137Y-38223829D01*
X57698042Y-38242876D01*
X57545661Y-38242876D01*
X57926613Y-38414305D02*
X57983756Y-38433352D01*
X58078994Y-38433352D01*
X58117090Y-38414305D01*
X58136137Y-38395257D01*
X58155185Y-38357162D01*
X58155185Y-38319067D01*
X58136137Y-38280971D01*
X58117090Y-38261924D01*
X58078994Y-38242876D01*
X58002804Y-38223829D01*
X57964709Y-38204781D01*
X57945661Y-38185733D01*
X57926613Y-38147638D01*
X57926613Y-38109543D01*
X57945661Y-38071448D01*
X57964709Y-38052400D01*
X58002804Y-38033352D01*
X58098042Y-38033352D01*
X58155185Y-38052400D01*
X58269470Y-38033352D02*
X58498042Y-38033352D01*
X58383756Y-38433352D02*
X58383756Y-38033352D01*
X59554806Y-46113045D02*
X59611949Y-46132092D01*
X59707187Y-46132092D01*
X59745283Y-46113045D01*
X59764330Y-46093997D01*
X59783378Y-46055902D01*
X59783378Y-46017807D01*
X59764330Y-45979711D01*
X59745283Y-45960664D01*
X59707187Y-45941616D01*
X59630997Y-45922569D01*
X59592902Y-45903521D01*
X59573854Y-45884473D01*
X59554806Y-45846378D01*
X59554806Y-45808283D01*
X59573854Y-45770188D01*
X59592902Y-45751140D01*
X59630997Y-45732092D01*
X59726235Y-45732092D01*
X59783378Y-45751140D01*
X59954806Y-46132092D02*
X59954806Y-45732092D01*
X60050044Y-45732092D01*
X60107187Y-45751140D01*
X60145282Y-45789235D01*
X60164330Y-45827330D01*
X60183378Y-45903521D01*
X60183378Y-45960664D01*
X60164330Y-46036854D01*
X60145282Y-46074950D01*
X60107187Y-46113045D01*
X60050044Y-46132092D01*
X59954806Y-46132092D01*
X60335758Y-46017807D02*
X60526235Y-46017807D01*
X60297663Y-46132092D02*
X60430997Y-45732092D01*
X60564330Y-46132092D01*
X60508159Y-43899435D02*
X60565302Y-43918482D01*
X60660540Y-43918482D01*
X60698636Y-43899435D01*
X60717683Y-43880387D01*
X60736731Y-43842292D01*
X60736731Y-43804197D01*
X60717683Y-43766101D01*
X60698636Y-43747054D01*
X60660540Y-43728006D01*
X60584350Y-43708959D01*
X60546255Y-43689911D01*
X60527207Y-43670863D01*
X60508159Y-43632768D01*
X60508159Y-43594673D01*
X60527207Y-43556578D01*
X60546255Y-43537530D01*
X60584350Y-43518482D01*
X60679588Y-43518482D01*
X60736731Y-43537530D01*
X61136731Y-43880387D02*
X61117683Y-43899435D01*
X61060540Y-43918482D01*
X61022445Y-43918482D01*
X60965302Y-43899435D01*
X60927207Y-43861340D01*
X60908159Y-43823244D01*
X60889111Y-43747054D01*
X60889111Y-43689911D01*
X60908159Y-43613720D01*
X60927207Y-43575625D01*
X60965302Y-43537530D01*
X61022445Y-43518482D01*
X61060540Y-43518482D01*
X61117683Y-43537530D01*
X61136731Y-43556578D01*
X61498635Y-43918482D02*
X61308159Y-43918482D01*
X61308159Y-43518482D01*
X48395965Y-42260482D02*
X48415012Y-42203339D01*
X48415012Y-42108101D01*
X48395965Y-42070005D01*
X48376917Y-42050958D01*
X48338822Y-42031910D01*
X48300727Y-42031910D01*
X48262631Y-42050958D01*
X48243584Y-42070005D01*
X48224536Y-42108101D01*
X48205489Y-42184291D01*
X48186441Y-42222386D01*
X48167393Y-42241434D01*
X48129298Y-42260482D01*
X48091203Y-42260482D01*
X48053108Y-42241434D01*
X48034060Y-42222386D01*
X48015012Y-42184291D01*
X48015012Y-42089053D01*
X48034060Y-42031910D01*
X48395965Y-41879530D02*
X48415012Y-41822387D01*
X48415012Y-41727149D01*
X48395965Y-41689053D01*
X48376917Y-41670006D01*
X48338822Y-41650958D01*
X48300727Y-41650958D01*
X48262631Y-41670006D01*
X48243584Y-41689053D01*
X48224536Y-41727149D01*
X48205489Y-41803339D01*
X48186441Y-41841434D01*
X48167393Y-41860482D01*
X48129298Y-41879530D01*
X48091203Y-41879530D01*
X48053108Y-41860482D01*
X48034060Y-41841434D01*
X48015012Y-41803339D01*
X48015012Y-41708101D01*
X48034060Y-41650958D01*
X67216632Y-54527409D02*
X66816632Y-54527409D01*
X67102347Y-54394076D01*
X66816632Y-54260742D01*
X67216632Y-54260742D01*
X66816632Y-54108361D02*
X66816632Y-53860742D01*
X66969013Y-53994075D01*
X66969013Y-53936933D01*
X66988061Y-53898837D01*
X67007109Y-53879790D01*
X67045204Y-53860742D01*
X67140442Y-53860742D01*
X67178537Y-53879790D01*
X67197585Y-53898837D01*
X67216632Y-53936933D01*
X67216632Y-54051218D01*
X67197585Y-54089314D01*
X67178537Y-54108361D01*
X67137892Y-42355729D02*
X66737892Y-42355729D01*
X67023607Y-42222396D01*
X66737892Y-42089062D01*
X67137892Y-42089062D01*
X67137892Y-41689062D02*
X67137892Y-41917634D01*
X67137892Y-41803348D02*
X66737892Y-41803348D01*
X66795035Y-41841443D01*
X66833130Y-41879538D01*
X66852178Y-41917634D01*
X67221712Y-46531489D02*
X66821712Y-46531489D01*
X67107427Y-46398156D01*
X66821712Y-46264822D01*
X67221712Y-46264822D01*
X66955046Y-45902917D02*
X67221712Y-45902917D01*
X66802665Y-45998155D02*
X67088379Y-46093394D01*
X67088379Y-45845774D01*
X67120112Y-50305929D02*
X66720112Y-50305929D01*
X67005827Y-50172596D01*
X66720112Y-50039262D01*
X67120112Y-50039262D01*
X66758208Y-49867834D02*
X66739160Y-49848786D01*
X66720112Y-49810691D01*
X66720112Y-49715453D01*
X66739160Y-49677357D01*
X66758208Y-49658310D01*
X66796303Y-49639262D01*
X66834398Y-49639262D01*
X66891541Y-49658310D01*
X67120112Y-49886881D01*
X67120112Y-49639262D01*
X55214583Y-51276912D02*
X55462202Y-51276912D01*
X55328869Y-51429293D01*
X55386011Y-51429293D01*
X55424107Y-51448341D01*
X55443154Y-51467389D01*
X55462202Y-51505484D01*
X55462202Y-51600722D01*
X55443154Y-51638817D01*
X55424107Y-51657865D01*
X55386011Y-51676912D01*
X55271726Y-51676912D01*
X55233630Y-51657865D01*
X55214583Y-51638817D01*
X55576487Y-51276912D02*
X55709821Y-51676912D01*
X55843154Y-51276912D01*
X55938392Y-51276912D02*
X56186011Y-51276912D01*
X56052678Y-51429293D01*
X56109820Y-51429293D01*
X56147916Y-51448341D01*
X56166963Y-51467389D01*
X56186011Y-51505484D01*
X56186011Y-51600722D01*
X56166963Y-51638817D01*
X56147916Y-51657865D01*
X56109820Y-51676912D01*
X55995535Y-51676912D01*
X55957439Y-51657865D01*
X55938392Y-51638817D01*
X58267638Y-48311460D02*
X58229543Y-48292412D01*
X58172400Y-48292412D01*
X58115257Y-48311460D01*
X58077162Y-48349555D01*
X58058114Y-48387650D01*
X58039066Y-48463841D01*
X58039066Y-48520984D01*
X58058114Y-48597174D01*
X58077162Y-48635270D01*
X58115257Y-48673365D01*
X58172400Y-48692412D01*
X58210495Y-48692412D01*
X58267638Y-48673365D01*
X58286686Y-48654317D01*
X58286686Y-48520984D01*
X58210495Y-48520984D01*
X58458114Y-48692412D02*
X58458114Y-48292412D01*
X58686686Y-48692412D01*
X58686686Y-48292412D01*
X58877162Y-48692412D02*
X58877162Y-48292412D01*
X58972400Y-48292412D01*
X59029543Y-48311460D01*
X59067638Y-48349555D01*
X59086686Y-48387650D01*
X59105734Y-48463841D01*
X59105734Y-48520984D01*
X59086686Y-48597174D01*
X59067638Y-48635270D01*
X59029543Y-48673365D01*
X58972400Y-48692412D01*
X58877162Y-48692412D01*
X47317670Y-45709232D02*
X47127194Y-45709232D01*
X47108146Y-45899709D01*
X47127194Y-45880661D01*
X47165289Y-45861613D01*
X47260527Y-45861613D01*
X47298623Y-45880661D01*
X47317670Y-45899709D01*
X47336718Y-45937804D01*
X47336718Y-46033042D01*
X47317670Y-46071137D01*
X47298623Y-46090185D01*
X47260527Y-46109232D01*
X47165289Y-46109232D01*
X47127194Y-46090185D01*
X47108146Y-46071137D01*
X47451003Y-45709232D02*
X47584337Y-46109232D01*
X47717670Y-45709232D01*
D12*
X57348642Y-44526140D02*
X57348642Y-44937378D01*
X57372833Y-44985759D01*
X57397023Y-45009949D01*
X57445404Y-45034140D01*
X57542166Y-45034140D01*
X57590547Y-45009949D01*
X57614738Y-44985759D01*
X57638928Y-44937378D01*
X57638928Y-44526140D01*
X57856642Y-44574520D02*
X57880832Y-44550330D01*
X57929213Y-44526140D01*
X58050166Y-44526140D01*
X58098547Y-44550330D01*
X58122737Y-44574520D01*
X58146928Y-44622901D01*
X58146928Y-44671282D01*
X58122737Y-44743854D01*
X57832451Y-45034140D01*
X58146928Y-45034140D01*
M02*
