M48
;DRILL file {kicad (2014-12-04 BZR 5312)-product} date 1/18/2015 1:19:11 PM
;FORMAT={-:-/ absolute / inch / decimal}
FMAT,2
INCH,TZ
T1C0.012
T2C0.013
T3C0.018
T4C0.020
T5C0.020
T6C0.028
T7C0.040
%
G90
G05
M72
T1
X2.4596Y-1.5639
X2.4596Y-1.623
X2.461Y-1.9146
X2.461Y-1.9737
X2.4617Y-2.098
X2.4617Y-2.1571
X2.4785Y-1.5934
X2.4799Y-1.9441
X2.4806Y-2.1275
X2.499Y-1.5639
X2.499Y-1.623
X2.5002Y-1.7375
X2.5002Y-1.7966
X2.5004Y-1.9146
X2.5004Y-1.9737
X2.5011Y-2.098
X2.5011Y-2.1571
X2.5191Y-1.767
X2.5396Y-1.7375
X2.5396Y-1.7966
T2
X1.8767Y-2.1426
X1.8892Y-2.0405
X1.8982Y-1.9083
X1.9128Y-2.1422
X1.9492Y-1.9655
X1.9642Y-2.14
X1.99Y-1.484
X2.0466Y-1.657
X2.0466Y-1.715
X2.0617Y-2.178
X2.0755Y-1.686
X2.1046Y-1.715
X2.1056Y-1.656
X2.111Y-1.9263
X2.1568Y-1.5781
X2.1761Y-1.5357
X2.1827Y-1.5994
X2.1922Y-1.9773
X2.1932Y-1.462
X2.2133Y-1.5362
X2.2257Y-1.6989
X2.2305Y-1.4613
X2.247Y-1.4316
X2.27Y-1.8767
X2.2849Y-1.4004
X2.3123Y-1.8648
X2.3225Y-1.8318
X2.3389Y-2.0662
X2.3684Y-1.6538
X2.3772Y-1.9486
X2.379Y-1.5487
X2.3793Y-1.5885
X2.3827Y-2.1821
X2.3859Y-1.8792
X2.3898Y-2.0326
X2.4098Y-1.7768
X2.4121Y-1.8285
X2.416Y-2.0126
X2.4252Y-1.8714
X2.4417Y-1.6984
X2.4418Y-2.0359
X2.5197Y-1.5136
X2.5277Y-2.0359
X2.5413Y-1.8704
X2.5562Y-1.524
X2.5712Y-1.6802
X2.5924Y-1.6189
X2.5978Y-1.9694
X2.6014Y-2.1549
X2.6194Y-1.8379
X2.6316Y-1.7869
X2.6477Y-2.2085
X2.6619Y-2.052
T3
X1.8825Y-1.8402
X1.9332Y-1.7879
X1.9338Y-1.6505
X1.9338Y-1.6978
X1.9338Y-1.743
X2.1464Y-1.8341
X2.1464Y-1.8853
X2.1834Y-2.0595
X2.1976Y-1.8065
X2.1976Y-1.8617
X2.2545Y-1.5351
X2.3061Y-1.9424
X2.3497Y-1.7255
X2.3549Y-1.7708
T4
X2.6733Y-1.6283
X2.6733Y-1.6874
X2.6752Y-1.79
X2.6752Y-1.8491
X2.6752Y-1.9396
X2.6752Y-1.9987
X2.6774Y-2.1046
X2.6774Y-2.1637
T5
X2.263Y-2.0872
X2.3466Y-2.1715
X2.5852Y-2.0934
X2.5906Y-1.5498
X2.6021Y-1.9097
X2.6285Y-1.7162
T6
X1.8872Y-1.4091
X1.9372Y-1.4091
X1.9872Y-1.4091
X2.0372Y-1.4091
X2.0872Y-1.4091
X2.1372Y-1.4091
T7
X2.66Y-1.427
X2.66Y-1.527
T0
M30
