G04 #@! TF.FileFunction,Copper,L1,Top,Signal*
%FSLAX46Y46*%
G04 Gerber Fmt 4.6, Leading zero omitted, Abs format (unit mm)*
G04 Created by KiCad (PCBNEW (2014-12-04 BZR 5312)-product) date 1/18/2015 1:19:07 PM*
%MOMM*%
G01*
G04 APERTURE LIST*
%ADD10C,0.100000*%
%ADD11R,0.280000X0.800000*%
%ADD12R,0.850000X0.280000*%
%ADD13R,1.650000X2.400000*%
%ADD14C,0.400000*%
%ADD15R,0.700000X1.200000*%
%ADD16R,0.550000X1.200000*%
%ADD17R,0.599440X0.398780*%
%ADD18R,0.398780X0.599440*%
%ADD19R,0.400000X0.600000*%
%ADD20R,0.600000X0.400000*%
%ADD21R,0.550000X1.000000*%
%ADD22R,0.500000X0.350000*%
%ADD23R,0.800000X1.450000*%
%ADD24R,0.850000X0.350000*%
%ADD25R,0.350000X0.800000*%
%ADD26O,0.248920X0.800000*%
%ADD27O,0.800000X0.248920*%
%ADD28R,2.250000X2.250000*%
%ADD29R,0.900000X0.500000*%
%ADD30C,0.883200*%
%ADD31C,1.000000*%
%ADD32R,2.032000X2.032000*%
%ADD33O,2.032000X2.032000*%
%ADD34C,1.117600*%
%ADD35R,0.420000X0.600000*%
%ADD36C,0.685800*%
%ADD37C,0.863600*%
%ADD38C,0.304800*%
%ADD39C,0.355600*%
%ADD40C,0.254000*%
%ADD41C,0.203200*%
%ADD42C,0.406400*%
%ADD43C,0.152400*%
%ADD44C,0.508000*%
G04 APERTURE END LIST*
D10*
D11*
X63258060Y-55609100D03*
X62758060Y-55609100D03*
D12*
X64488060Y-55029100D03*
X64488060Y-54529100D03*
X64488060Y-54029100D03*
X64488060Y-53529100D03*
X64488060Y-53029100D03*
X61538060Y-53029100D03*
X61538060Y-53529100D03*
X61538060Y-54029100D03*
X61538060Y-54529100D03*
X61538060Y-55029100D03*
D13*
X63008060Y-54039100D03*
D11*
X62758060Y-52479100D03*
X63258060Y-52479100D03*
D14*
X62528060Y-54789100D03*
X62528060Y-53289100D03*
X63528060Y-54789100D03*
X63528060Y-53289100D03*
X63008060Y-54039100D03*
D15*
X51525900Y-39065200D03*
D16*
X50575900Y-39065200D03*
D15*
X49625900Y-39055200D03*
D17*
X51724020Y-46664880D03*
X51724020Y-47564040D03*
D18*
X53917480Y-39173200D03*
X53018320Y-39173200D03*
D17*
X52737480Y-46664880D03*
X52737480Y-47564040D03*
X55989220Y-35359340D03*
X55989220Y-36258500D03*
D18*
X56581040Y-55262780D03*
X57480200Y-55262780D03*
X56563260Y-50213260D03*
X57462420Y-50213260D03*
D17*
X58027950Y-37328930D03*
X58027950Y-36429770D03*
D18*
X60763530Y-35482350D03*
X59864370Y-35482350D03*
X48538030Y-50330950D03*
X47638870Y-50330950D03*
X48588830Y-52820150D03*
X47689670Y-52820150D03*
X50764440Y-55356760D03*
X49865280Y-55356760D03*
X54353460Y-55366920D03*
X53454300Y-55366920D03*
X50010060Y-47891700D03*
X49110900Y-47891700D03*
D19*
X50000320Y-46954440D03*
X49100320Y-46954440D03*
D20*
X57264300Y-39910600D03*
X57264300Y-40810600D03*
D19*
X64066000Y-37388800D03*
X64966000Y-37388800D03*
X65437600Y-56080660D03*
X66337600Y-56080660D03*
X65783040Y-51810920D03*
X66683040Y-51810920D03*
X65363940Y-47419260D03*
X66263940Y-47419260D03*
D20*
X59458860Y-54239580D03*
X59458860Y-53339580D03*
D19*
X57981000Y-46725840D03*
X57081000Y-46725840D03*
X57783530Y-42635170D03*
X58683530Y-42635170D03*
D20*
X59369960Y-39910600D03*
X59369960Y-40810600D03*
X58318400Y-39910600D03*
X58318400Y-40810600D03*
D21*
X56555640Y-54168040D03*
X57505640Y-54168040D03*
X58455640Y-54168040D03*
X58455640Y-51468040D03*
X56555640Y-51468040D03*
D22*
X58967750Y-36676150D03*
X58967750Y-37326150D03*
X58967750Y-37976150D03*
X60767750Y-37976150D03*
X60767750Y-37326150D03*
X60767750Y-36676150D03*
D23*
X59867750Y-37326150D03*
D24*
X54000050Y-53393150D03*
X54000050Y-52893150D03*
X54000050Y-52393150D03*
X54000050Y-51893150D03*
X54000050Y-51393150D03*
X54000050Y-50893150D03*
D25*
X53270050Y-50153150D03*
X52770050Y-50153150D03*
X52270050Y-50153150D03*
X51770050Y-50153150D03*
X51270050Y-50153150D03*
X50770050Y-50153150D03*
D24*
X49970050Y-50893150D03*
D25*
X53270050Y-54153150D03*
X52770050Y-54153150D03*
X52270050Y-54153150D03*
X51770050Y-54153150D03*
X51270050Y-54153150D03*
X50770050Y-54153150D03*
D24*
X49970050Y-51393150D03*
X49970050Y-51893150D03*
X49970050Y-52393150D03*
X49970050Y-52893150D03*
X49970050Y-53393150D03*
D11*
X63204720Y-42042960D03*
X62704720Y-42042960D03*
D12*
X64434720Y-41462960D03*
X64434720Y-40962960D03*
X64434720Y-40462960D03*
X64434720Y-39962960D03*
X64434720Y-39462960D03*
X61484720Y-39462960D03*
X61484720Y-39962960D03*
X61484720Y-40462960D03*
X61484720Y-40962960D03*
X61484720Y-41462960D03*
D13*
X62954720Y-40472960D03*
D11*
X62704720Y-38912960D03*
X63204720Y-38912960D03*
D14*
X62474720Y-41222960D03*
X62474720Y-39722960D03*
X63474720Y-41222960D03*
X63474720Y-39722960D03*
X62954720Y-40472960D03*
D11*
X63240280Y-50950740D03*
X62740280Y-50950740D03*
D12*
X64470280Y-50370740D03*
X64470280Y-49870740D03*
X64470280Y-49370740D03*
X64470280Y-48870740D03*
X64470280Y-48370740D03*
X61520280Y-48370740D03*
X61520280Y-48870740D03*
X61520280Y-49370740D03*
X61520280Y-49870740D03*
X61520280Y-50370740D03*
D13*
X62990280Y-49380740D03*
D11*
X62740280Y-47820740D03*
X63240280Y-47820740D03*
D14*
X62510280Y-50130740D03*
X62510280Y-48630740D03*
X63510280Y-50130740D03*
X63510280Y-48630740D03*
X62990280Y-49380740D03*
D11*
X64235960Y-46452400D03*
X63735960Y-46452400D03*
D12*
X65465960Y-45872400D03*
X65465960Y-45372400D03*
X65465960Y-44872400D03*
X65465960Y-44372400D03*
X65465960Y-43872400D03*
X62515960Y-43872400D03*
X62515960Y-44372400D03*
X62515960Y-44872400D03*
X62515960Y-45372400D03*
X62515960Y-45872400D03*
D13*
X63985960Y-44882400D03*
D11*
X63735960Y-43322400D03*
X64235960Y-43322400D03*
D14*
X63505960Y-45632400D03*
X63505960Y-44132400D03*
X64505960Y-45632400D03*
X64505960Y-44132400D03*
X63985960Y-44882400D03*
D26*
X54067900Y-40823200D03*
X53617900Y-40823200D03*
X53167900Y-40823200D03*
X52717900Y-40823200D03*
X52267900Y-40823200D03*
X51817900Y-40823200D03*
X51367900Y-40823200D03*
D27*
X50717900Y-41473200D03*
X50717900Y-41923200D03*
X50717900Y-42373200D03*
X50717900Y-42823200D03*
X50717900Y-43273200D03*
X50717900Y-43723200D03*
X50717900Y-44173200D03*
D26*
X51367900Y-44823200D03*
X51817900Y-44823200D03*
X52267900Y-44823200D03*
X52717900Y-44823200D03*
X53167900Y-44823200D03*
X53617900Y-44823200D03*
X54067900Y-44823200D03*
D27*
X54717900Y-44173200D03*
X54717900Y-43723200D03*
X54717900Y-43273200D03*
X54717900Y-42823200D03*
X54717900Y-42373200D03*
X54717900Y-41923200D03*
X54717900Y-41473200D03*
D28*
X52717900Y-42823200D03*
D29*
X62320550Y-37248350D03*
X62320550Y-35748350D03*
D18*
X49156080Y-40665400D03*
X48256920Y-40665400D03*
D20*
X48249300Y-38640600D03*
X48249300Y-39540600D03*
D30*
X54518220Y-47886280D03*
X54518220Y-46586280D03*
X55818220Y-47286280D03*
X55818220Y-45886280D03*
X49117900Y-44273200D03*
X49117900Y-43123200D03*
X49103280Y-45412660D03*
X57264300Y-38991540D03*
X59814460Y-44978320D03*
X59681330Y-43828970D03*
X49117900Y-41923200D03*
D31*
X68005960Y-53457720D03*
X68005960Y-54957720D03*
X67901820Y-41359700D03*
X67901820Y-42859700D03*
X67950080Y-45466880D03*
X67950080Y-46966880D03*
X67950080Y-49266720D03*
X67950080Y-50766720D03*
D32*
X67564000Y-38785800D03*
D33*
X67564000Y-36245800D03*
D30*
X55458360Y-52311300D03*
X58574940Y-49336960D03*
X47815500Y-46741080D03*
D34*
X47934880Y-35791140D03*
X49204880Y-35791140D03*
X50474880Y-35791140D03*
X51744880Y-35791140D03*
X53014880Y-35791140D03*
X54284880Y-35791140D03*
D35*
X57753470Y-45754330D03*
X57753470Y-43854330D03*
X58403470Y-45754330D03*
X58403470Y-43854330D03*
X57103470Y-43854330D03*
X57103470Y-45754330D03*
D36*
X60520580Y-55425340D03*
X65308480Y-42677080D03*
X58036460Y-35570160D03*
X53481700Y-42062400D03*
X52717900Y-42823200D03*
X53456300Y-43561000D03*
X51983100Y-43561000D03*
X51983100Y-42087800D03*
X53619400Y-48928020D03*
X48214280Y-48470820D03*
X50546000Y-37693600D03*
X61367389Y-51119984D03*
D37*
X57480200Y-53014880D03*
D36*
X60434220Y-40347900D03*
X47986850Y-51829550D03*
X60601948Y-47731749D03*
X47668180Y-54422040D03*
X64000380Y-38445440D03*
X64549020Y-47508160D03*
X64203580Y-51711860D03*
X52367180Y-55321200D03*
X57073800Y-36362640D03*
D37*
X59603640Y-55156100D03*
X65664080Y-53172360D03*
X66093340Y-48506380D03*
X65801240Y-39364920D03*
X66763900Y-43591480D03*
D36*
X55681880Y-50223420D03*
X58732420Y-47365920D03*
X48585120Y-54411880D03*
X49509680Y-49923700D03*
X60426600Y-39336980D03*
X62019180Y-43139360D03*
X61600080Y-47533560D03*
X62021720Y-51711860D03*
X59408060Y-52481480D03*
X54782720Y-40083740D03*
X56531960Y-43151690D03*
X58991500Y-46527720D03*
X56654700Y-37117020D03*
X56217820Y-39019480D03*
X55708466Y-37135865D03*
X55272940Y-39006780D03*
X57658000Y-47668180D03*
X60699926Y-51627026D03*
X61267340Y-46443910D03*
X60379875Y-49495445D03*
X60157360Y-42006520D03*
X61208571Y-45130720D03*
X64927480Y-38709600D03*
X65846960Y-41120060D03*
X67251580Y-56095900D03*
X66075560Y-54734460D03*
X67612260Y-52120800D03*
X65984120Y-50022760D03*
X66532860Y-46682680D03*
X66842640Y-45387260D03*
X55440560Y-40625515D03*
X49890680Y-54356000D03*
D38*
X50494129Y-36677600D02*
X47835820Y-36677600D01*
X47835820Y-36677600D02*
X47515780Y-36997640D01*
X47515780Y-36997640D02*
X47515780Y-46550580D01*
X47515780Y-46550580D02*
X47706280Y-46741080D01*
X47706280Y-46741080D02*
X47815500Y-46741080D01*
X47815500Y-46741080D02*
X47548800Y-47007780D01*
X47548800Y-47007780D02*
X47548800Y-48763938D01*
X47548800Y-48763938D02*
X47903383Y-49118521D01*
X47903383Y-49118521D02*
X50352959Y-49118521D01*
X50352959Y-49118521D02*
X50812700Y-48658780D01*
X50812700Y-48658780D02*
X50812700Y-47475870D01*
X50812700Y-47475870D02*
X51623690Y-46664880D01*
X51623690Y-46664880D02*
X51724020Y-46664880D01*
X53929918Y-38109599D02*
X53339439Y-38109599D01*
X53339439Y-38109599D02*
X51907440Y-36677600D01*
X51907440Y-36677600D02*
X50494129Y-36677600D01*
X50474880Y-35791140D02*
X50474880Y-36658351D01*
X50474880Y-36658351D02*
X50494129Y-36677600D01*
D39*
X53921660Y-39169020D02*
X53917480Y-39173200D01*
D40*
X53917480Y-39173200D02*
X53917480Y-39777720D01*
X53212460Y-40076120D02*
X53210180Y-40076120D01*
X53917480Y-39777720D02*
X53771480Y-39923720D01*
X53771480Y-39923720D02*
X53364860Y-39923720D01*
X53364860Y-39923720D02*
X53212460Y-40076120D01*
X53210180Y-40076120D02*
X53167900Y-40118400D01*
X53167900Y-40118400D02*
X53167900Y-40823200D01*
D38*
X58967750Y-37976150D02*
X58967750Y-37326150D01*
X58967750Y-37326150D02*
X58967330Y-37325730D01*
X58967330Y-37325730D02*
X58027950Y-37328930D01*
X51817900Y-46571000D02*
X51724020Y-46664880D01*
X51817900Y-44823200D02*
X51817900Y-46571000D01*
X53917480Y-38122037D02*
X53917480Y-39173200D01*
X53929918Y-38109599D02*
X53917480Y-38122037D01*
X57264300Y-39910600D02*
X58318400Y-39910600D01*
X59369960Y-39910600D02*
X58318400Y-39910600D01*
X56995621Y-38109599D02*
X53929918Y-38109599D01*
X57776290Y-37328930D02*
X56995621Y-38109599D01*
X58027950Y-37328930D02*
X57776290Y-37328930D01*
X58967750Y-37976150D02*
X58967750Y-38514910D01*
X58318400Y-39164260D02*
X58318400Y-39910600D01*
X58967750Y-38514910D02*
X58318400Y-39164260D01*
D41*
X64770240Y-56344820D02*
X61440060Y-56344820D01*
X61440060Y-56344820D02*
X60520580Y-55425340D01*
X65437600Y-56080660D02*
X65034400Y-56080660D01*
X65034400Y-56080660D02*
X64770240Y-56344820D01*
X65465960Y-43872400D02*
X65465960Y-42834560D01*
X65465960Y-42834560D02*
X65308480Y-42677080D01*
D42*
X58027950Y-36429770D02*
X58027950Y-35578670D01*
X58027950Y-35578670D02*
X58036460Y-35570160D01*
D41*
X53481700Y-42062400D02*
X52720900Y-42823200D01*
X52720900Y-42823200D02*
X52717900Y-42823200D01*
X53456300Y-43561000D02*
X52718500Y-42823200D01*
X51983100Y-43561000D02*
X52717900Y-42826200D01*
X51983100Y-42087800D02*
X52717900Y-42822600D01*
D38*
X53270050Y-50153150D02*
X53270050Y-49277370D01*
X53270050Y-49277370D02*
X53619400Y-48928020D01*
X52737480Y-47564040D02*
X52737480Y-48046100D01*
X52737480Y-48046100D02*
X53619400Y-48928020D01*
X51724020Y-47564040D02*
X52737480Y-47564040D01*
D41*
X49110900Y-47891700D02*
X48793400Y-47891700D01*
X48793400Y-47891700D02*
X48214280Y-48470820D01*
X48249300Y-38640600D02*
X48249300Y-38237400D01*
X48249300Y-38237400D02*
X48793100Y-37693600D01*
X48793100Y-37693600D02*
X49917383Y-37693600D01*
X49917383Y-37693600D02*
X50546000Y-37693600D01*
X50575900Y-39065200D02*
X50575900Y-37723500D01*
X50575900Y-37723500D02*
X50546000Y-37693600D01*
X53018320Y-39173200D02*
X53018320Y-38743520D01*
X53018320Y-38743520D02*
X51968400Y-37693600D01*
X51968400Y-37693600D02*
X50546000Y-37693600D01*
D38*
X52717900Y-44823200D02*
X52717900Y-45624789D01*
X52717900Y-45624789D02*
X53433440Y-46340329D01*
X53433440Y-46340329D02*
X53433440Y-47191200D01*
X53433440Y-47191200D02*
X53060600Y-47564040D01*
X53060600Y-47564040D02*
X52737480Y-47564040D01*
D43*
X61367389Y-51604917D02*
X61367389Y-51119984D01*
X61367389Y-51896084D02*
X61367389Y-51604917D01*
X60683140Y-53251580D02*
X60683140Y-52580333D01*
X61538060Y-53529100D02*
X60960660Y-53529100D01*
X60960660Y-53529100D02*
X60683140Y-53251580D01*
X60683140Y-52580333D02*
X61367389Y-51896084D01*
D40*
X53270050Y-54153150D02*
X53270050Y-55182670D01*
X53270050Y-55182670D02*
X53454300Y-55366920D01*
D42*
X57505640Y-53040320D02*
X57480200Y-53014880D01*
X57505640Y-54168040D02*
X57505640Y-53040320D01*
X57480200Y-55262780D02*
X57480200Y-54193480D01*
X57480200Y-54193480D02*
X57505640Y-54168040D01*
D43*
X61484720Y-40462960D02*
X60549280Y-40462960D01*
X60549280Y-40462960D02*
X60434220Y-40347900D01*
X61484720Y-39962960D02*
X60819160Y-39962960D01*
X60819160Y-39962960D02*
X60434220Y-40347900D01*
D40*
X52717900Y-40823200D02*
X52717900Y-39473620D01*
X52717900Y-39473620D02*
X53018320Y-39173200D01*
X49970050Y-51893150D02*
X48050450Y-51893150D01*
X48050450Y-51893150D02*
X47986850Y-51829550D01*
X48249300Y-38640600D02*
X48349300Y-38640600D01*
X47689670Y-52820150D02*
X47689670Y-52126730D01*
X47689670Y-52126730D02*
X47986850Y-51829550D01*
D38*
X58027950Y-36429770D02*
X58721370Y-36429770D01*
X58721370Y-36429770D02*
X58967750Y-36676150D01*
X58967750Y-36676150D02*
X59932950Y-36676150D01*
D42*
X59932950Y-36676150D02*
X59932950Y-35550930D01*
D38*
X59932950Y-35550930D02*
X59864370Y-35482350D01*
X58967750Y-36676150D02*
X59217750Y-36676150D01*
X59217750Y-36676150D02*
X59867750Y-37326150D01*
D43*
X60601948Y-48216682D02*
X60601948Y-47731749D01*
X61520280Y-49370740D02*
X61111130Y-49370740D01*
X61111130Y-49370740D02*
X60601948Y-48861558D01*
X60601948Y-48861558D02*
X60601948Y-48216682D01*
D40*
X49865280Y-55256430D02*
X49268379Y-54659529D01*
X48011079Y-54079141D02*
X47668180Y-54422040D01*
X49865280Y-55356760D02*
X49865280Y-55256430D01*
X48851819Y-53789579D02*
X48300641Y-53789579D01*
X49268379Y-54659529D02*
X49268379Y-54206139D01*
X49268379Y-54206139D02*
X48851819Y-53789579D01*
X48300641Y-53789579D02*
X48011079Y-54079141D01*
D43*
X64066000Y-38379820D02*
X64000380Y-38445440D01*
X64066000Y-37388800D02*
X64066000Y-38379820D01*
X64637920Y-47419260D02*
X64549020Y-47508160D01*
X65363940Y-47419260D02*
X64637920Y-47419260D01*
D38*
X64470280Y-47586900D02*
X64549020Y-47508160D01*
X64470280Y-48370740D02*
X64470280Y-47586900D01*
D43*
X64302640Y-51810920D02*
X64203580Y-51711860D01*
X65783040Y-51810920D02*
X64302640Y-51810920D01*
D38*
X64488060Y-51996340D02*
X64203580Y-51711860D01*
X64488060Y-53029100D02*
X64488060Y-51996340D01*
D43*
X63258060Y-55869100D02*
X63258060Y-55609100D01*
D38*
X57886600Y-50213260D02*
X58574940Y-49524920D01*
X58574940Y-49524920D02*
X58574940Y-49336960D01*
X57462420Y-50213260D02*
X57886600Y-50213260D01*
D41*
X52412900Y-55366920D02*
X52367180Y-55321200D01*
X53454300Y-55366920D02*
X52412900Y-55366920D01*
D40*
X47638870Y-51481570D02*
X47986850Y-51829550D01*
X47638870Y-50330950D02*
X47638870Y-51481570D01*
D41*
X52267900Y-45792710D02*
X52267900Y-45426400D01*
X52737480Y-46262290D02*
X52267900Y-45792710D01*
X52737480Y-46664880D02*
X52737480Y-46262290D01*
X52267900Y-45426400D02*
X52267900Y-44823200D01*
D43*
X54284880Y-35791140D02*
X54582060Y-35791140D01*
X55013860Y-35359340D02*
X55989220Y-35359340D01*
X54582060Y-35791140D02*
X55013860Y-35359340D01*
X56969660Y-36258500D02*
X57073800Y-36362640D01*
X55989220Y-36258500D02*
X56969660Y-36258500D01*
X57264300Y-40810600D02*
X57164300Y-40810600D01*
X57164300Y-40810600D02*
X56705501Y-40351801D01*
X56705501Y-40351801D02*
X56705501Y-39557959D01*
X56705501Y-39557959D02*
X57233820Y-39029640D01*
X57282080Y-40828380D02*
X57264300Y-40810600D01*
X56680246Y-41953034D02*
X56680246Y-41587669D01*
X55810080Y-42823200D02*
X56680246Y-41953034D01*
X54717900Y-42823200D02*
X55810080Y-42823200D01*
X56680246Y-41394654D02*
X57264300Y-40810600D01*
X56680246Y-41587669D02*
X56680246Y-41394654D01*
D42*
X56855360Y-56243220D02*
X58516520Y-56243220D01*
X58516520Y-56243220D02*
X59603640Y-55156100D01*
X56581040Y-55262780D02*
X56581040Y-55968900D01*
X56581040Y-55968900D02*
X56855360Y-56243220D01*
X56555640Y-54168040D02*
X56555640Y-55237380D01*
X56555640Y-55237380D02*
X56581040Y-55262780D01*
X58455640Y-54168040D02*
X59387320Y-54168040D01*
X59387320Y-54168040D02*
X59458860Y-54239580D01*
X59603640Y-55156100D02*
X59603640Y-54384360D01*
X59603640Y-54384360D02*
X59458860Y-54239580D01*
D38*
X65307340Y-53529100D02*
X65664080Y-53172360D01*
X64488060Y-53529100D02*
X65307340Y-53529100D01*
X64470280Y-48870740D02*
X65728980Y-48870740D01*
X65728980Y-48870740D02*
X66093340Y-48506380D01*
D44*
X67564000Y-36245800D02*
X63345060Y-36245800D01*
X63345060Y-36245800D02*
X62895480Y-35796220D01*
X62895480Y-35796220D02*
X62368420Y-35796220D01*
X62368420Y-35796220D02*
X62320550Y-35748350D01*
D42*
X61029530Y-35748350D02*
X60763530Y-35482350D01*
X62320550Y-35748350D02*
X61029530Y-35748350D01*
X60767750Y-35486570D02*
X60763530Y-35482350D01*
X60767750Y-36676150D02*
X60767750Y-35486570D01*
X62321250Y-35749050D02*
X62320550Y-35748350D01*
D43*
X62520550Y-35748350D02*
X63101220Y-36329020D01*
X62320550Y-35748350D02*
X62520550Y-35748350D01*
X63101220Y-36329020D02*
X63101220Y-37741860D01*
X62866930Y-37976150D02*
X60767750Y-37976150D01*
X63101220Y-37741860D02*
X62866930Y-37976150D01*
D44*
X67564000Y-36245800D02*
X66127160Y-36245800D01*
X66127160Y-36245800D02*
X65801240Y-36571720D01*
X65801240Y-36571720D02*
X65801240Y-39364920D01*
D38*
X64434720Y-39962960D02*
X65203200Y-39962960D01*
X65203200Y-39962960D02*
X65801240Y-39364920D01*
X65465960Y-44372400D02*
X66195760Y-44372400D01*
X66195760Y-44372400D02*
X66763900Y-43804260D01*
X66763900Y-43804260D02*
X66763900Y-43591480D01*
D43*
X57981000Y-46725840D02*
X57981000Y-46794840D01*
X57981000Y-46794840D02*
X58552080Y-47365920D01*
X58552080Y-47365920D02*
X58732420Y-47365920D01*
X55681880Y-50223420D02*
X56553100Y-50223420D01*
X56553100Y-50223420D02*
X56563260Y-50213260D01*
D42*
X56563260Y-50213260D02*
X56563260Y-51460420D01*
X56563260Y-51460420D02*
X56555640Y-51468040D01*
D41*
X57981000Y-46586560D02*
X57753470Y-46359030D01*
X57753470Y-46359030D02*
X57753470Y-45754330D01*
X57981000Y-46725840D02*
X57981000Y-46586560D01*
D40*
X50770050Y-54153150D02*
X50770050Y-55351150D01*
X50770050Y-55351150D02*
X50764440Y-55356760D01*
D41*
X57753470Y-43854330D02*
X57753470Y-42665230D01*
D43*
X57753470Y-42665230D02*
X57783530Y-42635170D01*
D41*
X57753470Y-45754330D02*
X57753470Y-43854330D01*
D40*
X49970050Y-51393150D02*
X49291050Y-51393150D01*
X49291050Y-51393150D02*
X49079050Y-51181150D01*
X49079050Y-51181150D02*
X49079050Y-50534150D01*
X49079050Y-50534150D02*
X48875850Y-50330950D01*
X48875850Y-50330950D02*
X48538030Y-50330950D01*
D38*
X55811420Y-55633620D02*
X55257700Y-56187340D01*
X55257700Y-56187340D02*
X52099210Y-56187340D01*
X52099210Y-56187340D02*
X49217580Y-56187340D01*
X48585120Y-55554880D02*
X48585120Y-54411880D01*
X49217580Y-56187340D02*
X48585120Y-55554880D01*
X48875850Y-50072597D02*
X48875850Y-50330950D01*
X49024747Y-49923700D02*
X48875850Y-50072597D01*
X49509680Y-49923700D02*
X49024747Y-49923700D01*
X56311780Y-51468040D02*
X55465980Y-52313840D01*
X56555640Y-51468040D02*
X56311780Y-51468040D01*
X55458360Y-52311300D02*
X55458360Y-52992020D01*
X55811420Y-53345080D02*
X55811420Y-55633620D01*
X55458360Y-52992020D02*
X55811420Y-53345080D01*
X51079400Y-55356760D02*
X50764440Y-55356760D01*
X51374040Y-55651400D02*
X51079400Y-55356760D01*
X51374040Y-56187340D02*
X51374040Y-55651400D01*
X52099210Y-56187340D02*
X51374040Y-56187340D01*
D43*
X48588830Y-52820150D02*
X48774250Y-52820150D01*
D40*
X48875850Y-52820150D02*
X49302850Y-52393150D01*
X49302850Y-52393150D02*
X49970050Y-52393150D01*
X48588830Y-52820150D02*
X48875850Y-52820150D01*
D41*
X54353460Y-54914800D02*
X54932580Y-54335680D01*
X54353460Y-55366920D02*
X54353460Y-54914800D01*
X54577450Y-52893150D02*
X54000050Y-52893150D01*
X54932580Y-53248280D02*
X54577450Y-52893150D01*
X54932580Y-54335680D02*
X54932580Y-53248280D01*
D43*
X50000320Y-47881960D02*
X50010060Y-47891700D01*
X50000320Y-46954440D02*
X50000320Y-47881960D01*
D41*
X60426600Y-39336980D02*
X61358740Y-39336980D01*
X61358740Y-39336980D02*
X61484720Y-39462960D01*
X62515960Y-43872400D02*
X62515960Y-43636140D01*
X62515960Y-43636140D02*
X62019180Y-43139360D01*
X61600080Y-47533560D02*
X61600080Y-48290940D01*
X61600080Y-48290940D02*
X61520280Y-48370740D01*
D43*
X62021720Y-51711860D02*
X62021720Y-52196793D01*
X61538060Y-52680660D02*
X61538060Y-53029100D01*
X62021720Y-52196793D02*
X61838840Y-52379673D01*
X61838840Y-52379673D02*
X61838840Y-52379880D01*
X61838840Y-52379880D02*
X61538060Y-52680660D01*
X59458860Y-53339580D02*
X59458860Y-52532280D01*
X59458860Y-52532280D02*
X59408060Y-52481480D01*
X54067900Y-40823200D02*
X54067900Y-40587200D01*
D41*
X54067900Y-40798560D02*
X54782720Y-40083740D01*
D43*
X54067900Y-40823200D02*
X54067900Y-40798560D01*
D41*
X52267900Y-40823200D02*
X52267900Y-39254000D01*
X52267900Y-39254000D02*
X52079100Y-39065200D01*
X52079100Y-39065200D02*
X51525900Y-39065200D01*
X51817900Y-40823200D02*
X51817900Y-40220000D01*
X51817900Y-40220000D02*
X51567901Y-39970001D01*
X51567901Y-39970001D02*
X49737501Y-39970001D01*
X49737501Y-39970001D02*
X49625900Y-39858400D01*
X49625900Y-39858400D02*
X49625900Y-39055200D01*
D43*
X51367900Y-40823200D02*
X49034480Y-40823200D01*
X49034480Y-40823200D02*
X49156080Y-40665400D01*
X50717900Y-43273200D02*
X49967900Y-43273200D01*
X49617900Y-41923200D02*
X49117900Y-41923200D01*
X49817900Y-42123200D02*
X49617900Y-41923200D01*
X49817900Y-43123200D02*
X49817900Y-42123200D01*
X49967900Y-43273200D02*
X49817900Y-43123200D01*
X50717900Y-43723200D02*
X49717900Y-43723200D01*
X49717900Y-43723200D02*
X49117900Y-43123200D01*
X50717900Y-44173200D02*
X49217900Y-44173200D01*
X49217900Y-44173200D02*
X49117900Y-44273200D01*
X49692740Y-44823200D02*
X49103280Y-45412660D01*
X51367900Y-44823200D02*
X49692740Y-44823200D01*
X49100320Y-45415620D02*
X49103280Y-45412660D01*
X49100320Y-46954440D02*
X49100320Y-45415620D01*
X53167900Y-44823200D02*
X53167900Y-45375600D01*
X53167900Y-45375600D02*
X53848019Y-46055719D01*
X53848019Y-46055719D02*
X53848019Y-47216079D01*
X53848019Y-47216079D02*
X54076621Y-47444681D01*
X54076621Y-47444681D02*
X54518220Y-47886280D01*
X54518220Y-46294854D02*
X54518220Y-46586280D01*
X53617900Y-45394534D02*
X54518220Y-46294854D01*
X53617900Y-44823200D02*
X53617900Y-45394534D01*
X54067900Y-44823200D02*
X54067900Y-45098740D01*
X54067900Y-45098740D02*
X55376621Y-46407461D01*
X55376621Y-46407461D02*
X55376621Y-46844681D01*
X55376621Y-46844681D02*
X55818220Y-47286280D01*
X54717900Y-44173200D02*
X54717900Y-44785960D01*
X54717900Y-44785960D02*
X55818220Y-45886280D01*
D41*
X54717900Y-44173200D02*
X54728900Y-44173200D01*
D43*
X54717900Y-44173200D02*
X54993440Y-44173200D01*
D41*
X57103470Y-43944330D02*
X57103470Y-43854330D01*
D43*
X59269960Y-40810600D02*
X59369960Y-40810600D01*
X57094620Y-43845480D02*
X57103470Y-43854330D01*
X56972340Y-43723200D02*
X57103470Y-43854330D01*
X54717900Y-43723200D02*
X56972340Y-43723200D01*
X57103470Y-42403748D02*
X57444818Y-42062400D01*
X57103470Y-43854330D02*
X57103470Y-42403748D01*
X57444818Y-42062400D02*
X59174380Y-42062400D01*
X59369960Y-41866820D02*
X59369960Y-40810600D01*
X59174380Y-42062400D02*
X59369960Y-41866820D01*
X58218400Y-40810600D02*
X58318400Y-40810600D01*
X58318400Y-40810600D02*
X58318400Y-41163000D01*
X58318400Y-41592500D02*
X58153310Y-41757590D01*
X58318400Y-41163000D02*
X58318400Y-41592500D01*
X58153310Y-41757590D02*
X57318561Y-41757591D01*
X56798661Y-42884989D02*
X56531960Y-43151690D01*
X56798661Y-42277491D02*
X56798661Y-42884989D01*
X57318561Y-41757591D02*
X56798661Y-42277491D01*
X56410450Y-43273200D02*
X56531960Y-43151690D01*
X54717900Y-43273200D02*
X56410450Y-43273200D01*
X58403470Y-45939690D02*
X58991500Y-46527720D01*
X58403470Y-45754330D02*
X58403470Y-45939690D01*
X56311801Y-37459919D02*
X56654700Y-37117020D01*
X56060341Y-37711379D02*
X56311801Y-37459919D01*
X53665119Y-37711379D02*
X56060341Y-37711379D01*
X51744880Y-35791140D02*
X53665119Y-37711379D01*
X56329590Y-39616183D02*
X56217820Y-39504413D01*
X56329590Y-41313910D02*
X56329590Y-39616183D01*
X55270300Y-42373200D02*
X56329590Y-41313910D01*
X56217820Y-39504413D02*
X56217820Y-39019480D01*
X54717900Y-42373200D02*
X55270300Y-42373200D01*
X53014880Y-35791140D02*
X54359605Y-37135865D01*
X55223533Y-37135865D02*
X55708466Y-37135865D01*
X54359605Y-37135865D02*
X55223533Y-37135865D01*
X55270300Y-41923200D02*
X56012080Y-41181420D01*
X54717900Y-41923200D02*
X55270300Y-41923200D01*
X56012080Y-39745920D02*
X55272940Y-39006780D01*
X56012080Y-41181420D02*
X56012080Y-39745920D01*
D41*
X57081000Y-46725840D02*
X57081000Y-47192780D01*
X57081000Y-47192780D02*
X57556400Y-47668180D01*
X57556400Y-47668180D02*
X57658000Y-47668180D01*
X57173067Y-47668180D02*
X57658000Y-47668180D01*
X56520080Y-47668180D02*
X57173067Y-47668180D01*
X54000050Y-50188210D02*
X56520080Y-47668180D01*
X54000050Y-50893150D02*
X54000050Y-50188210D01*
D43*
X60960660Y-54529100D02*
X60378330Y-53946770D01*
X60699926Y-52111959D02*
X60699926Y-51627026D01*
X60378330Y-52433555D02*
X60699926Y-52111959D01*
X61538060Y-54529100D02*
X60960660Y-54529100D01*
X60378330Y-53946770D02*
X60378330Y-52433555D01*
X60379875Y-49495445D02*
X60397125Y-49495445D01*
X60772420Y-49870740D02*
X61520280Y-49870740D01*
X60397125Y-49495445D02*
X60772420Y-49870740D01*
D41*
X61484720Y-40962960D02*
X60856520Y-40962960D01*
X60856520Y-40962960D02*
X60157360Y-41662120D01*
X60157360Y-41662120D02*
X60157360Y-42006520D01*
X57103470Y-46703370D02*
X57081000Y-46725840D01*
X57103470Y-45754330D02*
X57103470Y-46703370D01*
D43*
X61450251Y-45372400D02*
X62515960Y-45372400D01*
X61208571Y-45130720D02*
X61450251Y-45372400D01*
X60379875Y-49495445D02*
X60015119Y-49130689D01*
X60015119Y-49130689D02*
X60015119Y-47510327D01*
X60015119Y-47510327D02*
X60738637Y-46786809D01*
X60738637Y-46786809D02*
X60924441Y-46786809D01*
X60924441Y-46786809D02*
X61267340Y-46443910D01*
X60960660Y-55029100D02*
X60063380Y-54131820D01*
X61538060Y-55029100D02*
X60960660Y-55029100D01*
X60063380Y-54131820D02*
X60063380Y-51455320D01*
X60063380Y-51455320D02*
X61030485Y-50488215D01*
X61030485Y-50488215D02*
X61030485Y-50370740D01*
X61520280Y-50370740D02*
X61030485Y-50370740D01*
D41*
X59681330Y-43828970D02*
X61484720Y-42025580D01*
X61484720Y-42025580D02*
X61484720Y-41462960D01*
X60611661Y-45790973D02*
X60611661Y-44134785D01*
X60611661Y-44134785D02*
X60305846Y-43828970D01*
X60305846Y-43828970D02*
X59681330Y-43828970D01*
X58683530Y-42635170D02*
X59340750Y-42635170D01*
X59681330Y-42975750D02*
X59681330Y-43828970D01*
X59340750Y-42635170D02*
X59681330Y-42975750D01*
X58546520Y-43275380D02*
X58479220Y-43275380D01*
X58479220Y-43275380D02*
X58403470Y-43351130D01*
X58403470Y-43351130D02*
X58403470Y-43854330D01*
X58683530Y-42635170D02*
X58683530Y-43138370D01*
X58683530Y-43138370D02*
X58546520Y-43275380D01*
D43*
X60693088Y-45872400D02*
X60611661Y-45790973D01*
X62515960Y-45872400D02*
X60693088Y-45872400D01*
D41*
X60611661Y-46446799D02*
X60611661Y-45790973D01*
X56403240Y-48328580D02*
X58729880Y-48328580D01*
X54628250Y-51393150D02*
X54782720Y-51238680D01*
X54782720Y-49949100D02*
X56403240Y-48328580D01*
X54000050Y-51393150D02*
X54628250Y-51393150D01*
X54782720Y-51238680D02*
X54782720Y-49949100D01*
D43*
X59669680Y-47733920D02*
X59497110Y-47561350D01*
X59669680Y-49593500D02*
X59669680Y-47733920D01*
X60446920Y-50370740D02*
X59669680Y-49593500D01*
X61030485Y-50370740D02*
X60446920Y-50370740D01*
D41*
X59497110Y-47561350D02*
X60611661Y-46446799D01*
X58729880Y-48328580D02*
X59497110Y-47561350D01*
D43*
X65689860Y-40962960D02*
X64434720Y-40962960D01*
X65846960Y-41120060D02*
X65689860Y-40962960D01*
X64966000Y-38671080D02*
X64927480Y-38709600D01*
X64966000Y-37388800D02*
X64966000Y-38671080D01*
X67236340Y-56080660D02*
X67251580Y-56095900D01*
X66337600Y-56080660D02*
X67236340Y-56080660D01*
X64488060Y-54529100D02*
X65870200Y-54529100D01*
X65870200Y-54529100D02*
X66075560Y-54734460D01*
X66683040Y-51810920D02*
X67302380Y-51810920D01*
X67302380Y-51810920D02*
X67612260Y-52120800D01*
X64470280Y-49870740D02*
X65832100Y-49870740D01*
X65832100Y-49870740D02*
X65984120Y-50022760D01*
X65465960Y-45372400D02*
X66827780Y-45372400D01*
X66263940Y-47419260D02*
X66263940Y-46951600D01*
X66263940Y-46951600D02*
X66532860Y-46682680D01*
X66827780Y-45372400D02*
X66842640Y-45387260D01*
D38*
X60767750Y-37326150D02*
X62242750Y-37326150D01*
X62242750Y-37326150D02*
X62320550Y-37248350D01*
X64488060Y-54029100D02*
X67434580Y-54029100D01*
X67434580Y-54029100D02*
X68005960Y-53457720D01*
X68005960Y-54957720D02*
X67298854Y-54957720D01*
X65217860Y-55473900D02*
X64773060Y-55029100D01*
X66782674Y-55473900D02*
X65217860Y-55473900D01*
X67298854Y-54957720D02*
X66782674Y-55473900D01*
X64773060Y-55029100D02*
X64488060Y-55029100D01*
X64434720Y-40462960D02*
X67005080Y-40462960D01*
X67005080Y-40462960D02*
X67901820Y-41359700D01*
X66847980Y-41805860D02*
X67901820Y-42859700D01*
X65507420Y-41805860D02*
X66847980Y-41805860D01*
X65164520Y-41462960D02*
X65507420Y-41805860D01*
X64434720Y-41462960D02*
X65164520Y-41462960D01*
X67222759Y-44739559D02*
X67450081Y-44966881D01*
X65465960Y-44872400D02*
X66398902Y-44872400D01*
X66531743Y-44739559D02*
X67222759Y-44739559D01*
X67450081Y-44966881D02*
X67950080Y-45466880D01*
X66398902Y-44872400D02*
X66531743Y-44739559D01*
X67450081Y-46466881D02*
X67950080Y-46966880D01*
X65465960Y-45872400D02*
X66195760Y-45872400D01*
X67018161Y-46034961D02*
X67450081Y-46466881D01*
X66358321Y-46034961D02*
X67018161Y-46034961D01*
X66195760Y-45872400D02*
X66358321Y-46034961D01*
X64470280Y-49370740D02*
X67846060Y-49370740D01*
X67846060Y-49370740D02*
X67950080Y-49266720D01*
X65596060Y-50766720D02*
X67950080Y-50766720D01*
X65200080Y-50370740D02*
X65596060Y-50766720D01*
X64470280Y-50370740D02*
X65200080Y-50370740D01*
D41*
X48256920Y-40665400D02*
X48256920Y-39548220D01*
X48256920Y-39548220D02*
X48249300Y-39540600D01*
D43*
X48256500Y-39547800D02*
X48249300Y-39540600D01*
X49970050Y-53393150D02*
X49737950Y-53393150D01*
X55288725Y-40625515D02*
X55440560Y-40625515D01*
X54717900Y-41196340D02*
X55288725Y-40625515D01*
X54717900Y-41473200D02*
X54717900Y-41196340D01*
X49970050Y-53393150D02*
X49970050Y-54276630D01*
X49970050Y-54276630D02*
X49890680Y-54356000D01*
G36*
X49485901Y-51892957D02*
X49419146Y-51905909D01*
X49373414Y-51935950D01*
X49302850Y-51935950D01*
X49127887Y-51970752D01*
X48979561Y-52069861D01*
X48852725Y-52196696D01*
X48788220Y-52183761D01*
X48389440Y-52183761D01*
X48263536Y-52208189D01*
X48152878Y-52280880D01*
X48078804Y-52390617D01*
X48052771Y-52520430D01*
X48052771Y-53119870D01*
X48077199Y-53245774D01*
X48149890Y-53356432D01*
X48259627Y-53430506D01*
X48389440Y-53456539D01*
X48788220Y-53456539D01*
X48914124Y-53432111D01*
X49024782Y-53359420D01*
X49098856Y-53249683D01*
X49107942Y-53204375D01*
X49199139Y-53143439D01*
X49219113Y-53123464D01*
X49223173Y-53144389D01*
X49208381Y-53218150D01*
X49208381Y-53568150D01*
X49232809Y-53694054D01*
X49305500Y-53804712D01*
X49415237Y-53878786D01*
X49415862Y-53878911D01*
X49320386Y-53974222D01*
X49226250Y-54200924D01*
X49156079Y-54031097D01*
X48966898Y-53841586D01*
X48719595Y-53738897D01*
X48451819Y-53738663D01*
X48204337Y-53840921D01*
X48014826Y-54030102D01*
X47912137Y-54277405D01*
X47911903Y-54545181D01*
X48014161Y-54792663D01*
X48102520Y-54881176D01*
X48102520Y-55554880D01*
X48139256Y-55739563D01*
X48243870Y-55896130D01*
X48792420Y-56444680D01*
X47365120Y-56444680D01*
X47365120Y-49262758D01*
X47562133Y-49459771D01*
X47718700Y-49564385D01*
X47903383Y-49601121D01*
X48664826Y-49601121D01*
X48571386Y-49694561D01*
X48338640Y-49694561D01*
X48212736Y-49718989D01*
X48102078Y-49791680D01*
X48028004Y-49901417D01*
X48001971Y-50031230D01*
X48001971Y-50630670D01*
X48026399Y-50756574D01*
X48099090Y-50867232D01*
X48208827Y-50941306D01*
X48338640Y-50967339D01*
X48621850Y-50967339D01*
X48621850Y-51181150D01*
X48656652Y-51356113D01*
X48755761Y-51504439D01*
X48967761Y-51716439D01*
X49116087Y-51815548D01*
X49291050Y-51850350D01*
X49373110Y-51850350D01*
X49415237Y-51878786D01*
X49485901Y-51892957D01*
X49485901Y-51892957D01*
G37*
X49485901Y-51892957D02*
X49419146Y-51905909D01*
X49373414Y-51935950D01*
X49302850Y-51935950D01*
X49127887Y-51970752D01*
X48979561Y-52069861D01*
X48852725Y-52196696D01*
X48788220Y-52183761D01*
X48389440Y-52183761D01*
X48263536Y-52208189D01*
X48152878Y-52280880D01*
X48078804Y-52390617D01*
X48052771Y-52520430D01*
X48052771Y-53119870D01*
X48077199Y-53245774D01*
X48149890Y-53356432D01*
X48259627Y-53430506D01*
X48389440Y-53456539D01*
X48788220Y-53456539D01*
X48914124Y-53432111D01*
X49024782Y-53359420D01*
X49098856Y-53249683D01*
X49107942Y-53204375D01*
X49199139Y-53143439D01*
X49219113Y-53123464D01*
X49223173Y-53144389D01*
X49208381Y-53218150D01*
X49208381Y-53568150D01*
X49232809Y-53694054D01*
X49305500Y-53804712D01*
X49415237Y-53878786D01*
X49415862Y-53878911D01*
X49320386Y-53974222D01*
X49226250Y-54200924D01*
X49156079Y-54031097D01*
X48966898Y-53841586D01*
X48719595Y-53738897D01*
X48451819Y-53738663D01*
X48204337Y-53840921D01*
X48014826Y-54030102D01*
X47912137Y-54277405D01*
X47911903Y-54545181D01*
X48014161Y-54792663D01*
X48102520Y-54881176D01*
X48102520Y-55554880D01*
X48139256Y-55739563D01*
X48243870Y-55896130D01*
X48792420Y-56444680D01*
X47365120Y-56444680D01*
X47365120Y-49262758D01*
X47562133Y-49459771D01*
X47718700Y-49564385D01*
X47903383Y-49601121D01*
X48664826Y-49601121D01*
X48571386Y-49694561D01*
X48338640Y-49694561D01*
X48212736Y-49718989D01*
X48102078Y-49791680D01*
X48028004Y-49901417D01*
X48001971Y-50031230D01*
X48001971Y-50630670D01*
X48026399Y-50756574D01*
X48099090Y-50867232D01*
X48208827Y-50941306D01*
X48338640Y-50967339D01*
X48621850Y-50967339D01*
X48621850Y-51181150D01*
X48656652Y-51356113D01*
X48755761Y-51504439D01*
X48967761Y-51716439D01*
X49116087Y-51815548D01*
X49291050Y-51850350D01*
X49373110Y-51850350D01*
X49415237Y-51878786D01*
X49485901Y-51892957D01*
G36*
X49803629Y-35205080D02*
X49721662Y-35286904D01*
X49586034Y-35613531D01*
X49585726Y-35967197D01*
X49679852Y-36195000D01*
X47835820Y-36195000D01*
X47651137Y-36231736D01*
X47494570Y-36336350D01*
X47365120Y-36465800D01*
X47365120Y-35205080D01*
X49803629Y-35205080D01*
X49803629Y-35205080D01*
G37*
X49803629Y-35205080D02*
X49721662Y-35286904D01*
X49586034Y-35613531D01*
X49585726Y-35967197D01*
X49679852Y-36195000D01*
X47835820Y-36195000D01*
X47651137Y-36231736D01*
X47494570Y-36336350D01*
X47365120Y-36465800D01*
X47365120Y-35205080D01*
X49803629Y-35205080D01*
G36*
X50252932Y-54934615D02*
X50228381Y-55057040D01*
X50228381Y-55656480D01*
X50237744Y-55704740D01*
X49417479Y-55704740D01*
X49067720Y-55354980D01*
X49067720Y-54881199D01*
X49155414Y-54793658D01*
X49249549Y-54566955D01*
X49319721Y-54736783D01*
X49508902Y-54926294D01*
X49756205Y-55028983D01*
X50023981Y-55029217D01*
X50252932Y-54934615D01*
X50252932Y-54934615D01*
G37*
X50252932Y-54934615D02*
X50228381Y-55057040D01*
X50228381Y-55656480D01*
X50237744Y-55704740D01*
X49417479Y-55704740D01*
X49067720Y-55354980D01*
X49067720Y-54881199D01*
X49155414Y-54793658D01*
X49249549Y-54566955D01*
X49319721Y-54736783D01*
X49508902Y-54926294D01*
X49756205Y-55028983D01*
X50023981Y-55029217D01*
X50252932Y-54934615D01*
G36*
X50273274Y-48515705D02*
X50153059Y-48635921D01*
X48103283Y-48635921D01*
X48031400Y-48564038D01*
X48031400Y-47486959D01*
X48252118Y-47395761D01*
X48469418Y-47178840D01*
X48563651Y-46951901D01*
X48563651Y-47254440D01*
X48588079Y-47380344D01*
X48660770Y-47491002D01*
X48770507Y-47565076D01*
X48900320Y-47591109D01*
X49300320Y-47591109D01*
X49426224Y-47566681D01*
X49487093Y-47526696D01*
X49474001Y-47591980D01*
X49474001Y-48191420D01*
X49498429Y-48317324D01*
X49571120Y-48427982D01*
X49680857Y-48502056D01*
X49810670Y-48528089D01*
X50209450Y-48528089D01*
X50273274Y-48515705D01*
X50273274Y-48515705D01*
G37*
X50273274Y-48515705D02*
X50153059Y-48635921D01*
X48103283Y-48635921D01*
X48031400Y-48564038D01*
X48031400Y-47486959D01*
X48252118Y-47395761D01*
X48469418Y-47178840D01*
X48563651Y-46951901D01*
X48563651Y-47254440D01*
X48588079Y-47380344D01*
X48660770Y-47491002D01*
X48770507Y-47565076D01*
X48900320Y-47591109D01*
X49300320Y-47591109D01*
X49426224Y-47566681D01*
X49487093Y-47526696D01*
X49474001Y-47591980D01*
X49474001Y-48191420D01*
X49498429Y-48317324D01*
X49571120Y-48427982D01*
X49680857Y-48502056D01*
X49810670Y-48528089D01*
X50209450Y-48528089D01*
X50273274Y-48515705D01*
G36*
X53434880Y-38703036D02*
X53407454Y-38743667D01*
X53381421Y-38873480D01*
X53381421Y-39466520D01*
X53364860Y-39466520D01*
X53189897Y-39501322D01*
X53041571Y-39600431D01*
X52893762Y-39748239D01*
X52886891Y-39752831D01*
X52844611Y-39795111D01*
X52745502Y-39943437D01*
X52710700Y-40118400D01*
X52710700Y-40473730D01*
X52699700Y-40418430D01*
X52699700Y-39254005D01*
X52699700Y-39254000D01*
X52699701Y-39254000D01*
X52666832Y-39088758D01*
X52666831Y-39088757D01*
X52635772Y-39042274D01*
X52573229Y-38948672D01*
X52573229Y-38948671D01*
X52573225Y-38948668D01*
X52384429Y-38759871D01*
X52244343Y-38666269D01*
X52212569Y-38659948D01*
X52212569Y-38465200D01*
X52188141Y-38339296D01*
X52115450Y-38228638D01*
X52005713Y-38154564D01*
X51875900Y-38128531D01*
X51175900Y-38128531D01*
X51049996Y-38152959D01*
X50939338Y-38225650D01*
X50865264Y-38335387D01*
X50839231Y-38465200D01*
X50839231Y-39538201D01*
X50312569Y-39538201D01*
X50312569Y-38455200D01*
X50288141Y-38329296D01*
X50215450Y-38218638D01*
X50105713Y-38144564D01*
X49975900Y-38118531D01*
X49275900Y-38118531D01*
X49149996Y-38142959D01*
X49039338Y-38215650D01*
X48965264Y-38325387D01*
X48939231Y-38455200D01*
X48939231Y-39655200D01*
X48963659Y-39781104D01*
X49036350Y-39891762D01*
X49146087Y-39965836D01*
X49218353Y-39980328D01*
X49226969Y-40023643D01*
X49230555Y-40029011D01*
X48956690Y-40029011D01*
X48830786Y-40053439D01*
X48720128Y-40126130D01*
X48706834Y-40145824D01*
X48695860Y-40129118D01*
X48688720Y-40124298D01*
X48688720Y-40043962D01*
X48785862Y-39980150D01*
X48859936Y-39870413D01*
X48885969Y-39740600D01*
X48885969Y-39340600D01*
X48861541Y-39214696D01*
X48788850Y-39104038D01*
X48679113Y-39029964D01*
X48549300Y-39003931D01*
X47998380Y-39003931D01*
X47998380Y-37197540D01*
X48035720Y-37160200D01*
X50494129Y-37160200D01*
X51707540Y-37160200D01*
X52998186Y-38450845D01*
X52998189Y-38450849D01*
X53154756Y-38555463D01*
X53339439Y-38592199D01*
X53434880Y-38592199D01*
X53434880Y-38703036D01*
X53434880Y-38703036D01*
G37*
X53434880Y-38703036D02*
X53407454Y-38743667D01*
X53381421Y-38873480D01*
X53381421Y-39466520D01*
X53364860Y-39466520D01*
X53189897Y-39501322D01*
X53041571Y-39600431D01*
X52893762Y-39748239D01*
X52886891Y-39752831D01*
X52844611Y-39795111D01*
X52745502Y-39943437D01*
X52710700Y-40118400D01*
X52710700Y-40473730D01*
X52699700Y-40418430D01*
X52699700Y-39254005D01*
X52699700Y-39254000D01*
X52699701Y-39254000D01*
X52666832Y-39088758D01*
X52666831Y-39088757D01*
X52635772Y-39042274D01*
X52573229Y-38948672D01*
X52573229Y-38948671D01*
X52573225Y-38948668D01*
X52384429Y-38759871D01*
X52244343Y-38666269D01*
X52212569Y-38659948D01*
X52212569Y-38465200D01*
X52188141Y-38339296D01*
X52115450Y-38228638D01*
X52005713Y-38154564D01*
X51875900Y-38128531D01*
X51175900Y-38128531D01*
X51049996Y-38152959D01*
X50939338Y-38225650D01*
X50865264Y-38335387D01*
X50839231Y-38465200D01*
X50839231Y-39538201D01*
X50312569Y-39538201D01*
X50312569Y-38455200D01*
X50288141Y-38329296D01*
X50215450Y-38218638D01*
X50105713Y-38144564D01*
X49975900Y-38118531D01*
X49275900Y-38118531D01*
X49149996Y-38142959D01*
X49039338Y-38215650D01*
X48965264Y-38325387D01*
X48939231Y-38455200D01*
X48939231Y-39655200D01*
X48963659Y-39781104D01*
X49036350Y-39891762D01*
X49146087Y-39965836D01*
X49218353Y-39980328D01*
X49226969Y-40023643D01*
X49230555Y-40029011D01*
X48956690Y-40029011D01*
X48830786Y-40053439D01*
X48720128Y-40126130D01*
X48706834Y-40145824D01*
X48695860Y-40129118D01*
X48688720Y-40124298D01*
X48688720Y-40043962D01*
X48785862Y-39980150D01*
X48859936Y-39870413D01*
X48885969Y-39740600D01*
X48885969Y-39340600D01*
X48861541Y-39214696D01*
X48788850Y-39104038D01*
X48679113Y-39029964D01*
X48549300Y-39003931D01*
X47998380Y-39003931D01*
X47998380Y-37197540D01*
X48035720Y-37160200D01*
X50494129Y-37160200D01*
X51707540Y-37160200D01*
X52998186Y-38450845D01*
X52998189Y-38450849D01*
X53154756Y-38555463D01*
X53339439Y-38592199D01*
X53434880Y-38592199D01*
X53434880Y-38703036D01*
G36*
X54500780Y-54156822D02*
X54048131Y-54609471D01*
X53954529Y-54749557D01*
X53942225Y-54811413D01*
X53942224Y-54811413D01*
X53917508Y-54827650D01*
X53843434Y-54937387D01*
X53817401Y-55067200D01*
X53817401Y-55666640D01*
X53824793Y-55704740D01*
X52099210Y-55704740D01*
X51856640Y-55704740D01*
X51856640Y-55651400D01*
X51819904Y-55466717D01*
X51715290Y-55310150D01*
X51420650Y-55015510D01*
X51264083Y-54910896D01*
X51262578Y-54910596D01*
X51248929Y-54889819D01*
X51445050Y-54889819D01*
X51521289Y-54875026D01*
X51595050Y-54889819D01*
X51945050Y-54889819D01*
X52021289Y-54875026D01*
X52095050Y-54889819D01*
X52445050Y-54889819D01*
X52521289Y-54875026D01*
X52595050Y-54889819D01*
X52945050Y-54889819D01*
X53070954Y-54865391D01*
X53181612Y-54792700D01*
X53255686Y-54682963D01*
X53281719Y-54553150D01*
X53281719Y-53753150D01*
X53273373Y-53710136D01*
X53335500Y-53804712D01*
X53445237Y-53878786D01*
X53575050Y-53904819D01*
X54425050Y-53904819D01*
X54500780Y-53890125D01*
X54500780Y-54156822D01*
X54500780Y-54156822D01*
G37*
X54500780Y-54156822D02*
X54048131Y-54609471D01*
X53954529Y-54749557D01*
X53942225Y-54811413D01*
X53942224Y-54811413D01*
X53917508Y-54827650D01*
X53843434Y-54937387D01*
X53817401Y-55067200D01*
X53817401Y-55666640D01*
X53824793Y-55704740D01*
X52099210Y-55704740D01*
X51856640Y-55704740D01*
X51856640Y-55651400D01*
X51819904Y-55466717D01*
X51715290Y-55310150D01*
X51420650Y-55015510D01*
X51264083Y-54910896D01*
X51262578Y-54910596D01*
X51248929Y-54889819D01*
X51445050Y-54889819D01*
X51521289Y-54875026D01*
X51595050Y-54889819D01*
X51945050Y-54889819D01*
X52021289Y-54875026D01*
X52095050Y-54889819D01*
X52445050Y-54889819D01*
X52521289Y-54875026D01*
X52595050Y-54889819D01*
X52945050Y-54889819D01*
X53070954Y-54865391D01*
X53181612Y-54792700D01*
X53255686Y-54682963D01*
X53281719Y-54553150D01*
X53281719Y-53753150D01*
X53273373Y-53710136D01*
X53335500Y-53804712D01*
X53445237Y-53878786D01*
X53575050Y-53904819D01*
X54425050Y-53904819D01*
X54500780Y-53890125D01*
X54500780Y-54156822D01*
G36*
X55562016Y-48015586D02*
X53694721Y-49882881D01*
X53601119Y-50022967D01*
X53568250Y-50188210D01*
X53568250Y-50382800D01*
X53449146Y-50405909D01*
X53338488Y-50478600D01*
X53278994Y-50566737D01*
X53281719Y-50553150D01*
X53281719Y-49753150D01*
X53257291Y-49627246D01*
X53184600Y-49516588D01*
X53074863Y-49442514D01*
X52945050Y-49416481D01*
X52595050Y-49416481D01*
X52518810Y-49431273D01*
X52445050Y-49416481D01*
X52095050Y-49416481D01*
X52018810Y-49431273D01*
X51945050Y-49416481D01*
X51595050Y-49416481D01*
X51518810Y-49431273D01*
X51445050Y-49416481D01*
X51095050Y-49416481D01*
X51018810Y-49431273D01*
X50945050Y-49416481D01*
X50737499Y-49416481D01*
X51153950Y-49000030D01*
X51258564Y-48843463D01*
X51295300Y-48658780D01*
X51295300Y-47675770D01*
X51770131Y-47200939D01*
X52023740Y-47200939D01*
X52149644Y-47176511D01*
X52231077Y-47123017D01*
X52307947Y-47174906D01*
X52437760Y-47200939D01*
X53037200Y-47200939D01*
X53163104Y-47176511D01*
X53273762Y-47103820D01*
X53347836Y-46994083D01*
X53373869Y-46864270D01*
X53373869Y-46465490D01*
X53349441Y-46339586D01*
X53276750Y-46228928D01*
X53167013Y-46154854D01*
X53147115Y-46150863D01*
X53136411Y-46097047D01*
X53042809Y-45956961D01*
X53042805Y-45956958D01*
X52699700Y-45613852D01*
X52699700Y-45426400D01*
X52699700Y-45227969D01*
X52717900Y-45136472D01*
X52747849Y-45287036D01*
X52761500Y-45307466D01*
X52761500Y-45375600D01*
X52792435Y-45531123D01*
X52880532Y-45662968D01*
X53441619Y-46224055D01*
X53441619Y-47216079D01*
X53472554Y-47371602D01*
X53560651Y-47503447D01*
X53759093Y-47701889D01*
X53746555Y-47732086D01*
X53746287Y-48039127D01*
X53863539Y-48322898D01*
X54080460Y-48540198D01*
X54364026Y-48657945D01*
X54671067Y-48658213D01*
X54954838Y-48540961D01*
X55172138Y-48324040D01*
X55289885Y-48040474D01*
X55290051Y-47849631D01*
X55380460Y-47940198D01*
X55562016Y-48015586D01*
X55562016Y-48015586D01*
G37*
X55562016Y-48015586D02*
X53694721Y-49882881D01*
X53601119Y-50022967D01*
X53568250Y-50188210D01*
X53568250Y-50382800D01*
X53449146Y-50405909D01*
X53338488Y-50478600D01*
X53278994Y-50566737D01*
X53281719Y-50553150D01*
X53281719Y-49753150D01*
X53257291Y-49627246D01*
X53184600Y-49516588D01*
X53074863Y-49442514D01*
X52945050Y-49416481D01*
X52595050Y-49416481D01*
X52518810Y-49431273D01*
X52445050Y-49416481D01*
X52095050Y-49416481D01*
X52018810Y-49431273D01*
X51945050Y-49416481D01*
X51595050Y-49416481D01*
X51518810Y-49431273D01*
X51445050Y-49416481D01*
X51095050Y-49416481D01*
X51018810Y-49431273D01*
X50945050Y-49416481D01*
X50737499Y-49416481D01*
X51153950Y-49000030D01*
X51258564Y-48843463D01*
X51295300Y-48658780D01*
X51295300Y-47675770D01*
X51770131Y-47200939D01*
X52023740Y-47200939D01*
X52149644Y-47176511D01*
X52231077Y-47123017D01*
X52307947Y-47174906D01*
X52437760Y-47200939D01*
X53037200Y-47200939D01*
X53163104Y-47176511D01*
X53273762Y-47103820D01*
X53347836Y-46994083D01*
X53373869Y-46864270D01*
X53373869Y-46465490D01*
X53349441Y-46339586D01*
X53276750Y-46228928D01*
X53167013Y-46154854D01*
X53147115Y-46150863D01*
X53136411Y-46097047D01*
X53042809Y-45956961D01*
X53042805Y-45956958D01*
X52699700Y-45613852D01*
X52699700Y-45426400D01*
X52699700Y-45227969D01*
X52717900Y-45136472D01*
X52747849Y-45287036D01*
X52761500Y-45307466D01*
X52761500Y-45375600D01*
X52792435Y-45531123D01*
X52880532Y-45662968D01*
X53441619Y-46224055D01*
X53441619Y-47216079D01*
X53472554Y-47371602D01*
X53560651Y-47503447D01*
X53759093Y-47701889D01*
X53746555Y-47732086D01*
X53746287Y-48039127D01*
X53863539Y-48322898D01*
X54080460Y-48540198D01*
X54364026Y-48657945D01*
X54671067Y-48658213D01*
X54954838Y-48540961D01*
X55172138Y-48324040D01*
X55289885Y-48040474D01*
X55290051Y-47849631D01*
X55380460Y-47940198D01*
X55562016Y-48015586D01*
G36*
X60235265Y-50708698D02*
X59776012Y-51167952D01*
X59687915Y-51299797D01*
X59656980Y-51455320D01*
X59656980Y-51856018D01*
X59542535Y-51808497D01*
X59274759Y-51808263D01*
X59067309Y-51893980D01*
X59067309Y-50968040D01*
X59042881Y-50842136D01*
X58970190Y-50731478D01*
X58860453Y-50657404D01*
X58730640Y-50631371D01*
X58180640Y-50631371D01*
X58054736Y-50655799D01*
X57944078Y-50728490D01*
X57870004Y-50838227D01*
X57843971Y-50968040D01*
X57843971Y-51968040D01*
X57868399Y-52093944D01*
X57941090Y-52204602D01*
X58050827Y-52278676D01*
X58180640Y-52304709D01*
X58730640Y-52304709D01*
X58754567Y-52300066D01*
X58735077Y-52347005D01*
X58734843Y-52614781D01*
X58837101Y-52862263D01*
X58903137Y-52928414D01*
X58848224Y-53009767D01*
X58822191Y-53139580D01*
X58822191Y-53349730D01*
X58730640Y-53331371D01*
X58180640Y-53331371D01*
X58054736Y-53355799D01*
X57944078Y-53428490D01*
X57870004Y-53538227D01*
X57843971Y-53668040D01*
X57843971Y-54668040D01*
X57868399Y-54793944D01*
X57941090Y-54904602D01*
X58050827Y-54978676D01*
X58180640Y-55004709D01*
X58730640Y-55004709D01*
X58851129Y-54981331D01*
X58841773Y-55003864D01*
X58841633Y-55163764D01*
X58295578Y-55709820D01*
X57114440Y-55709820D01*
X57114440Y-55575759D01*
X57117099Y-55562500D01*
X57117099Y-54963060D01*
X57097599Y-54862557D01*
X57141276Y-54797853D01*
X57167309Y-54668040D01*
X57167309Y-53668040D01*
X57142881Y-53542136D01*
X57070190Y-53431478D01*
X56960453Y-53357404D01*
X56830640Y-53331371D01*
X56291293Y-53331371D01*
X56257284Y-53160397D01*
X56152670Y-53003830D01*
X56004995Y-52856155D01*
X56112278Y-52749060D01*
X56230025Y-52465494D01*
X56230174Y-52294588D01*
X56280640Y-52304709D01*
X56830640Y-52304709D01*
X56956544Y-52280281D01*
X57067202Y-52207590D01*
X57141276Y-52097853D01*
X57167309Y-51968040D01*
X57167309Y-50968040D01*
X57142881Y-50842136D01*
X57096660Y-50771773D01*
X57096660Y-50526239D01*
X57099319Y-50512980D01*
X57099319Y-49913540D01*
X57074891Y-49787636D01*
X57002200Y-49676978D01*
X56892463Y-49602904D01*
X56762650Y-49576871D01*
X56363870Y-49576871D01*
X56237966Y-49601299D01*
X56127308Y-49673990D01*
X56110033Y-49699581D01*
X56063658Y-49653126D01*
X55816355Y-49550437D01*
X55792061Y-49550415D01*
X56582097Y-48760380D01*
X58729880Y-48760380D01*
X58895122Y-48727511D01*
X58895123Y-48727511D01*
X59035209Y-48633909D01*
X59263280Y-48405838D01*
X59263280Y-49593500D01*
X59294215Y-49749023D01*
X59382312Y-49880868D01*
X60159552Y-50658108D01*
X60235265Y-50708698D01*
X60235265Y-50708698D01*
G37*
X60235265Y-50708698D02*
X59776012Y-51167952D01*
X59687915Y-51299797D01*
X59656980Y-51455320D01*
X59656980Y-51856018D01*
X59542535Y-51808497D01*
X59274759Y-51808263D01*
X59067309Y-51893980D01*
X59067309Y-50968040D01*
X59042881Y-50842136D01*
X58970190Y-50731478D01*
X58860453Y-50657404D01*
X58730640Y-50631371D01*
X58180640Y-50631371D01*
X58054736Y-50655799D01*
X57944078Y-50728490D01*
X57870004Y-50838227D01*
X57843971Y-50968040D01*
X57843971Y-51968040D01*
X57868399Y-52093944D01*
X57941090Y-52204602D01*
X58050827Y-52278676D01*
X58180640Y-52304709D01*
X58730640Y-52304709D01*
X58754567Y-52300066D01*
X58735077Y-52347005D01*
X58734843Y-52614781D01*
X58837101Y-52862263D01*
X58903137Y-52928414D01*
X58848224Y-53009767D01*
X58822191Y-53139580D01*
X58822191Y-53349730D01*
X58730640Y-53331371D01*
X58180640Y-53331371D01*
X58054736Y-53355799D01*
X57944078Y-53428490D01*
X57870004Y-53538227D01*
X57843971Y-53668040D01*
X57843971Y-54668040D01*
X57868399Y-54793944D01*
X57941090Y-54904602D01*
X58050827Y-54978676D01*
X58180640Y-55004709D01*
X58730640Y-55004709D01*
X58851129Y-54981331D01*
X58841773Y-55003864D01*
X58841633Y-55163764D01*
X58295578Y-55709820D01*
X57114440Y-55709820D01*
X57114440Y-55575759D01*
X57117099Y-55562500D01*
X57117099Y-54963060D01*
X57097599Y-54862557D01*
X57141276Y-54797853D01*
X57167309Y-54668040D01*
X57167309Y-53668040D01*
X57142881Y-53542136D01*
X57070190Y-53431478D01*
X56960453Y-53357404D01*
X56830640Y-53331371D01*
X56291293Y-53331371D01*
X56257284Y-53160397D01*
X56152670Y-53003830D01*
X56004995Y-52856155D01*
X56112278Y-52749060D01*
X56230025Y-52465494D01*
X56230174Y-52294588D01*
X56280640Y-52304709D01*
X56830640Y-52304709D01*
X56956544Y-52280281D01*
X57067202Y-52207590D01*
X57141276Y-52097853D01*
X57167309Y-51968040D01*
X57167309Y-50968040D01*
X57142881Y-50842136D01*
X57096660Y-50771773D01*
X57096660Y-50526239D01*
X57099319Y-50512980D01*
X57099319Y-49913540D01*
X57074891Y-49787636D01*
X57002200Y-49676978D01*
X56892463Y-49602904D01*
X56762650Y-49576871D01*
X56363870Y-49576871D01*
X56237966Y-49601299D01*
X56127308Y-49673990D01*
X56110033Y-49699581D01*
X56063658Y-49653126D01*
X55816355Y-49550437D01*
X55792061Y-49550415D01*
X56582097Y-48760380D01*
X58729880Y-48760380D01*
X58895122Y-48727511D01*
X58895123Y-48727511D01*
X59035209Y-48633909D01*
X59263280Y-48405838D01*
X59263280Y-49593500D01*
X59294215Y-49749023D01*
X59382312Y-49880868D01*
X60159552Y-50658108D01*
X60235265Y-50708698D01*
G36*
X61026276Y-47907459D02*
X60969376Y-47918499D01*
X60858718Y-47991190D01*
X60784644Y-48100927D01*
X60758611Y-48230740D01*
X60758611Y-48510740D01*
X60780306Y-48622558D01*
X60758611Y-48730740D01*
X60758611Y-48923887D01*
X60514350Y-48822462D01*
X60421519Y-48822380D01*
X60421519Y-47678663D01*
X60906973Y-47193209D01*
X60924441Y-47193209D01*
X61020519Y-47174098D01*
X60927097Y-47399085D01*
X60926863Y-47666861D01*
X61026276Y-47907459D01*
X61026276Y-47907459D01*
G37*
X61026276Y-47907459D02*
X60969376Y-47918499D01*
X60858718Y-47991190D01*
X60784644Y-48100927D01*
X60758611Y-48230740D01*
X60758611Y-48510740D01*
X60780306Y-48622558D01*
X60758611Y-48730740D01*
X60758611Y-48923887D01*
X60514350Y-48822462D01*
X60421519Y-48822380D01*
X60421519Y-47678663D01*
X60906973Y-47193209D01*
X60924441Y-47193209D01*
X61020519Y-47174098D01*
X60927097Y-47399085D01*
X60926863Y-47666861D01*
X61026276Y-47907459D01*
G36*
X61501007Y-52142976D02*
X61250692Y-52393292D01*
X61162595Y-52525137D01*
X61157165Y-52552431D01*
X61113060Y-52552431D01*
X60987156Y-52576859D01*
X60876498Y-52649550D01*
X60802424Y-52759287D01*
X60784730Y-52847517D01*
X60784730Y-52601891D01*
X60987294Y-52399327D01*
X61075391Y-52267482D01*
X61091321Y-52187391D01*
X61091321Y-52187390D01*
X61270220Y-52008804D01*
X61348524Y-51820224D01*
X61348503Y-51845161D01*
X61450761Y-52092643D01*
X61501007Y-52142976D01*
X61501007Y-52142976D01*
G37*
X61501007Y-52142976D02*
X61250692Y-52393292D01*
X61162595Y-52525137D01*
X61157165Y-52552431D01*
X61113060Y-52552431D01*
X60987156Y-52576859D01*
X60876498Y-52649550D01*
X60802424Y-52759287D01*
X60784730Y-52847517D01*
X60784730Y-52601891D01*
X60987294Y-52399327D01*
X61075391Y-52267482D01*
X61091321Y-52187391D01*
X61091321Y-52187390D01*
X61270220Y-52008804D01*
X61348524Y-51820224D01*
X61348503Y-51845161D01*
X61450761Y-52092643D01*
X61501007Y-52142976D01*
G36*
X61879480Y-38986291D02*
X61596182Y-38986291D01*
X61523983Y-38938049D01*
X61358740Y-38905180D01*
X60946630Y-38905180D01*
X60808378Y-38766686D01*
X60561075Y-38663997D01*
X60293299Y-38663763D01*
X60045817Y-38766021D01*
X59856306Y-38955202D01*
X59753617Y-39202505D01*
X59753452Y-39390674D01*
X59669960Y-39373931D01*
X59069960Y-39373931D01*
X58944056Y-39398359D01*
X58898933Y-39428000D01*
X58801000Y-39428000D01*
X58801000Y-39364159D01*
X59308996Y-38856162D01*
X59309000Y-38856160D01*
X59309000Y-38856159D01*
X59413614Y-38699593D01*
X59450350Y-38514910D01*
X59450351Y-38514910D01*
X59450350Y-38514904D01*
X59450350Y-38393302D01*
X59454312Y-38390700D01*
X59528386Y-38280963D01*
X59554419Y-38151150D01*
X59554419Y-37801150D01*
X59529991Y-37675246D01*
X59514456Y-37651598D01*
X59528386Y-37630963D01*
X59554419Y-37501150D01*
X59554419Y-37151150D01*
X59529991Y-37025246D01*
X59457300Y-36914588D01*
X59347563Y-36840514D01*
X59217750Y-36814481D01*
X58717750Y-36814481D01*
X58591846Y-36838909D01*
X58583433Y-36844435D01*
X58495748Y-36844733D01*
X58457483Y-36818904D01*
X58327670Y-36792871D01*
X57728230Y-36792871D01*
X57602326Y-36817299D01*
X57510968Y-36877311D01*
X57644094Y-36744418D01*
X57746783Y-36497115D01*
X57747017Y-36229339D01*
X57644759Y-35981857D01*
X57455578Y-35792346D01*
X57208275Y-35689657D01*
X56940499Y-35689423D01*
X56693017Y-35791681D01*
X56632492Y-35852100D01*
X56547902Y-35852100D01*
X56528490Y-35822548D01*
X56508795Y-35809254D01*
X56525502Y-35798280D01*
X56599576Y-35688543D01*
X56625609Y-35558730D01*
X56625609Y-35205080D01*
X60227471Y-35205080D01*
X60227471Y-35782070D01*
X60234350Y-35817524D01*
X60234350Y-36330988D01*
X60207114Y-36371337D01*
X60181081Y-36501150D01*
X60181081Y-36851150D01*
X60205509Y-36977054D01*
X60221043Y-37000701D01*
X60207114Y-37021337D01*
X60181081Y-37151150D01*
X60181081Y-37501150D01*
X60205509Y-37627054D01*
X60221043Y-37650701D01*
X60207114Y-37671337D01*
X60181081Y-37801150D01*
X60181081Y-38151150D01*
X60205509Y-38277054D01*
X60278200Y-38387712D01*
X60387937Y-38461786D01*
X60517750Y-38487819D01*
X61017750Y-38487819D01*
X61143654Y-38463391D01*
X61254312Y-38390700D01*
X61259813Y-38382550D01*
X61879480Y-38382550D01*
X61879480Y-38986291D01*
X61879480Y-38986291D01*
G37*
X61879480Y-38986291D02*
X61596182Y-38986291D01*
X61523983Y-38938049D01*
X61358740Y-38905180D01*
X60946630Y-38905180D01*
X60808378Y-38766686D01*
X60561075Y-38663997D01*
X60293299Y-38663763D01*
X60045817Y-38766021D01*
X59856306Y-38955202D01*
X59753617Y-39202505D01*
X59753452Y-39390674D01*
X59669960Y-39373931D01*
X59069960Y-39373931D01*
X58944056Y-39398359D01*
X58898933Y-39428000D01*
X58801000Y-39428000D01*
X58801000Y-39364159D01*
X59308996Y-38856162D01*
X59309000Y-38856160D01*
X59309000Y-38856159D01*
X59413614Y-38699593D01*
X59450350Y-38514910D01*
X59450351Y-38514910D01*
X59450350Y-38514904D01*
X59450350Y-38393302D01*
X59454312Y-38390700D01*
X59528386Y-38280963D01*
X59554419Y-38151150D01*
X59554419Y-37801150D01*
X59529991Y-37675246D01*
X59514456Y-37651598D01*
X59528386Y-37630963D01*
X59554419Y-37501150D01*
X59554419Y-37151150D01*
X59529991Y-37025246D01*
X59457300Y-36914588D01*
X59347563Y-36840514D01*
X59217750Y-36814481D01*
X58717750Y-36814481D01*
X58591846Y-36838909D01*
X58583433Y-36844435D01*
X58495748Y-36844733D01*
X58457483Y-36818904D01*
X58327670Y-36792871D01*
X57728230Y-36792871D01*
X57602326Y-36817299D01*
X57510968Y-36877311D01*
X57644094Y-36744418D01*
X57746783Y-36497115D01*
X57747017Y-36229339D01*
X57644759Y-35981857D01*
X57455578Y-35792346D01*
X57208275Y-35689657D01*
X56940499Y-35689423D01*
X56693017Y-35791681D01*
X56632492Y-35852100D01*
X56547902Y-35852100D01*
X56528490Y-35822548D01*
X56508795Y-35809254D01*
X56525502Y-35798280D01*
X56599576Y-35688543D01*
X56625609Y-35558730D01*
X56625609Y-35205080D01*
X60227471Y-35205080D01*
X60227471Y-35782070D01*
X60234350Y-35817524D01*
X60234350Y-36330988D01*
X60207114Y-36371337D01*
X60181081Y-36501150D01*
X60181081Y-36851150D01*
X60205509Y-36977054D01*
X60221043Y-37000701D01*
X60207114Y-37021337D01*
X60181081Y-37151150D01*
X60181081Y-37501150D01*
X60205509Y-37627054D01*
X60221043Y-37650701D01*
X60207114Y-37671337D01*
X60181081Y-37801150D01*
X60181081Y-38151150D01*
X60205509Y-38277054D01*
X60278200Y-38387712D01*
X60387937Y-38461786D01*
X60517750Y-38487819D01*
X61017750Y-38487819D01*
X61143654Y-38463391D01*
X61254312Y-38390700D01*
X61259813Y-38382550D01*
X61879480Y-38382550D01*
X61879480Y-38986291D01*
G36*
X61879480Y-40486291D02*
X61059720Y-40486291D01*
X60933816Y-40510719D01*
X60902698Y-40531160D01*
X60856525Y-40531160D01*
X60856520Y-40531159D01*
X60691278Y-40564028D01*
X60644794Y-40595087D01*
X60551191Y-40657631D01*
X60551188Y-40657634D01*
X59852031Y-41356791D01*
X59808103Y-41422534D01*
X59808102Y-41422534D01*
X59776577Y-41435561D01*
X59776360Y-41435777D01*
X59776360Y-41326625D01*
X59795864Y-41322841D01*
X59906522Y-41250150D01*
X59980596Y-41140413D01*
X60006629Y-41010600D01*
X60006629Y-40610600D01*
X59982201Y-40484696D01*
X59909510Y-40374038D01*
X59890101Y-40360936D01*
X59906522Y-40350150D01*
X59980596Y-40240413D01*
X60006629Y-40110600D01*
X60006629Y-39869014D01*
X60044822Y-39907274D01*
X60292125Y-40009963D01*
X60559901Y-40010197D01*
X60807383Y-39907939D01*
X60853429Y-39861972D01*
X60929907Y-39913596D01*
X61059720Y-39939629D01*
X61879480Y-39939629D01*
X61879480Y-40486291D01*
X61879480Y-40486291D01*
G37*
X61879480Y-40486291D02*
X61059720Y-40486291D01*
X60933816Y-40510719D01*
X60902698Y-40531160D01*
X60856525Y-40531160D01*
X60856520Y-40531159D01*
X60691278Y-40564028D01*
X60644794Y-40595087D01*
X60551191Y-40657631D01*
X60551188Y-40657634D01*
X59852031Y-41356791D01*
X59808103Y-41422534D01*
X59808102Y-41422534D01*
X59776577Y-41435561D01*
X59776360Y-41435777D01*
X59776360Y-41326625D01*
X59795864Y-41322841D01*
X59906522Y-41250150D01*
X59980596Y-41140413D01*
X60006629Y-41010600D01*
X60006629Y-40610600D01*
X59982201Y-40484696D01*
X59909510Y-40374038D01*
X59890101Y-40360936D01*
X59906522Y-40350150D01*
X59980596Y-40240413D01*
X60006629Y-40110600D01*
X60006629Y-39869014D01*
X60044822Y-39907274D01*
X60292125Y-40009963D01*
X60559901Y-40010197D01*
X60807383Y-39907939D01*
X60853429Y-39861972D01*
X60929907Y-39913596D01*
X61059720Y-39939629D01*
X61879480Y-39939629D01*
X61879480Y-40486291D01*
G36*
X61879480Y-49394071D02*
X61095280Y-49394071D01*
X61053056Y-49402263D01*
X61053092Y-49362144D01*
X61042641Y-49336852D01*
X61095280Y-49347409D01*
X61879480Y-49347409D01*
X61879480Y-49394071D01*
X61879480Y-49394071D01*
G37*
X61879480Y-49394071D02*
X61095280Y-49394071D01*
X61053056Y-49402263D01*
X61053092Y-49362144D01*
X61042641Y-49336852D01*
X61095280Y-49347409D01*
X61879480Y-49347409D01*
X61879480Y-49394071D01*
G36*
X61879480Y-51042336D02*
X61640937Y-51140901D01*
X61451426Y-51330082D01*
X61373121Y-51518661D01*
X61373143Y-51493725D01*
X61270885Y-51246243D01*
X61081704Y-51056732D01*
X61049907Y-51043528D01*
X61246027Y-50847409D01*
X61879480Y-50847409D01*
X61879480Y-51042336D01*
X61879480Y-51042336D01*
G37*
X61879480Y-51042336D02*
X61640937Y-51140901D01*
X61451426Y-51330082D01*
X61373121Y-51518661D01*
X61373143Y-51493725D01*
X61270885Y-51246243D01*
X61081704Y-51056732D01*
X61049907Y-51043528D01*
X61246027Y-50847409D01*
X61879480Y-50847409D01*
X61879480Y-51042336D01*
G36*
X61879480Y-53552431D02*
X61113060Y-53552431D01*
X60987156Y-53576859D01*
X60876498Y-53649550D01*
X60802424Y-53759287D01*
X60796269Y-53789973D01*
X60784730Y-53778434D01*
X60784730Y-53212079D01*
X60800819Y-53295004D01*
X60873510Y-53405662D01*
X60983247Y-53479736D01*
X61113060Y-53505769D01*
X61879480Y-53505769D01*
X61879480Y-53552431D01*
X61879480Y-53552431D01*
G37*
X61879480Y-53552431D02*
X61113060Y-53552431D01*
X60987156Y-53576859D01*
X60876498Y-53649550D01*
X60802424Y-53759287D01*
X60796269Y-53789973D01*
X60784730Y-53778434D01*
X60784730Y-53212079D01*
X60800819Y-53295004D01*
X60873510Y-53405662D01*
X60983247Y-53479736D01*
X61113060Y-53505769D01*
X61879480Y-53505769D01*
X61879480Y-53552431D01*
G36*
X65039224Y-39382798D02*
X65039170Y-39444489D01*
X65003300Y-39480360D01*
X64434720Y-39480360D01*
X64404903Y-39486291D01*
X64038480Y-39486291D01*
X64038480Y-38232080D01*
X63185736Y-38232080D01*
X63388588Y-38029228D01*
X63476685Y-37897383D01*
X63507620Y-37741860D01*
X63507620Y-36830000D01*
X64558742Y-36830000D01*
X64529438Y-36849250D01*
X64455364Y-36958987D01*
X64429331Y-37088800D01*
X64429331Y-37688800D01*
X64453759Y-37814704D01*
X64526450Y-37925362D01*
X64559600Y-37947738D01*
X64559600Y-38133309D01*
X64546697Y-38138641D01*
X64357186Y-38327822D01*
X64254497Y-38575125D01*
X64254263Y-38842901D01*
X64356521Y-39090383D01*
X64545702Y-39279894D01*
X64793005Y-39382583D01*
X65039224Y-39382798D01*
X65039224Y-39382798D01*
G37*
X65039224Y-39382798D02*
X65039170Y-39444489D01*
X65003300Y-39480360D01*
X64434720Y-39480360D01*
X64404903Y-39486291D01*
X64038480Y-39486291D01*
X64038480Y-38232080D01*
X63185736Y-38232080D01*
X63388588Y-38029228D01*
X63476685Y-37897383D01*
X63507620Y-37741860D01*
X63507620Y-36830000D01*
X64558742Y-36830000D01*
X64529438Y-36849250D01*
X64455364Y-36958987D01*
X64429331Y-37088800D01*
X64429331Y-37688800D01*
X64453759Y-37814704D01*
X64526450Y-37925362D01*
X64559600Y-37947738D01*
X64559600Y-38133309D01*
X64546697Y-38138641D01*
X64357186Y-38327822D01*
X64254497Y-38575125D01*
X64254263Y-38842901D01*
X64356521Y-39090383D01*
X64545702Y-39279894D01*
X64793005Y-39382583D01*
X65039224Y-39382798D01*
G36*
X65813352Y-56444680D02*
X59069402Y-56444680D01*
X59595988Y-55918093D01*
X59754546Y-55918232D01*
X60034714Y-55802468D01*
X60249255Y-55588302D01*
X60365507Y-55308336D01*
X60365768Y-55008945D01*
X60673292Y-55316469D01*
X60805137Y-55404565D01*
X60805138Y-55404566D01*
X60899771Y-55423388D01*
X60899771Y-55423389D01*
X60983247Y-55479736D01*
X61113060Y-55505769D01*
X61879480Y-55505769D01*
X61879480Y-56266080D01*
X64165480Y-56266080D01*
X64165480Y-55505769D01*
X64458243Y-55505769D01*
X64488060Y-55511700D01*
X64573160Y-55511700D01*
X64876610Y-55815150D01*
X65033177Y-55919764D01*
X65217860Y-55956500D01*
X65800931Y-55956500D01*
X65800931Y-56380660D01*
X65813352Y-56444680D01*
X65813352Y-56444680D01*
G37*
X65813352Y-56444680D02*
X59069402Y-56444680D01*
X59595988Y-55918093D01*
X59754546Y-55918232D01*
X60034714Y-55802468D01*
X60249255Y-55588302D01*
X60365507Y-55308336D01*
X60365768Y-55008945D01*
X60673292Y-55316469D01*
X60805137Y-55404565D01*
X60805138Y-55404566D01*
X60899771Y-55423388D01*
X60899771Y-55423389D01*
X60983247Y-55479736D01*
X61113060Y-55505769D01*
X61879480Y-55505769D01*
X61879480Y-56266080D01*
X64165480Y-56266080D01*
X64165480Y-55505769D01*
X64458243Y-55505769D01*
X64488060Y-55511700D01*
X64573160Y-55511700D01*
X64876610Y-55815150D01*
X65033177Y-55919764D01*
X65217860Y-55956500D01*
X65800931Y-55956500D01*
X65800931Y-56380660D01*
X65813352Y-56444680D01*
G36*
X65940102Y-46355000D02*
X65859877Y-46548205D01*
X65859643Y-46815981D01*
X65873465Y-46849434D01*
X65827378Y-46879710D01*
X65753304Y-46989447D01*
X65727271Y-47119260D01*
X65727271Y-47719260D01*
X65747728Y-47824699D01*
X65662266Y-47860012D01*
X65447725Y-48074178D01*
X65331473Y-48354144D01*
X65331443Y-48388140D01*
X64470280Y-48388140D01*
X64440463Y-48394071D01*
X64045280Y-48394071D01*
X64038480Y-48395390D01*
X64038480Y-47122080D01*
X65054480Y-47122080D01*
X65054480Y-46349069D01*
X65436143Y-46349069D01*
X65465960Y-46355000D01*
X65940102Y-46355000D01*
X65940102Y-46355000D01*
G37*
X65940102Y-46355000D02*
X65859877Y-46548205D01*
X65859643Y-46815981D01*
X65873465Y-46849434D01*
X65827378Y-46879710D01*
X65753304Y-46989447D01*
X65727271Y-47119260D01*
X65727271Y-47719260D01*
X65747728Y-47824699D01*
X65662266Y-47860012D01*
X65447725Y-48074178D01*
X65331473Y-48354144D01*
X65331443Y-48388140D01*
X64470280Y-48388140D01*
X64440463Y-48394071D01*
X64045280Y-48394071D01*
X64038480Y-48395390D01*
X64038480Y-47122080D01*
X65054480Y-47122080D01*
X65054480Y-46349069D01*
X65436143Y-46349069D01*
X65465960Y-46355000D01*
X65940102Y-46355000D01*
G36*
X67071748Y-42712128D02*
X67071589Y-42894162D01*
X66916136Y-42829613D01*
X66612994Y-42829348D01*
X66332826Y-42945112D01*
X66118285Y-43159278D01*
X66002033Y-43439244D01*
X66001768Y-43742386D01*
X66043142Y-43842517D01*
X65995860Y-43889800D01*
X65465960Y-43889800D01*
X65436143Y-43895731D01*
X65054480Y-43895731D01*
X65054480Y-42677080D01*
X64038480Y-42677080D01*
X64038480Y-41939629D01*
X64404903Y-41939629D01*
X64434720Y-41945560D01*
X64964620Y-41945560D01*
X65166170Y-42147110D01*
X65322737Y-42251724D01*
X65507420Y-42288460D01*
X66648080Y-42288460D01*
X67071748Y-42712128D01*
X67071748Y-42712128D01*
G37*
X67071748Y-42712128D02*
X67071589Y-42894162D01*
X66916136Y-42829613D01*
X66612994Y-42829348D01*
X66332826Y-42945112D01*
X66118285Y-43159278D01*
X66002033Y-43439244D01*
X66001768Y-43742386D01*
X66043142Y-43842517D01*
X65995860Y-43889800D01*
X65465960Y-43889800D01*
X65436143Y-43895731D01*
X65054480Y-43895731D01*
X65054480Y-42677080D01*
X64038480Y-42677080D01*
X64038480Y-41939629D01*
X64404903Y-41939629D01*
X64434720Y-41945560D01*
X64964620Y-41945560D01*
X65166170Y-42147110D01*
X65322737Y-42251724D01*
X65507420Y-42288460D01*
X66648080Y-42288460D01*
X67071748Y-42712128D01*
G36*
X67495934Y-52793798D02*
X67302561Y-52986835D01*
X67175904Y-53291858D01*
X67175681Y-53546500D01*
X66333804Y-53546500D01*
X66425947Y-53324596D01*
X66426212Y-53021454D01*
X66310448Y-52741286D01*
X66096282Y-52526745D01*
X65816316Y-52410493D01*
X65513174Y-52410228D01*
X65233006Y-52525992D01*
X65018465Y-52740158D01*
X64902213Y-53020124D01*
X64902189Y-53046500D01*
X64488060Y-53046500D01*
X64458243Y-53052431D01*
X64165480Y-53052431D01*
X64165480Y-51821080D01*
X62694725Y-51821080D01*
X62694836Y-51694080D01*
X64038480Y-51694080D01*
X64038480Y-50846045D01*
X64045280Y-50847409D01*
X64440463Y-50847409D01*
X64470280Y-50853340D01*
X65000180Y-50853340D01*
X65254810Y-51107970D01*
X65411377Y-51212584D01*
X65596060Y-51249320D01*
X66280044Y-51249320D01*
X66246478Y-51271370D01*
X66172404Y-51381107D01*
X66146371Y-51510920D01*
X66146371Y-52110920D01*
X66170799Y-52236824D01*
X66243490Y-52347482D01*
X66353227Y-52421556D01*
X66483040Y-52447589D01*
X66883040Y-52447589D01*
X67008900Y-52423169D01*
X67041301Y-52501583D01*
X67230482Y-52691094D01*
X67477785Y-52793783D01*
X67495934Y-52793798D01*
X67495934Y-52793798D01*
G37*
X67495934Y-52793798D02*
X67302561Y-52986835D01*
X67175904Y-53291858D01*
X67175681Y-53546500D01*
X66333804Y-53546500D01*
X66425947Y-53324596D01*
X66426212Y-53021454D01*
X66310448Y-52741286D01*
X66096282Y-52526745D01*
X65816316Y-52410493D01*
X65513174Y-52410228D01*
X65233006Y-52525992D01*
X65018465Y-52740158D01*
X64902213Y-53020124D01*
X64902189Y-53046500D01*
X64488060Y-53046500D01*
X64458243Y-53052431D01*
X64165480Y-53052431D01*
X64165480Y-51821080D01*
X62694725Y-51821080D01*
X62694836Y-51694080D01*
X64038480Y-51694080D01*
X64038480Y-50846045D01*
X64045280Y-50847409D01*
X64440463Y-50847409D01*
X64470280Y-50853340D01*
X65000180Y-50853340D01*
X65254810Y-51107970D01*
X65411377Y-51212584D01*
X65596060Y-51249320D01*
X66280044Y-51249320D01*
X66246478Y-51271370D01*
X66172404Y-51381107D01*
X66146371Y-51510920D01*
X66146371Y-52110920D01*
X66170799Y-52236824D01*
X66243490Y-52347482D01*
X66353227Y-52421556D01*
X66483040Y-52447589D01*
X66883040Y-52447589D01*
X67008900Y-52423169D01*
X67041301Y-52501583D01*
X67230482Y-52691094D01*
X67477785Y-52793783D01*
X67495934Y-52793798D01*
G36*
X68604720Y-40888721D02*
X68372705Y-40656301D01*
X68067682Y-40529644D01*
X67753990Y-40529370D01*
X67346330Y-40121710D01*
X67189763Y-40017096D01*
X67005080Y-39980360D01*
X66263296Y-39980360D01*
X66446855Y-39797122D01*
X66563107Y-39517156D01*
X66563372Y-39214014D01*
X66447608Y-38933846D01*
X66385440Y-38871569D01*
X66385440Y-36884871D01*
X66612093Y-37224081D01*
X67048832Y-37515901D01*
X67564000Y-37618374D01*
X68079168Y-37515901D01*
X68515907Y-37224081D01*
X68604720Y-37091163D01*
X68604720Y-38175357D01*
X68559548Y-38943280D01*
X68604720Y-38943280D01*
X68604720Y-40888721D01*
X68604720Y-40888721D01*
G37*
X68604720Y-40888721D02*
X68372705Y-40656301D01*
X68067682Y-40529644D01*
X67753990Y-40529370D01*
X67346330Y-40121710D01*
X67189763Y-40017096D01*
X67005080Y-39980360D01*
X66263296Y-39980360D01*
X66446855Y-39797122D01*
X66563107Y-39517156D01*
X66563372Y-39214014D01*
X66447608Y-38933846D01*
X66385440Y-38871569D01*
X66385440Y-36884871D01*
X66612093Y-37224081D01*
X67048832Y-37515901D01*
X67564000Y-37618374D01*
X68079168Y-37515901D01*
X68515907Y-37224081D01*
X68604720Y-37091163D01*
X68604720Y-38175357D01*
X68559548Y-38943280D01*
X68604720Y-38943280D01*
X68604720Y-40888721D01*
M02*
