G04 #@! TF.FileFunction,Copper,L2,Bot,Signal*
%FSLAX46Y46*%
G04 Gerber Fmt 4.6, Leading zero omitted, Abs format (unit mm)*
G04 Created by KiCad (PCBNEW (2014-12-04 BZR 5312)-product) date 1/18/2015 1:19:07 PM*
%MOMM*%
G01*
G04 APERTURE LIST*
%ADD10C,0.100000*%
%ADD11C,0.400000*%
%ADD12C,0.883200*%
%ADD13C,1.000000*%
%ADD14R,2.032000X2.032000*%
%ADD15O,2.032000X2.032000*%
%ADD16C,1.117600*%
%ADD17C,0.685800*%
%ADD18C,0.863600*%
%ADD19C,0.203200*%
%ADD20C,0.152400*%
%ADD21C,0.508000*%
%ADD22C,0.304800*%
G04 APERTURE END LIST*
D10*
D11*
X62528060Y-54789100D03*
X62528060Y-53289100D03*
X63528060Y-54789100D03*
X63528060Y-53289100D03*
X63008060Y-54039100D03*
X62474720Y-41222960D03*
X62474720Y-39722960D03*
X63474720Y-41222960D03*
X63474720Y-39722960D03*
X62954720Y-40472960D03*
X62510280Y-50130740D03*
X62510280Y-48630740D03*
X63510280Y-50130740D03*
X63510280Y-48630740D03*
X62990280Y-49380740D03*
X63505960Y-45632400D03*
X63505960Y-44132400D03*
X64505960Y-45632400D03*
X64505960Y-44132400D03*
X63985960Y-44882400D03*
D12*
X54518220Y-47886280D03*
X54518220Y-46586280D03*
X55818220Y-47286280D03*
X55818220Y-45886280D03*
X49117900Y-44273200D03*
X49117900Y-43123200D03*
X49103280Y-45412660D03*
X57264300Y-38991540D03*
X59814460Y-44978320D03*
X59681330Y-43828970D03*
X49117900Y-41923200D03*
D13*
X68005960Y-53457720D03*
X68005960Y-54957720D03*
X67901820Y-41359700D03*
X67901820Y-42859700D03*
X67950080Y-45466880D03*
X67950080Y-46966880D03*
X67950080Y-49266720D03*
X67950080Y-50766720D03*
D14*
X67564000Y-38785800D03*
D15*
X67564000Y-36245800D03*
D12*
X55458360Y-52311300D03*
X58574940Y-49336960D03*
X47815500Y-46741080D03*
D16*
X47934880Y-35791140D03*
X49204880Y-35791140D03*
X50474880Y-35791140D03*
X51744880Y-35791140D03*
X53014880Y-35791140D03*
X54284880Y-35791140D03*
D17*
X60520580Y-55425340D03*
X65308480Y-42677080D03*
X58036460Y-35570160D03*
X53481700Y-42062400D03*
X52717900Y-42823200D03*
X53456300Y-43561000D03*
X51983100Y-43561000D03*
X51983100Y-42087800D03*
X53619400Y-48928020D03*
X48214280Y-48470820D03*
X50546000Y-37693600D03*
X61367389Y-51119984D03*
D18*
X57480200Y-53014880D03*
D17*
X60434220Y-40347900D03*
X47986850Y-51829550D03*
X60601948Y-47731749D03*
X47668180Y-54422040D03*
X64000380Y-38445440D03*
X64549020Y-47508160D03*
X64203580Y-51711860D03*
X52367180Y-55321200D03*
X57073800Y-36362640D03*
D18*
X59603640Y-55156100D03*
X65664080Y-53172360D03*
X66093340Y-48506380D03*
X65801240Y-39364920D03*
X66763900Y-43591480D03*
D17*
X55681880Y-50223420D03*
X58732420Y-47365920D03*
X48585120Y-54411880D03*
X49509680Y-49923700D03*
X60426600Y-39336980D03*
X62019180Y-43139360D03*
X61600080Y-47533560D03*
X62021720Y-51711860D03*
X59408060Y-52481480D03*
X54782720Y-40083740D03*
X56531960Y-43151690D03*
X58991500Y-46527720D03*
X56654700Y-37117020D03*
X56217820Y-39019480D03*
X55708466Y-37135865D03*
X55272940Y-39006780D03*
X57658000Y-47668180D03*
X60699926Y-51627026D03*
X61267340Y-46443910D03*
X60379875Y-49495445D03*
X60157360Y-42006520D03*
X61208571Y-45130720D03*
X64927480Y-38709600D03*
X65846960Y-41120060D03*
X67251580Y-56095900D03*
X66075560Y-54734460D03*
X67612260Y-52120800D03*
X65984120Y-50022760D03*
X66532860Y-46682680D03*
X66842640Y-45387260D03*
X55440560Y-40625515D03*
X49890680Y-54356000D03*
D19*
X52717900Y-42823200D02*
X53478700Y-42062400D01*
X53478700Y-42062400D02*
X53481700Y-42062400D01*
X52718500Y-42823200D02*
X53456300Y-43561000D01*
X52717900Y-42823200D02*
X52718500Y-42823200D01*
X52717900Y-42826200D02*
X51983100Y-43561000D01*
X52717900Y-42823200D02*
X52717900Y-42826200D01*
X52717900Y-42822600D02*
X51983100Y-42087800D01*
X52717900Y-42823200D02*
X52717900Y-42822600D01*
D20*
X57264300Y-36553140D02*
X57073800Y-36362640D01*
X57264300Y-38991540D02*
X57264300Y-36553140D01*
D21*
X65664080Y-53172360D02*
X65196720Y-53639720D01*
X59916060Y-56177180D02*
X59603640Y-55864760D01*
X59603640Y-55864760D02*
X59603640Y-55156100D01*
X65196720Y-53639720D02*
X65196720Y-55872380D01*
X65196720Y-55872380D02*
X64891920Y-56177180D01*
X64891920Y-56177180D02*
X59916060Y-56177180D01*
X66093340Y-48506380D02*
X66067940Y-48531780D01*
X66067940Y-48531780D02*
X65717420Y-48531780D01*
X65717420Y-48531780D02*
X65133220Y-49115980D01*
X65133220Y-49115980D02*
X65133220Y-52641500D01*
X65133220Y-52641500D02*
X65664080Y-53172360D01*
X66763900Y-43591480D02*
X65638680Y-44716700D01*
X65638680Y-44716700D02*
X65638680Y-47441063D01*
X65638680Y-47441063D02*
X66093340Y-47895723D01*
X66093340Y-47895723D02*
X66093340Y-48506380D01*
X66708020Y-43535600D02*
X66763900Y-43591480D01*
X66708020Y-40789860D02*
X66708020Y-43535600D01*
X65801240Y-39883080D02*
X66708020Y-40789860D01*
X65801240Y-39364920D02*
X65801240Y-39883080D01*
D22*
X48585120Y-54411880D02*
X48816260Y-54180740D01*
X48816260Y-54180740D02*
X48816260Y-50617120D01*
X48816260Y-50617120D02*
X49509680Y-49923700D01*
D20*
X58732420Y-47365920D02*
X58389521Y-47023021D01*
X58389521Y-47023021D02*
X57457337Y-47023021D01*
X57457337Y-47023021D02*
X55681880Y-48798478D01*
X55681880Y-48798478D02*
X55681880Y-50223420D01*
D19*
X61302900Y-41938147D02*
X61302900Y-40213280D01*
X61302900Y-40213280D02*
X60426600Y-39336980D01*
X62019180Y-43139360D02*
X62019180Y-42654427D01*
X62019180Y-42654427D02*
X61302900Y-41938147D01*
X62481460Y-43601640D02*
X62481460Y-46652180D01*
X62481460Y-46652180D02*
X61600080Y-47533560D01*
X62019180Y-43139360D02*
X62481460Y-43601640D01*
X61516260Y-50355500D02*
X61516260Y-47617380D01*
X61516260Y-47617380D02*
X61600080Y-47533560D01*
X62021720Y-50860960D02*
X61516260Y-50355500D01*
X62021720Y-51226927D02*
X62021720Y-50860960D01*
X62021720Y-51711860D02*
X62021720Y-51226927D01*
D20*
X61386720Y-51851560D02*
X61882020Y-51851560D01*
X61882020Y-51851560D02*
X62021720Y-51711860D01*
X60756800Y-52481480D02*
X61386720Y-51851560D01*
X59408060Y-52481480D02*
X60756800Y-52481480D01*
D19*
X60083701Y-39679879D02*
X60426600Y-39336980D01*
X60022739Y-39740841D02*
X60083701Y-39679879D01*
X55125619Y-39740841D02*
X60022739Y-39740841D01*
X54782720Y-40083740D02*
X55125619Y-39740841D01*
D20*
X56874859Y-43494589D02*
X58211349Y-43494589D01*
X56531960Y-43151690D02*
X56874859Y-43494589D01*
X58991500Y-44274740D02*
X58991500Y-46527720D01*
X58211349Y-43494589D02*
X58991500Y-44274740D01*
X56311801Y-37459919D02*
X56654700Y-37117020D01*
X56217820Y-37553900D02*
X56311801Y-37459919D01*
X56217820Y-39019480D02*
X56217820Y-37553900D01*
X55708466Y-37620798D02*
X55708466Y-37135865D01*
X55708466Y-38571254D02*
X55708466Y-37620798D01*
X55272940Y-39006780D02*
X55708466Y-38571254D01*
X60379875Y-51306975D02*
X60699926Y-51627026D01*
X60379875Y-49495445D02*
X60379875Y-51306975D01*
X61267340Y-46443910D02*
X61267340Y-45189489D01*
X61208571Y-45130720D02*
X61267340Y-45189489D01*
D19*
X60157360Y-42006520D02*
X60157360Y-42635137D01*
X60157360Y-42635137D02*
X60478531Y-42956308D01*
X60478531Y-42956308D02*
X60478531Y-44314249D01*
X60478531Y-44314249D02*
X60256059Y-44536721D01*
X60256059Y-44536721D02*
X59814460Y-44978320D01*
D20*
X61056171Y-44978320D02*
X61208571Y-45130720D01*
X59814460Y-44978320D02*
X61056171Y-44978320D01*
D19*
X58142933Y-47668180D02*
X57658000Y-47668180D01*
X58447733Y-47972980D02*
X58142933Y-47668180D01*
X59077860Y-47972980D02*
X58447733Y-47972980D01*
X59814460Y-47236380D02*
X59077860Y-47972980D01*
X59814460Y-44978320D02*
X59814460Y-47236380D01*
D20*
X64927480Y-39194533D02*
X64927480Y-38709600D01*
X64927480Y-40200580D02*
X64927480Y-39194533D01*
X65846960Y-41120060D02*
X64927480Y-40200580D01*
X67251580Y-55910480D02*
X67251580Y-56095900D01*
X66075560Y-54734460D02*
X67251580Y-55910480D01*
X67612260Y-51650900D02*
X67612260Y-52120800D01*
X65984120Y-50022760D02*
X67612260Y-51650900D01*
X66842640Y-45387260D02*
X66842640Y-46372900D01*
X66842640Y-46372900D02*
X66532860Y-46682680D01*
X50233579Y-54013101D02*
X50233579Y-46677581D01*
X49890680Y-54356000D02*
X50233579Y-54013101D01*
X50233579Y-46677581D02*
X51368960Y-45542200D01*
X51368960Y-45542200D02*
X54256940Y-45542200D01*
X55440560Y-44358580D02*
X55440560Y-40625515D01*
X54256940Y-45542200D02*
X55440560Y-44358580D01*
G36*
X62049660Y-46473322D02*
X61937287Y-46585695D01*
X61940323Y-46578385D01*
X61940557Y-46310609D01*
X61838299Y-46063127D01*
X61673740Y-45898280D01*
X61673740Y-45617439D01*
X61778865Y-45512498D01*
X61881554Y-45265195D01*
X61881788Y-44997419D01*
X61779530Y-44749937D01*
X61590349Y-44560426D01*
X61343046Y-44457737D01*
X61075270Y-44457503D01*
X60827788Y-44559761D01*
X60815896Y-44571631D01*
X60877462Y-44479492D01*
X60877462Y-44479491D01*
X60910331Y-44314249D01*
X60910331Y-42956308D01*
X60877462Y-42791065D01*
X60783860Y-42650979D01*
X60783856Y-42650976D01*
X60624326Y-42491445D01*
X60727654Y-42388298D01*
X60830343Y-42140995D01*
X60830577Y-41873219D01*
X60728319Y-41625737D01*
X60539138Y-41436226D01*
X60291835Y-41333537D01*
X60024059Y-41333303D01*
X59776577Y-41435561D01*
X59587066Y-41624742D01*
X59484377Y-41872045D01*
X59484143Y-42139821D01*
X59586401Y-42387303D01*
X59725560Y-42526704D01*
X59725560Y-42635137D01*
X59758429Y-42800380D01*
X59852031Y-42940466D01*
X60046731Y-43135165D01*
X60046731Y-43145005D01*
X59835524Y-43057305D01*
X59528483Y-43057037D01*
X59244712Y-43174289D01*
X59027412Y-43391210D01*
X58926273Y-43634777D01*
X58498717Y-43207221D01*
X58366872Y-43119124D01*
X58211349Y-43088189D01*
X57205116Y-43088189D01*
X57205177Y-43018389D01*
X57102919Y-42770907D01*
X56913738Y-42581396D01*
X56666435Y-42478707D01*
X56398659Y-42478473D01*
X56151177Y-42580731D01*
X55961666Y-42769912D01*
X55858977Y-43017215D01*
X55858743Y-43284991D01*
X55961001Y-43532473D01*
X56150182Y-43721984D01*
X56397485Y-43824673D01*
X56651751Y-43824895D01*
X56719336Y-43870054D01*
X56874859Y-43900989D01*
X58043013Y-43900989D01*
X58585100Y-44443076D01*
X58585100Y-45982333D01*
X58421206Y-46145942D01*
X58318517Y-46393245D01*
X58318321Y-46616621D01*
X57457337Y-46616621D01*
X57301814Y-46647556D01*
X57169969Y-46735653D01*
X56589993Y-47315628D01*
X56590153Y-47133433D01*
X56472901Y-46849662D01*
X56255980Y-46632362D01*
X56145079Y-46586312D01*
X56254838Y-46540961D01*
X56472138Y-46324040D01*
X56589885Y-46040474D01*
X56590153Y-45733433D01*
X56472901Y-45449662D01*
X56255980Y-45232362D01*
X55972414Y-45114615D01*
X55665373Y-45114347D01*
X55381602Y-45231599D01*
X55164302Y-45448520D01*
X55046555Y-45732086D01*
X55046301Y-46022841D01*
X54955980Y-45932362D01*
X54672414Y-45814615D01*
X54559359Y-45814516D01*
X55727928Y-44645949D01*
X55727928Y-44645948D01*
X55816025Y-44514103D01*
X55846959Y-44358580D01*
X55846960Y-44358580D01*
X55846960Y-41170901D01*
X56010854Y-41007293D01*
X56113543Y-40759990D01*
X56113777Y-40492214D01*
X56011519Y-40244732D01*
X55939553Y-40172641D01*
X60022739Y-40172641D01*
X60187981Y-40139772D01*
X60187982Y-40139772D01*
X60328068Y-40046170D01*
X60364212Y-40010025D01*
X60489097Y-40010135D01*
X60871100Y-40392137D01*
X60871100Y-41938147D01*
X60903969Y-42103390D01*
X60997571Y-42243476D01*
X61480308Y-42726213D01*
X61448886Y-42757582D01*
X61346197Y-43004885D01*
X61345963Y-43272661D01*
X61448221Y-43520143D01*
X61637402Y-43709654D01*
X61884705Y-43812343D01*
X62049660Y-43812487D01*
X62049660Y-46473322D01*
X62049660Y-46473322D01*
G37*
X62049660Y-46473322D02*
X61937287Y-46585695D01*
X61940323Y-46578385D01*
X61940557Y-46310609D01*
X61838299Y-46063127D01*
X61673740Y-45898280D01*
X61673740Y-45617439D01*
X61778865Y-45512498D01*
X61881554Y-45265195D01*
X61881788Y-44997419D01*
X61779530Y-44749937D01*
X61590349Y-44560426D01*
X61343046Y-44457737D01*
X61075270Y-44457503D01*
X60827788Y-44559761D01*
X60815896Y-44571631D01*
X60877462Y-44479492D01*
X60877462Y-44479491D01*
X60910331Y-44314249D01*
X60910331Y-42956308D01*
X60877462Y-42791065D01*
X60783860Y-42650979D01*
X60783856Y-42650976D01*
X60624326Y-42491445D01*
X60727654Y-42388298D01*
X60830343Y-42140995D01*
X60830577Y-41873219D01*
X60728319Y-41625737D01*
X60539138Y-41436226D01*
X60291835Y-41333537D01*
X60024059Y-41333303D01*
X59776577Y-41435561D01*
X59587066Y-41624742D01*
X59484377Y-41872045D01*
X59484143Y-42139821D01*
X59586401Y-42387303D01*
X59725560Y-42526704D01*
X59725560Y-42635137D01*
X59758429Y-42800380D01*
X59852031Y-42940466D01*
X60046731Y-43135165D01*
X60046731Y-43145005D01*
X59835524Y-43057305D01*
X59528483Y-43057037D01*
X59244712Y-43174289D01*
X59027412Y-43391210D01*
X58926273Y-43634777D01*
X58498717Y-43207221D01*
X58366872Y-43119124D01*
X58211349Y-43088189D01*
X57205116Y-43088189D01*
X57205177Y-43018389D01*
X57102919Y-42770907D01*
X56913738Y-42581396D01*
X56666435Y-42478707D01*
X56398659Y-42478473D01*
X56151177Y-42580731D01*
X55961666Y-42769912D01*
X55858977Y-43017215D01*
X55858743Y-43284991D01*
X55961001Y-43532473D01*
X56150182Y-43721984D01*
X56397485Y-43824673D01*
X56651751Y-43824895D01*
X56719336Y-43870054D01*
X56874859Y-43900989D01*
X58043013Y-43900989D01*
X58585100Y-44443076D01*
X58585100Y-45982333D01*
X58421206Y-46145942D01*
X58318517Y-46393245D01*
X58318321Y-46616621D01*
X57457337Y-46616621D01*
X57301814Y-46647556D01*
X57169969Y-46735653D01*
X56589993Y-47315628D01*
X56590153Y-47133433D01*
X56472901Y-46849662D01*
X56255980Y-46632362D01*
X56145079Y-46586312D01*
X56254838Y-46540961D01*
X56472138Y-46324040D01*
X56589885Y-46040474D01*
X56590153Y-45733433D01*
X56472901Y-45449662D01*
X56255980Y-45232362D01*
X55972414Y-45114615D01*
X55665373Y-45114347D01*
X55381602Y-45231599D01*
X55164302Y-45448520D01*
X55046555Y-45732086D01*
X55046301Y-46022841D01*
X54955980Y-45932362D01*
X54672414Y-45814615D01*
X54559359Y-45814516D01*
X55727928Y-44645949D01*
X55727928Y-44645948D01*
X55816025Y-44514103D01*
X55846959Y-44358580D01*
X55846960Y-44358580D01*
X55846960Y-41170901D01*
X56010854Y-41007293D01*
X56113543Y-40759990D01*
X56113777Y-40492214D01*
X56011519Y-40244732D01*
X55939553Y-40172641D01*
X60022739Y-40172641D01*
X60187981Y-40139772D01*
X60187982Y-40139772D01*
X60328068Y-40046170D01*
X60364212Y-40010025D01*
X60489097Y-40010135D01*
X60871100Y-40392137D01*
X60871100Y-41938147D01*
X60903969Y-42103390D01*
X60997571Y-42243476D01*
X61480308Y-42726213D01*
X61448886Y-42757582D01*
X61346197Y-43004885D01*
X61345963Y-43272661D01*
X61448221Y-43520143D01*
X61637402Y-43709654D01*
X61884705Y-43812343D01*
X62049660Y-43812487D01*
X62049660Y-46473322D01*
G36*
X68604720Y-40888721D02*
X68372705Y-40656301D01*
X68067682Y-40529644D01*
X67737407Y-40529356D01*
X67432164Y-40655480D01*
X67292220Y-40795179D01*
X67292220Y-40789865D01*
X67292220Y-40789860D01*
X67292221Y-40789860D01*
X67247751Y-40566297D01*
X67247750Y-40566296D01*
X67205729Y-40503407D01*
X67121112Y-40376769D01*
X67121112Y-40376768D01*
X67121108Y-40376765D01*
X66474614Y-39730270D01*
X66563107Y-39517156D01*
X66563372Y-39214014D01*
X66447608Y-38933846D01*
X66233442Y-38719305D01*
X65953476Y-38603053D01*
X65650334Y-38602788D01*
X65600655Y-38623314D01*
X65600697Y-38576299D01*
X65498439Y-38328817D01*
X65309258Y-38139306D01*
X65061955Y-38036617D01*
X64794179Y-38036383D01*
X64546697Y-38138641D01*
X64357186Y-38327822D01*
X64254497Y-38575125D01*
X64254263Y-38842901D01*
X64356521Y-39090383D01*
X64521080Y-39255229D01*
X64521080Y-40200580D01*
X64552015Y-40356103D01*
X64640112Y-40487948D01*
X65173945Y-41021781D01*
X65173743Y-41253361D01*
X65276001Y-41500843D01*
X65465182Y-41690354D01*
X65712485Y-41793043D01*
X65980261Y-41793277D01*
X66123820Y-41733959D01*
X66123820Y-43153752D01*
X66118285Y-43159278D01*
X66002033Y-43439244D01*
X66001956Y-43527239D01*
X65225588Y-44303608D01*
X65098950Y-44493136D01*
X65054480Y-44716700D01*
X65054480Y-47441063D01*
X65098950Y-47664627D01*
X65225588Y-47854155D01*
X65415702Y-48044269D01*
X65304328Y-48118688D01*
X65304325Y-48118691D01*
X64720128Y-48702888D01*
X64593490Y-48892416D01*
X64549020Y-49115980D01*
X64549020Y-52641500D01*
X64593490Y-52865064D01*
X64720128Y-53054592D01*
X64837896Y-53172359D01*
X64783628Y-53226628D01*
X64656990Y-53416156D01*
X64612520Y-53639720D01*
X64612520Y-55592980D01*
X62913261Y-55592980D01*
X62913261Y-46652180D01*
X62913260Y-46652174D01*
X62913260Y-43601645D01*
X62913260Y-43601640D01*
X62913261Y-43601640D01*
X62880392Y-43436398D01*
X62880391Y-43436397D01*
X62849332Y-43389914D01*
X62786789Y-43296312D01*
X62786789Y-43296311D01*
X62786785Y-43296308D01*
X62692225Y-43201748D01*
X62692397Y-43006059D01*
X62590139Y-42758577D01*
X62442223Y-42610403D01*
X62442222Y-42610402D01*
X62418111Y-42489185D01*
X62418111Y-42489184D01*
X62324509Y-42349098D01*
X61734700Y-41759289D01*
X61734700Y-40213280D01*
X61701831Y-40048037D01*
X61608229Y-39907951D01*
X61608225Y-39907948D01*
X61099645Y-39399368D01*
X61099817Y-39203679D01*
X60997559Y-38956197D01*
X60808378Y-38766686D01*
X60561075Y-38663997D01*
X60293299Y-38663763D01*
X60045817Y-38766021D01*
X59856306Y-38955202D01*
X59753617Y-39202505D01*
X59753523Y-39309041D01*
X57968153Y-39309041D01*
X58035965Y-39145734D01*
X58036233Y-38838693D01*
X57918981Y-38554922D01*
X57702060Y-38337622D01*
X57670700Y-38324600D01*
X57670700Y-36680343D01*
X57746783Y-36497115D01*
X57747017Y-36229339D01*
X57644759Y-35981857D01*
X57455578Y-35792346D01*
X57208275Y-35689657D01*
X56940499Y-35689423D01*
X56693017Y-35791681D01*
X56503506Y-35980862D01*
X56400817Y-36228165D01*
X56400584Y-36493722D01*
X56273917Y-36546061D01*
X56172165Y-36647635D01*
X56090244Y-36565571D01*
X55842941Y-36462882D01*
X55575165Y-36462648D01*
X55327683Y-36564906D01*
X55138172Y-36754087D01*
X55035483Y-37001390D01*
X55035249Y-37269166D01*
X55137507Y-37516648D01*
X55302066Y-37681494D01*
X55302066Y-38333704D01*
X55139639Y-38333563D01*
X54892157Y-38435821D01*
X54702646Y-38625002D01*
X54599957Y-38872305D01*
X54599723Y-39140081D01*
X54701981Y-39387563D01*
X54724966Y-39410589D01*
X54649419Y-39410523D01*
X54401937Y-39512781D01*
X54212426Y-39701962D01*
X54109737Y-39949265D01*
X54109503Y-40217041D01*
X54211761Y-40464523D01*
X54400942Y-40654034D01*
X54648245Y-40756723D01*
X54767344Y-40756827D01*
X54767343Y-40758816D01*
X54869601Y-41006298D01*
X55034160Y-41171144D01*
X55034160Y-44190243D01*
X54088603Y-45135800D01*
X51368960Y-45135800D01*
X51213437Y-45166735D01*
X51081592Y-45254832D01*
X49946211Y-46390213D01*
X49889833Y-46474587D01*
X49889833Y-44120353D01*
X49772581Y-43836582D01*
X49634389Y-43698148D01*
X49771818Y-43560960D01*
X49889565Y-43277394D01*
X49889833Y-42970353D01*
X49772581Y-42686582D01*
X49609389Y-42523105D01*
X49771818Y-42360960D01*
X49889565Y-42077394D01*
X49889833Y-41770353D01*
X49772581Y-41486582D01*
X49555660Y-41269282D01*
X49272094Y-41151535D01*
X48965053Y-41151267D01*
X48681282Y-41268519D01*
X48463982Y-41485440D01*
X48346235Y-41769006D01*
X48345967Y-42076047D01*
X48463219Y-42359818D01*
X48626410Y-42523294D01*
X48463982Y-42685440D01*
X48346235Y-42969006D01*
X48345967Y-43276047D01*
X48463219Y-43559818D01*
X48601410Y-43698251D01*
X48463982Y-43835440D01*
X48346235Y-44119006D01*
X48345967Y-44426047D01*
X48463219Y-44709818D01*
X48588843Y-44835661D01*
X48449362Y-44974900D01*
X48331615Y-45258466D01*
X48331347Y-45565507D01*
X48448599Y-45849278D01*
X48665520Y-46066578D01*
X48949086Y-46184325D01*
X49256127Y-46184593D01*
X49539898Y-46067341D01*
X49757198Y-45850420D01*
X49874945Y-45566854D01*
X49875213Y-45259813D01*
X49757961Y-44976042D01*
X49632336Y-44850198D01*
X49771818Y-44710960D01*
X49889565Y-44427394D01*
X49889833Y-44120353D01*
X49889833Y-46474587D01*
X49858114Y-46522058D01*
X49827179Y-46677581D01*
X49827179Y-49326715D01*
X49644155Y-49250717D01*
X49376379Y-49250483D01*
X49128897Y-49352741D01*
X48939386Y-49541922D01*
X48836697Y-49789225D01*
X48836587Y-49914292D01*
X48475010Y-50275870D01*
X48370396Y-50432437D01*
X48333660Y-50617120D01*
X48333660Y-53787485D01*
X48204337Y-53840921D01*
X48014826Y-54030102D01*
X47912137Y-54277405D01*
X47911903Y-54545181D01*
X48014161Y-54792663D01*
X48203342Y-54982174D01*
X48450645Y-55084863D01*
X48718421Y-55085097D01*
X48965903Y-54982839D01*
X49155414Y-54793658D01*
X49249549Y-54566955D01*
X49319721Y-54736783D01*
X49508902Y-54926294D01*
X49756205Y-55028983D01*
X50023981Y-55029217D01*
X50271463Y-54926959D01*
X50460974Y-54737778D01*
X50563663Y-54490475D01*
X50563885Y-54236208D01*
X50609044Y-54168624D01*
X50639978Y-54013101D01*
X50639979Y-54013101D01*
X50639979Y-46845917D01*
X51537296Y-45948600D01*
X54064571Y-45948600D01*
X53864302Y-46148520D01*
X53746555Y-46432086D01*
X53746287Y-46739127D01*
X53863539Y-47022898D01*
X54076730Y-47236461D01*
X53864302Y-47448520D01*
X53746555Y-47732086D01*
X53746287Y-48039127D01*
X53863539Y-48322898D01*
X54080460Y-48540198D01*
X54364026Y-48657945D01*
X54671067Y-48658213D01*
X54954838Y-48540961D01*
X55172138Y-48324040D01*
X55289885Y-48040474D01*
X55290051Y-47849631D01*
X55380460Y-47940198D01*
X55664026Y-48057945D01*
X55847516Y-48058105D01*
X55394512Y-48511110D01*
X55306415Y-48642955D01*
X55275480Y-48798478D01*
X55275480Y-49678033D01*
X55111586Y-49841642D01*
X55008897Y-50088945D01*
X55008663Y-50356721D01*
X55110921Y-50604203D01*
X55300102Y-50793714D01*
X55547405Y-50896403D01*
X55815181Y-50896637D01*
X56062663Y-50794379D01*
X56252174Y-50605198D01*
X56354863Y-50357895D01*
X56355097Y-50090119D01*
X56252839Y-49842637D01*
X56088280Y-49677790D01*
X56088280Y-48966814D01*
X57063384Y-47991709D01*
X57087041Y-48048963D01*
X57276222Y-48238474D01*
X57523525Y-48341163D01*
X57791301Y-48341397D01*
X58038783Y-48239139D01*
X58071036Y-48206941D01*
X58142404Y-48278309D01*
X58282490Y-48371911D01*
X58447733Y-48404780D01*
X59077860Y-48404780D01*
X59243102Y-48371911D01*
X59243103Y-48371911D01*
X59383189Y-48278309D01*
X60119789Y-47541709D01*
X60213391Y-47401623D01*
X60213391Y-47401622D01*
X60218844Y-47374206D01*
X60246260Y-47236380D01*
X60246261Y-47236380D01*
X60246260Y-47236374D01*
X60246260Y-45634991D01*
X60251078Y-45633001D01*
X60468378Y-45416080D01*
X60481399Y-45384720D01*
X60585226Y-45384720D01*
X60637612Y-45511503D01*
X60826793Y-45701014D01*
X60860940Y-45715193D01*
X60860940Y-45898523D01*
X60697046Y-46062132D01*
X60594357Y-46309435D01*
X60594123Y-46577211D01*
X60696381Y-46824693D01*
X60885562Y-47014204D01*
X61084749Y-47096913D01*
X61029786Y-47151782D01*
X60927097Y-47399085D01*
X60926863Y-47666861D01*
X61029121Y-47914343D01*
X61084460Y-47969778D01*
X61084460Y-50355500D01*
X61117329Y-50520743D01*
X61210931Y-50660829D01*
X61589920Y-51039817D01*
X61589920Y-51191829D01*
X61451426Y-51330082D01*
X61403641Y-51445160D01*
X61386720Y-51445160D01*
X61355631Y-51451343D01*
X61270885Y-51246243D01*
X61081704Y-51056732D01*
X60834401Y-50954043D01*
X60786275Y-50954000D01*
X60786275Y-50040831D01*
X60950169Y-49877223D01*
X61052858Y-49629920D01*
X61053092Y-49362144D01*
X60950834Y-49114662D01*
X60761653Y-48925151D01*
X60514350Y-48822462D01*
X60246574Y-48822228D01*
X59999092Y-48924486D01*
X59809581Y-49113667D01*
X59706892Y-49360970D01*
X59706658Y-49628746D01*
X59808916Y-49876228D01*
X59973475Y-50041074D01*
X59973475Y-51306975D01*
X60004410Y-51462498D01*
X60026939Y-51496215D01*
X60026709Y-51760327D01*
X60128967Y-52007809D01*
X60196120Y-52075080D01*
X59953446Y-52075080D01*
X59789838Y-51911186D01*
X59542535Y-51808497D01*
X59274759Y-51808263D01*
X59027277Y-51910521D01*
X58837766Y-52099702D01*
X58735077Y-52347005D01*
X58734843Y-52614781D01*
X58837101Y-52862263D01*
X59026282Y-53051774D01*
X59273585Y-53154463D01*
X59541361Y-53154697D01*
X59788843Y-53052439D01*
X59953689Y-52887880D01*
X60756800Y-52887880D01*
X60912322Y-52856945D01*
X60912323Y-52856945D01*
X61044168Y-52768848D01*
X61555056Y-52257960D01*
X61615790Y-52257960D01*
X61639942Y-52282154D01*
X61887245Y-52384843D01*
X62155021Y-52385077D01*
X62402503Y-52282819D01*
X62592014Y-52093638D01*
X62694703Y-51846335D01*
X62694937Y-51578559D01*
X62592679Y-51331077D01*
X62453520Y-51191675D01*
X62453520Y-50860960D01*
X62420651Y-50695717D01*
X62327049Y-50555631D01*
X62327045Y-50555628D01*
X61948060Y-50176642D01*
X61948060Y-48118072D01*
X61980863Y-48104519D01*
X62170374Y-47915338D01*
X62273063Y-47668035D01*
X62273235Y-47471062D01*
X62786785Y-46957511D01*
X62786789Y-46957509D01*
X62786789Y-46957508D01*
X62849332Y-46863906D01*
X62880391Y-46817423D01*
X62880392Y-46817422D01*
X62913260Y-46652180D01*
X62913261Y-46652180D01*
X62913261Y-55592980D01*
X60244568Y-55592980D01*
X60249255Y-55588302D01*
X60365507Y-55308336D01*
X60365772Y-55005194D01*
X60250008Y-54725026D01*
X60035842Y-54510485D01*
X59755876Y-54394233D01*
X59452734Y-54393968D01*
X59172566Y-54509732D01*
X58958025Y-54723898D01*
X58841773Y-55003864D01*
X58841508Y-55307006D01*
X58957272Y-55587174D01*
X59019440Y-55649450D01*
X59019440Y-55864760D01*
X59063910Y-56088324D01*
X59190548Y-56277852D01*
X59357376Y-56444680D01*
X56230293Y-56444680D01*
X56230293Y-52158453D01*
X56113041Y-51874682D01*
X55896120Y-51657382D01*
X55612554Y-51539635D01*
X55305513Y-51539367D01*
X55021742Y-51656619D01*
X54804442Y-51873540D01*
X54686695Y-52157106D01*
X54686427Y-52464147D01*
X54803679Y-52747918D01*
X55020600Y-52965218D01*
X55304166Y-53082965D01*
X55611207Y-53083233D01*
X55894978Y-52965981D01*
X56112278Y-52749060D01*
X56230025Y-52465494D01*
X56230293Y-52158453D01*
X56230293Y-56444680D01*
X47365120Y-56444680D01*
X47365120Y-47382355D01*
X47377740Y-47394998D01*
X47661306Y-47512745D01*
X47968347Y-47513013D01*
X48252118Y-47395761D01*
X48469418Y-47178840D01*
X48587165Y-46895274D01*
X48587433Y-46588233D01*
X48470181Y-46304462D01*
X48253260Y-46087162D01*
X47969694Y-45969415D01*
X47662653Y-45969147D01*
X47378882Y-46086399D01*
X47365120Y-46100136D01*
X47365120Y-35205080D01*
X49803629Y-35205080D01*
X49721662Y-35286904D01*
X49586034Y-35613531D01*
X49585726Y-35967197D01*
X49720783Y-36294060D01*
X49970644Y-36544358D01*
X50297271Y-36679986D01*
X50650937Y-36680294D01*
X50977800Y-36545237D01*
X51109891Y-36413376D01*
X51240644Y-36544358D01*
X51567271Y-36679986D01*
X51920937Y-36680294D01*
X52247800Y-36545237D01*
X52379891Y-36413376D01*
X52510644Y-36544358D01*
X52837271Y-36679986D01*
X53190937Y-36680294D01*
X53517800Y-36545237D01*
X53649891Y-36413376D01*
X53780644Y-36544358D01*
X54107271Y-36679986D01*
X54460937Y-36680294D01*
X54787800Y-36545237D01*
X55038098Y-36295376D01*
X55173726Y-35968749D01*
X55174034Y-35615083D01*
X55038977Y-35288220D01*
X54955982Y-35205080D01*
X66705539Y-35205080D01*
X66612093Y-35267519D01*
X66320273Y-35704258D01*
X66217800Y-36219426D01*
X66217800Y-36272174D01*
X66320273Y-36787342D01*
X66612093Y-37224081D01*
X67048832Y-37515901D01*
X67564000Y-37618374D01*
X68079168Y-37515901D01*
X68515907Y-37224081D01*
X68604720Y-37091163D01*
X68604720Y-38175357D01*
X68559548Y-38943280D01*
X68604720Y-38943280D01*
X68604720Y-40888721D01*
X68604720Y-40888721D01*
G37*
X68604720Y-40888721D02*
X68372705Y-40656301D01*
X68067682Y-40529644D01*
X67737407Y-40529356D01*
X67432164Y-40655480D01*
X67292220Y-40795179D01*
X67292220Y-40789865D01*
X67292220Y-40789860D01*
X67292221Y-40789860D01*
X67247751Y-40566297D01*
X67247750Y-40566296D01*
X67205729Y-40503407D01*
X67121112Y-40376769D01*
X67121112Y-40376768D01*
X67121108Y-40376765D01*
X66474614Y-39730270D01*
X66563107Y-39517156D01*
X66563372Y-39214014D01*
X66447608Y-38933846D01*
X66233442Y-38719305D01*
X65953476Y-38603053D01*
X65650334Y-38602788D01*
X65600655Y-38623314D01*
X65600697Y-38576299D01*
X65498439Y-38328817D01*
X65309258Y-38139306D01*
X65061955Y-38036617D01*
X64794179Y-38036383D01*
X64546697Y-38138641D01*
X64357186Y-38327822D01*
X64254497Y-38575125D01*
X64254263Y-38842901D01*
X64356521Y-39090383D01*
X64521080Y-39255229D01*
X64521080Y-40200580D01*
X64552015Y-40356103D01*
X64640112Y-40487948D01*
X65173945Y-41021781D01*
X65173743Y-41253361D01*
X65276001Y-41500843D01*
X65465182Y-41690354D01*
X65712485Y-41793043D01*
X65980261Y-41793277D01*
X66123820Y-41733959D01*
X66123820Y-43153752D01*
X66118285Y-43159278D01*
X66002033Y-43439244D01*
X66001956Y-43527239D01*
X65225588Y-44303608D01*
X65098950Y-44493136D01*
X65054480Y-44716700D01*
X65054480Y-47441063D01*
X65098950Y-47664627D01*
X65225588Y-47854155D01*
X65415702Y-48044269D01*
X65304328Y-48118688D01*
X65304325Y-48118691D01*
X64720128Y-48702888D01*
X64593490Y-48892416D01*
X64549020Y-49115980D01*
X64549020Y-52641500D01*
X64593490Y-52865064D01*
X64720128Y-53054592D01*
X64837896Y-53172359D01*
X64783628Y-53226628D01*
X64656990Y-53416156D01*
X64612520Y-53639720D01*
X64612520Y-55592980D01*
X62913261Y-55592980D01*
X62913261Y-46652180D01*
X62913260Y-46652174D01*
X62913260Y-43601645D01*
X62913260Y-43601640D01*
X62913261Y-43601640D01*
X62880392Y-43436398D01*
X62880391Y-43436397D01*
X62849332Y-43389914D01*
X62786789Y-43296312D01*
X62786789Y-43296311D01*
X62786785Y-43296308D01*
X62692225Y-43201748D01*
X62692397Y-43006059D01*
X62590139Y-42758577D01*
X62442223Y-42610403D01*
X62442222Y-42610402D01*
X62418111Y-42489185D01*
X62418111Y-42489184D01*
X62324509Y-42349098D01*
X61734700Y-41759289D01*
X61734700Y-40213280D01*
X61701831Y-40048037D01*
X61608229Y-39907951D01*
X61608225Y-39907948D01*
X61099645Y-39399368D01*
X61099817Y-39203679D01*
X60997559Y-38956197D01*
X60808378Y-38766686D01*
X60561075Y-38663997D01*
X60293299Y-38663763D01*
X60045817Y-38766021D01*
X59856306Y-38955202D01*
X59753617Y-39202505D01*
X59753523Y-39309041D01*
X57968153Y-39309041D01*
X58035965Y-39145734D01*
X58036233Y-38838693D01*
X57918981Y-38554922D01*
X57702060Y-38337622D01*
X57670700Y-38324600D01*
X57670700Y-36680343D01*
X57746783Y-36497115D01*
X57747017Y-36229339D01*
X57644759Y-35981857D01*
X57455578Y-35792346D01*
X57208275Y-35689657D01*
X56940499Y-35689423D01*
X56693017Y-35791681D01*
X56503506Y-35980862D01*
X56400817Y-36228165D01*
X56400584Y-36493722D01*
X56273917Y-36546061D01*
X56172165Y-36647635D01*
X56090244Y-36565571D01*
X55842941Y-36462882D01*
X55575165Y-36462648D01*
X55327683Y-36564906D01*
X55138172Y-36754087D01*
X55035483Y-37001390D01*
X55035249Y-37269166D01*
X55137507Y-37516648D01*
X55302066Y-37681494D01*
X55302066Y-38333704D01*
X55139639Y-38333563D01*
X54892157Y-38435821D01*
X54702646Y-38625002D01*
X54599957Y-38872305D01*
X54599723Y-39140081D01*
X54701981Y-39387563D01*
X54724966Y-39410589D01*
X54649419Y-39410523D01*
X54401937Y-39512781D01*
X54212426Y-39701962D01*
X54109737Y-39949265D01*
X54109503Y-40217041D01*
X54211761Y-40464523D01*
X54400942Y-40654034D01*
X54648245Y-40756723D01*
X54767344Y-40756827D01*
X54767343Y-40758816D01*
X54869601Y-41006298D01*
X55034160Y-41171144D01*
X55034160Y-44190243D01*
X54088603Y-45135800D01*
X51368960Y-45135800D01*
X51213437Y-45166735D01*
X51081592Y-45254832D01*
X49946211Y-46390213D01*
X49889833Y-46474587D01*
X49889833Y-44120353D01*
X49772581Y-43836582D01*
X49634389Y-43698148D01*
X49771818Y-43560960D01*
X49889565Y-43277394D01*
X49889833Y-42970353D01*
X49772581Y-42686582D01*
X49609389Y-42523105D01*
X49771818Y-42360960D01*
X49889565Y-42077394D01*
X49889833Y-41770353D01*
X49772581Y-41486582D01*
X49555660Y-41269282D01*
X49272094Y-41151535D01*
X48965053Y-41151267D01*
X48681282Y-41268519D01*
X48463982Y-41485440D01*
X48346235Y-41769006D01*
X48345967Y-42076047D01*
X48463219Y-42359818D01*
X48626410Y-42523294D01*
X48463982Y-42685440D01*
X48346235Y-42969006D01*
X48345967Y-43276047D01*
X48463219Y-43559818D01*
X48601410Y-43698251D01*
X48463982Y-43835440D01*
X48346235Y-44119006D01*
X48345967Y-44426047D01*
X48463219Y-44709818D01*
X48588843Y-44835661D01*
X48449362Y-44974900D01*
X48331615Y-45258466D01*
X48331347Y-45565507D01*
X48448599Y-45849278D01*
X48665520Y-46066578D01*
X48949086Y-46184325D01*
X49256127Y-46184593D01*
X49539898Y-46067341D01*
X49757198Y-45850420D01*
X49874945Y-45566854D01*
X49875213Y-45259813D01*
X49757961Y-44976042D01*
X49632336Y-44850198D01*
X49771818Y-44710960D01*
X49889565Y-44427394D01*
X49889833Y-44120353D01*
X49889833Y-46474587D01*
X49858114Y-46522058D01*
X49827179Y-46677581D01*
X49827179Y-49326715D01*
X49644155Y-49250717D01*
X49376379Y-49250483D01*
X49128897Y-49352741D01*
X48939386Y-49541922D01*
X48836697Y-49789225D01*
X48836587Y-49914292D01*
X48475010Y-50275870D01*
X48370396Y-50432437D01*
X48333660Y-50617120D01*
X48333660Y-53787485D01*
X48204337Y-53840921D01*
X48014826Y-54030102D01*
X47912137Y-54277405D01*
X47911903Y-54545181D01*
X48014161Y-54792663D01*
X48203342Y-54982174D01*
X48450645Y-55084863D01*
X48718421Y-55085097D01*
X48965903Y-54982839D01*
X49155414Y-54793658D01*
X49249549Y-54566955D01*
X49319721Y-54736783D01*
X49508902Y-54926294D01*
X49756205Y-55028983D01*
X50023981Y-55029217D01*
X50271463Y-54926959D01*
X50460974Y-54737778D01*
X50563663Y-54490475D01*
X50563885Y-54236208D01*
X50609044Y-54168624D01*
X50639978Y-54013101D01*
X50639979Y-54013101D01*
X50639979Y-46845917D01*
X51537296Y-45948600D01*
X54064571Y-45948600D01*
X53864302Y-46148520D01*
X53746555Y-46432086D01*
X53746287Y-46739127D01*
X53863539Y-47022898D01*
X54076730Y-47236461D01*
X53864302Y-47448520D01*
X53746555Y-47732086D01*
X53746287Y-48039127D01*
X53863539Y-48322898D01*
X54080460Y-48540198D01*
X54364026Y-48657945D01*
X54671067Y-48658213D01*
X54954838Y-48540961D01*
X55172138Y-48324040D01*
X55289885Y-48040474D01*
X55290051Y-47849631D01*
X55380460Y-47940198D01*
X55664026Y-48057945D01*
X55847516Y-48058105D01*
X55394512Y-48511110D01*
X55306415Y-48642955D01*
X55275480Y-48798478D01*
X55275480Y-49678033D01*
X55111586Y-49841642D01*
X55008897Y-50088945D01*
X55008663Y-50356721D01*
X55110921Y-50604203D01*
X55300102Y-50793714D01*
X55547405Y-50896403D01*
X55815181Y-50896637D01*
X56062663Y-50794379D01*
X56252174Y-50605198D01*
X56354863Y-50357895D01*
X56355097Y-50090119D01*
X56252839Y-49842637D01*
X56088280Y-49677790D01*
X56088280Y-48966814D01*
X57063384Y-47991709D01*
X57087041Y-48048963D01*
X57276222Y-48238474D01*
X57523525Y-48341163D01*
X57791301Y-48341397D01*
X58038783Y-48239139D01*
X58071036Y-48206941D01*
X58142404Y-48278309D01*
X58282490Y-48371911D01*
X58447733Y-48404780D01*
X59077860Y-48404780D01*
X59243102Y-48371911D01*
X59243103Y-48371911D01*
X59383189Y-48278309D01*
X60119789Y-47541709D01*
X60213391Y-47401623D01*
X60213391Y-47401622D01*
X60218844Y-47374206D01*
X60246260Y-47236380D01*
X60246261Y-47236380D01*
X60246260Y-47236374D01*
X60246260Y-45634991D01*
X60251078Y-45633001D01*
X60468378Y-45416080D01*
X60481399Y-45384720D01*
X60585226Y-45384720D01*
X60637612Y-45511503D01*
X60826793Y-45701014D01*
X60860940Y-45715193D01*
X60860940Y-45898523D01*
X60697046Y-46062132D01*
X60594357Y-46309435D01*
X60594123Y-46577211D01*
X60696381Y-46824693D01*
X60885562Y-47014204D01*
X61084749Y-47096913D01*
X61029786Y-47151782D01*
X60927097Y-47399085D01*
X60926863Y-47666861D01*
X61029121Y-47914343D01*
X61084460Y-47969778D01*
X61084460Y-50355500D01*
X61117329Y-50520743D01*
X61210931Y-50660829D01*
X61589920Y-51039817D01*
X61589920Y-51191829D01*
X61451426Y-51330082D01*
X61403641Y-51445160D01*
X61386720Y-51445160D01*
X61355631Y-51451343D01*
X61270885Y-51246243D01*
X61081704Y-51056732D01*
X60834401Y-50954043D01*
X60786275Y-50954000D01*
X60786275Y-50040831D01*
X60950169Y-49877223D01*
X61052858Y-49629920D01*
X61053092Y-49362144D01*
X60950834Y-49114662D01*
X60761653Y-48925151D01*
X60514350Y-48822462D01*
X60246574Y-48822228D01*
X59999092Y-48924486D01*
X59809581Y-49113667D01*
X59706892Y-49360970D01*
X59706658Y-49628746D01*
X59808916Y-49876228D01*
X59973475Y-50041074D01*
X59973475Y-51306975D01*
X60004410Y-51462498D01*
X60026939Y-51496215D01*
X60026709Y-51760327D01*
X60128967Y-52007809D01*
X60196120Y-52075080D01*
X59953446Y-52075080D01*
X59789838Y-51911186D01*
X59542535Y-51808497D01*
X59274759Y-51808263D01*
X59027277Y-51910521D01*
X58837766Y-52099702D01*
X58735077Y-52347005D01*
X58734843Y-52614781D01*
X58837101Y-52862263D01*
X59026282Y-53051774D01*
X59273585Y-53154463D01*
X59541361Y-53154697D01*
X59788843Y-53052439D01*
X59953689Y-52887880D01*
X60756800Y-52887880D01*
X60912322Y-52856945D01*
X60912323Y-52856945D01*
X61044168Y-52768848D01*
X61555056Y-52257960D01*
X61615790Y-52257960D01*
X61639942Y-52282154D01*
X61887245Y-52384843D01*
X62155021Y-52385077D01*
X62402503Y-52282819D01*
X62592014Y-52093638D01*
X62694703Y-51846335D01*
X62694937Y-51578559D01*
X62592679Y-51331077D01*
X62453520Y-51191675D01*
X62453520Y-50860960D01*
X62420651Y-50695717D01*
X62327049Y-50555631D01*
X62327045Y-50555628D01*
X61948060Y-50176642D01*
X61948060Y-48118072D01*
X61980863Y-48104519D01*
X62170374Y-47915338D01*
X62273063Y-47668035D01*
X62273235Y-47471062D01*
X62786785Y-46957511D01*
X62786789Y-46957509D01*
X62786789Y-46957508D01*
X62849332Y-46863906D01*
X62880391Y-46817423D01*
X62880392Y-46817422D01*
X62913260Y-46652180D01*
X62913261Y-46652180D01*
X62913261Y-55592980D01*
X60244568Y-55592980D01*
X60249255Y-55588302D01*
X60365507Y-55308336D01*
X60365772Y-55005194D01*
X60250008Y-54725026D01*
X60035842Y-54510485D01*
X59755876Y-54394233D01*
X59452734Y-54393968D01*
X59172566Y-54509732D01*
X58958025Y-54723898D01*
X58841773Y-55003864D01*
X58841508Y-55307006D01*
X58957272Y-55587174D01*
X59019440Y-55649450D01*
X59019440Y-55864760D01*
X59063910Y-56088324D01*
X59190548Y-56277852D01*
X59357376Y-56444680D01*
X56230293Y-56444680D01*
X56230293Y-52158453D01*
X56113041Y-51874682D01*
X55896120Y-51657382D01*
X55612554Y-51539635D01*
X55305513Y-51539367D01*
X55021742Y-51656619D01*
X54804442Y-51873540D01*
X54686695Y-52157106D01*
X54686427Y-52464147D01*
X54803679Y-52747918D01*
X55020600Y-52965218D01*
X55304166Y-53082965D01*
X55611207Y-53083233D01*
X55894978Y-52965981D01*
X56112278Y-52749060D01*
X56230025Y-52465494D01*
X56230293Y-52158453D01*
X56230293Y-56444680D01*
X47365120Y-56444680D01*
X47365120Y-47382355D01*
X47377740Y-47394998D01*
X47661306Y-47512745D01*
X47968347Y-47513013D01*
X48252118Y-47395761D01*
X48469418Y-47178840D01*
X48587165Y-46895274D01*
X48587433Y-46588233D01*
X48470181Y-46304462D01*
X48253260Y-46087162D01*
X47969694Y-45969415D01*
X47662653Y-45969147D01*
X47378882Y-46086399D01*
X47365120Y-46100136D01*
X47365120Y-35205080D01*
X49803629Y-35205080D01*
X49721662Y-35286904D01*
X49586034Y-35613531D01*
X49585726Y-35967197D01*
X49720783Y-36294060D01*
X49970644Y-36544358D01*
X50297271Y-36679986D01*
X50650937Y-36680294D01*
X50977800Y-36545237D01*
X51109891Y-36413376D01*
X51240644Y-36544358D01*
X51567271Y-36679986D01*
X51920937Y-36680294D01*
X52247800Y-36545237D01*
X52379891Y-36413376D01*
X52510644Y-36544358D01*
X52837271Y-36679986D01*
X53190937Y-36680294D01*
X53517800Y-36545237D01*
X53649891Y-36413376D01*
X53780644Y-36544358D01*
X54107271Y-36679986D01*
X54460937Y-36680294D01*
X54787800Y-36545237D01*
X55038098Y-36295376D01*
X55173726Y-35968749D01*
X55174034Y-35615083D01*
X55038977Y-35288220D01*
X54955982Y-35205080D01*
X66705539Y-35205080D01*
X66612093Y-35267519D01*
X66320273Y-35704258D01*
X66217800Y-36219426D01*
X66217800Y-36272174D01*
X66320273Y-36787342D01*
X66612093Y-37224081D01*
X67048832Y-37515901D01*
X67564000Y-37618374D01*
X68079168Y-37515901D01*
X68515907Y-37224081D01*
X68604720Y-37091163D01*
X68604720Y-38175357D01*
X68559548Y-38943280D01*
X68604720Y-38943280D01*
X68604720Y-40888721D01*
M02*
