G04 #@! TF.FileFunction,Legend,Bot*
%FSLAX46Y46*%
G04 Gerber Fmt 4.6, Leading zero omitted, Abs format (unit mm)*
G04 Created by KiCad (PCBNEW (2014-12-04 BZR 5312)-product) date 1/18/2015 1:19:07 PM*
%MOMM*%
G01*
G04 APERTURE LIST*
%ADD10C,0.100000*%
%ADD11C,0.300000*%
%ADD12C,0.190500*%
%ADD13C,0.254000*%
G04 APERTURE END LIST*
D10*
D11*
X50999651Y-44331252D02*
X52499651Y-44688395D01*
X51428223Y-44974109D01*
X52499651Y-45259823D01*
X50999651Y-45616966D01*
X52499651Y-46188395D02*
X51499651Y-46188395D01*
X50999651Y-46188395D02*
X51071080Y-46116966D01*
X51142509Y-46188395D01*
X51071080Y-46259823D01*
X50999651Y-46188395D01*
X51142509Y-46188395D01*
X52499651Y-47116967D02*
X52428223Y-46974109D01*
X52285366Y-46902681D01*
X50999651Y-46902681D01*
X52499651Y-47902681D02*
X52428223Y-47759823D01*
X52285366Y-47688395D01*
X50999651Y-47688395D01*
X52499651Y-49616966D02*
X51499651Y-49616966D01*
X50999651Y-49616966D02*
X51071080Y-49545537D01*
X51142509Y-49616966D01*
X51071080Y-49688394D01*
X50999651Y-49616966D01*
X51142509Y-49616966D01*
X51499651Y-50116966D02*
X51499651Y-50688395D01*
X50999651Y-50331252D02*
X52285366Y-50331252D01*
X52428223Y-50402680D01*
X52499651Y-50545538D01*
X52499651Y-50688395D01*
X51499651Y-52116966D02*
X51499651Y-52688395D01*
X52499651Y-52331252D02*
X51213937Y-52331252D01*
X51071080Y-52402680D01*
X50999651Y-52545538D01*
X50999651Y-52688395D01*
X52499651Y-53402681D02*
X52428223Y-53259823D01*
X52285366Y-53188395D01*
X50999651Y-53188395D01*
X51499651Y-53831252D02*
X52499651Y-54188395D01*
X51499651Y-54545537D02*
X52499651Y-54188395D01*
X52856794Y-54045537D01*
X52928223Y-53974109D01*
X52999651Y-53831252D01*
X52356794Y-55331252D02*
X52428223Y-55402680D01*
X52499651Y-55331252D01*
X52428223Y-55259823D01*
X52356794Y-55331252D01*
X52499651Y-55331252D01*
X51071080Y-55045537D02*
X50999651Y-55188394D01*
X50999651Y-55545537D01*
X51071080Y-55688394D01*
X51213937Y-55759823D01*
X51356794Y-55759823D01*
X51499651Y-55688394D01*
X51571080Y-55616966D01*
X51642509Y-55474109D01*
X51713937Y-55402680D01*
X51856794Y-55331252D01*
X51928223Y-55331252D01*
D12*
X53093257Y-40103334D02*
X52839257Y-40865334D01*
X52585257Y-40103334D01*
X52331256Y-40792763D02*
X52294971Y-40829049D01*
X52331256Y-40865334D01*
X52367542Y-40829049D01*
X52331256Y-40792763D01*
X52331256Y-40865334D01*
X51823257Y-40103334D02*
X51750685Y-40103334D01*
X51678114Y-40139620D01*
X51641828Y-40175906D01*
X51605542Y-40248477D01*
X51569257Y-40393620D01*
X51569257Y-40575049D01*
X51605542Y-40720191D01*
X51641828Y-40792763D01*
X51678114Y-40829049D01*
X51750685Y-40865334D01*
X51823257Y-40865334D01*
X51895828Y-40829049D01*
X51932114Y-40792763D01*
X51968399Y-40720191D01*
X52004685Y-40575049D01*
X52004685Y-40393620D01*
X51968399Y-40248477D01*
X51932114Y-40175906D01*
X51895828Y-40139620D01*
X51823257Y-40103334D01*
X51242685Y-40792763D02*
X51206400Y-40829049D01*
X51242685Y-40865334D01*
X51278971Y-40829049D01*
X51242685Y-40792763D01*
X51242685Y-40865334D01*
X50480686Y-40865334D02*
X50916114Y-40865334D01*
X50698400Y-40865334D02*
X50698400Y-40103334D01*
X50770971Y-40212191D01*
X50843543Y-40284763D01*
X50916114Y-40321049D01*
X50154114Y-40792763D02*
X50117829Y-40829049D01*
X50154114Y-40865334D01*
X50190400Y-40829049D01*
X50154114Y-40792763D01*
X50154114Y-40865334D01*
X49827543Y-40175906D02*
X49791257Y-40139620D01*
X49718686Y-40103334D01*
X49537257Y-40103334D01*
X49464686Y-40139620D01*
X49428400Y-40175906D01*
X49392115Y-40248477D01*
X49392115Y-40321049D01*
X49428400Y-40429906D01*
X49863829Y-40865334D01*
X49392115Y-40865334D01*
D13*
X52366091Y-39636821D02*
X52462853Y-39588440D01*
X52559615Y-39491678D01*
X52704758Y-39346535D01*
X52801519Y-39298154D01*
X52898281Y-39298154D01*
X52849900Y-39540059D02*
X52946662Y-39491678D01*
X53043424Y-39394916D01*
X53091805Y-39201392D01*
X53091805Y-38862726D01*
X53043424Y-38669202D01*
X52946662Y-38572440D01*
X52849900Y-38524059D01*
X52656377Y-38524059D01*
X52559615Y-38572440D01*
X52462853Y-38669202D01*
X52414472Y-38862726D01*
X52414472Y-39201392D01*
X52462853Y-39394916D01*
X52559615Y-39491678D01*
X52656377Y-39540059D01*
X52849900Y-39540059D01*
X51979043Y-39540059D02*
X51979043Y-38524059D01*
X51640377Y-39249773D01*
X51301710Y-38524059D01*
X51301710Y-39540059D01*
X50479234Y-39007869D02*
X50334091Y-39056250D01*
X50285710Y-39104630D01*
X50237329Y-39201392D01*
X50237329Y-39346535D01*
X50285710Y-39443297D01*
X50334091Y-39491678D01*
X50430853Y-39540059D01*
X50817900Y-39540059D01*
X50817900Y-38524059D01*
X50479234Y-38524059D01*
X50382472Y-38572440D01*
X50334091Y-38620821D01*
X50285710Y-38717583D01*
X50285710Y-38814345D01*
X50334091Y-38911107D01*
X50382472Y-38959488D01*
X50479234Y-39007869D01*
X50817900Y-39007869D01*
X49947043Y-38524059D02*
X49366472Y-38524059D01*
X49656757Y-39540059D02*
X49656757Y-38524059D01*
M02*
