G04 #@! TF.FileFunction,Copper,L1,Top,Signal*
%FSLAX46Y46*%
G04 Gerber Fmt 4.6, Leading zero omitted, Abs format (unit mm)*
G04 Created by KiCad (PCBNEW (2014-12-04 BZR 5312)-product) date 1/13/2015 2:37:52 AM*
%MOMM*%
G01*
G04 APERTURE LIST*
%ADD10C,0.025400*%
%ADD11C,1.117600*%
%ADD12R,2.032000X1.727200*%
%ADD13O,2.032000X1.727200*%
%ADD14C,0.304800*%
G04 APERTURE END LIST*
D10*
D11*
X143891000Y-106299000D03*
X143891000Y-105029000D03*
X143891000Y-103759000D03*
X143891000Y-102489000D03*
X143891000Y-101219000D03*
X143891000Y-99949000D03*
D12*
X139065000Y-97663000D03*
D13*
X139065000Y-100203000D03*
X139065000Y-102743000D03*
X139065000Y-105283000D03*
X139065000Y-107823000D03*
X139065000Y-110363000D03*
D14*
X139065000Y-110363000D02*
X139217400Y-110363000D01*
X139217400Y-110363000D02*
X143281400Y-106299000D01*
X143281400Y-106299000D02*
X143891000Y-106299000D01*
X139065000Y-107823000D02*
X139217400Y-107823000D01*
X139217400Y-107823000D02*
X142011400Y-105029000D01*
X142011400Y-105029000D02*
X143100738Y-105029000D01*
X143100738Y-105029000D02*
X143891000Y-105029000D01*
X139065000Y-105283000D02*
X140385800Y-105283000D01*
X140385800Y-105283000D02*
X141909800Y-103759000D01*
X141909800Y-103759000D02*
X143100738Y-103759000D01*
X143100738Y-103759000D02*
X143891000Y-103759000D01*
X139065000Y-102743000D02*
X143637000Y-102743000D01*
X143637000Y-102743000D02*
X143891000Y-102489000D01*
X139065000Y-100203000D02*
X140385800Y-100203000D01*
X140385800Y-100203000D02*
X141401800Y-101219000D01*
X141401800Y-101219000D02*
X143100738Y-101219000D01*
X143100738Y-101219000D02*
X143891000Y-101219000D01*
X139065000Y-97663000D02*
X141605000Y-97663000D01*
X141605000Y-97663000D02*
X143891000Y-99949000D01*
M02*
